<?xml version="1.0" standalone="no"?>
<!DOCTYPE svg PUBLIC "-//W3C//DTD SVG 1.1//EN" "http://www.w3.org/Graphics/SVG/1.1/DTD/svg11.dtd" >
<svg>
<metadata>
Created by FontForge 20090622 at Wed Nov 14 00:11:56 2018
 By deploy user
Copyright (c) 2018 by Colophon Foundry. All rights reserved. |DCNT
</metadata>
<defs>
<font id="ApercuMonoPro-Regular" horiz-adv-x="620" >
  <font-face 
    font-family="Apercu Mono Pro"
    font-weight="400"
    font-stretch="normal"
    units-per-em="1000"
    panose-1="2 1 5 9 4 0 0 4 0 3"
    ascent="788"
    descent="-212"
    x-height="504"
    cap-height="700"
    bbox="-612 -263 643 1119"
    underline-thickness="62"
    underline-position="-98"
    unicode-range="U+000D-U+FB02"
  />
<missing-glyph 
d="M86 0v700h447v-700h-447zM170 76h279v548h-279v-548z" />
    <glyph glyph-name="fi" unicode="fi" 
d="M166 0v428h-92v76h92v26q0 84 51 131t134 47q56 0 96.5 -18t80.5 -58l-58 -55q-34 31 -59.5 43t-60.5 12q-48 0 -74 -24t-26 -71v-33h297v-504h-84v428h-213v-428h-84z" />
    <glyph glyph-name="fl" unicode="fl" 
d="M139 0v428h-92v76h92v18q0 178 155 178h228v-700h-84v624h-145q-70 0 -70 -95v-25h104v-76h-104v-428h-84z" />
    <glyph glyph-name=".notdef" 
d="M86 0v700h447v-700h-447zM170 76h279v548h-279v-548z" />
    <glyph glyph-name=".null" horiz-adv-x="0" 
 />
    <glyph glyph-name="nonmarkingreturn" horiz-adv-x="333" 
 />
    <glyph glyph-name="CR" unicode="&#xd;" 
 />
    <glyph glyph-name="space" unicode=" " 
 />
    <glyph glyph-name="exclam" unicode="!" 
d="M277 200l-24 500h114l-24 -500h-66zM240 65q0 30 20 50.5t50 20.5t50 -20.5t20 -50.5q0 -29 -20 -48.5t-50 -19.5t-50 19.5t-20 48.5z" />
    <glyph glyph-name="quotedbl" unicode="&#x22;" 
d="M182 462l-25 246h114l-25 -246h-64zM373 462l-25 246h114l-25 -246h-64z" />
    <glyph glyph-name="numbersign" unicode="#" 
d="M110 0l34 208h-98v74h110l22 136h-102v74h114l33 208h78l-33 -208h131l34 208h78l-34 -208h98v-74h-110l-22 -136h102v-74h-114l-33 -208h-78l33 208h-131l-34 -208h-78zM234 282h131l22 136h-131z" />
    <glyph glyph-name="dollar" unicode="$" 
d="M364 -5v-95h-80v94q-87 10 -145 63.5t-76 142.5l82 32q41 -156 179 -156q57 0 97 31q42 32 42 82q0 52 -34 79t-120 49q-91 23 -146 69q-56 47 -56 135q0 73 47.5 124t129.5 61v94h80v-95q64 -11 109 -50.5t67 -96.5l-77 -39q-47 105 -142 105q-58 0 -92 -28.5t-34 -79.5
q0 -34 20 -57q19 -20 49.5 -33t92.5 -29q100 -27 146 -67.5t48 -128.5q0 -87 -53 -142q-54 -54 -134 -64z" />
    <glyph glyph-name="percent" unicode="%" 
d="M13 548q0 66 46.5 113t113.5 47t113.5 -47t46.5 -113t-46.5 -113t-113.5 -47t-113.5 47t-46.5 113zM260 548q0 40 -24 65t-63 25t-63 -25t-24 -65t24 -65t63 -25t63 25t24 65zM74 151l-34 48l507 353l34 -48zM287 152q0 66 46.5 113t113.5 47t113.5 -47t46.5 -113
t-46.5 -113t-113.5 -47t-113.5 47t-46.5 113zM534 152q0 40 -24 65t-63 25t-63 -25t-24 -65t24 -65t63 -25t63 25t24 65z" />
    <glyph glyph-name="ampersand" unicode="&#x26;" 
d="M31 200q0 70 38 126t98 87q-61 81 -61 146t44 107q45 42 111 42q69 0 112.5 -41.5t43.5 -98.5q0 -106 -136 -176l146 -185q21 43 47 119l56 -61q-21 -64 -52 -123l112 -142h-101l-59 74q-72 -82 -187 -82q-97 0 -154.5 56t-57.5 152zM338 563q0 31 -22 52t-55 21
t-54 -22.5t-21 -58.5q0 -45 49 -109q53 26 78 53t25 64zM382 135l-172 221q-95 -53 -95 -158q0 -59 36.5 -94.5t91.5 -35.5q84 0 139 67z" />
    <glyph glyph-name="quotesingle" unicode="'" 
d="M278 462l-25 246h114l-25 -246h-64z" />
    <glyph glyph-name="parenleft" unicode="(" 
d="M242 350q0 228 108 400h84q-106 -167 -106 -400t106 -400h-84q-108 172 -108 400z" />
    <glyph glyph-name="parenright" unicode=")" 
d="M292 350q0 233 -106 400h84q108 -172 108 -400t-108 -400h-84q106 167 106 400z" />
    <glyph glyph-name="asterisk" unicode="*" 
d="M229 355l-55 39l80 111l-130 43l21 65l131 -43v138h68v-138l131 43l21 -65l-130 -43l80 -111l-55 -39l-81 111z" />
    <glyph glyph-name="plus" unicode="+" 
d="M273 99v183h-183v74h183v183h74v-183h183v-74h-183v-183h-74z" />
    <glyph glyph-name="comma" unicode="," 
d="M210 -103l58 210h117l-116 -210h-59z" />
    <glyph glyph-name="hyphen" unicode="-" 
d="M136 280v74h349v-74h-349z" />
    <glyph glyph-name="period" unicode="." 
d="M248 59q0 27 17.5 44.5t44.5 17.5t44.5 -17.5t17.5 -44.5t-17.5 -44.5t-44.5 -17.5t-44.5 17.5t-17.5 44.5z" />
    <glyph glyph-name="slash" unicode="/" 
d="M62 -50l406 800h86l-406 -800h-86z" />
    <glyph glyph-name="zero" unicode="0" 
d="M54 350q0 165 68 261.5t188 96.5t188 -96.5t68 -261.5t-68 -261.5t-188 -96.5t-188 96.5t-68 261.5zM179 160l208 445q-35 23 -77 23q-80 0 -124 -74t-44 -204q0 -117 37 -190zM478 350q0 119 -37 190l-208 -445q35 -23 77 -23q80 0 124 74t44 204z" />
    <glyph glyph-name="one" unicode="1" 
d="M117 0v76h180v498l-175 -104v92l227 138h32v-624h180v-76h-444z" />
    <glyph glyph-name="two" unicode="2" 
d="M94 0v39l276 342q33 41 45 70t12 63q0 53 -29 83.5t-81 30.5q-48 0 -81.5 -34.5t-41.5 -92.5l-85 16q7 81 68 136t140 55q91 0 143.5 -51.5t52.5 -142.5q0 -83 -56 -152l-226 -282h295v-80h-432z" />
    <glyph glyph-name="three" unicode="3" 
d="M80 192l84 11q19 -131 139 -131q64 0 102 39.5t38 108.5q0 70 -37.5 109t-102.5 39q-36 0 -62 -13l-35 47l159 218h-252v80h380v-27l-178 -241q9 3 28 3q81 0 133.5 -60t52.5 -155q0 -100 -63 -164t-163 -64q-88 0 -151 55t-72 145z" />
    <glyph glyph-name="four" unicode="4" 
d="M366 0v149h-304v35l296 516h94v-471h106v-80h-106v-149h-86zM176 229h190v339z" />
    <glyph glyph-name="five" unicode="5" 
d="M95 183l85 16q9 -61 44.5 -94t90.5 -33q64 0 103 43t39 113q0 72 -35.5 114t-98.5 42q-46 0 -88 -21.5t-69 -56.5l-55 12l40 382h342v-80h-269l-26 -203q21 20 58.5 33.5t72.5 13.5q99 0 156.5 -63.5t57.5 -172.5q0 -104 -64 -170t-164 -66q-91 0 -151 50.5t-69 140.5z
" />
    <glyph glyph-name="six" unicode="6" 
d="M104 220q0 70 36 131l207 357h96l-152 -267q14 7 38 7q95 0 156 -64t61 -164q0 -97 -62.5 -162.5t-158.5 -65.5t-158.5 65.5t-62.5 162.5zM458 220q0 67 -37 107.5t-96 40.5t-96 -40.5t-37 -107.5q0 -64 37.5 -106t95.5 -42t95.5 42t37.5 106z" />
    <glyph glyph-name="seven" unicode="7" 
d="M129 0l295 620h-339v80h449v-37l-312 -663h-93z" />
    <glyph glyph-name="eight" unicode="8" 
d="M93 201q0 62 27.5 108t76.5 68q-35 19 -57.5 59.5t-22.5 84.5q0 79 55 133t138 54t138 -54t55 -133q0 -44 -22.5 -84.5t-57.5 -59.5q49 -22 76.5 -68t27.5 -108q0 -94 -63 -151.5t-154 -57.5t-154 57.5t-63 151.5zM417 521q0 49 -29.5 80t-77.5 31t-77.5 -31t-29.5 -80
t29.5 -80t77.5 -31t77.5 31t29.5 80zM439 201q0 59 -35.5 94t-93.5 35t-93.5 -35t-35.5 -94t35.5 -94t93.5 -35t93.5 35t35.5 94z" />
    <glyph glyph-name="nine" unicode="9" 
d="M192 -8l152 267q-14 -7 -38 -7q-95 0 -156 64t-61 164q0 97 62.5 162.5t158.5 65.5t158.5 -65.5t62.5 -162.5q0 -70 -36 -131l-207 -357h-96zM443 480q0 64 -37.5 106t-95.5 42t-95.5 -42t-37.5 -106q0 -67 37 -107.5t96 -40.5t96 40.5t37 107.5z" />
    <glyph glyph-name="colon" unicode=":" 
d="M248 59q0 27 17.5 44.5t44.5 17.5t44.5 -17.5t17.5 -44.5t-17.5 -44.5t-44.5 -17.5t-44.5 17.5t-17.5 44.5zM248 416q0 27 17.5 44.5t44.5 17.5t44.5 -17.5t17.5 -44.5t-17.5 -44.5t-44.5 -17.5t-44.5 17.5t-17.5 44.5z" />
    <glyph glyph-name="semicolon" unicode=";" 
d="M200 -103l58 210h117l-116 -210h-59zM248 416q0 27 17.5 44.5t44.5 17.5t44.5 -17.5t17.5 -44.5t-17.5 -44.5t-44.5 -17.5t-44.5 17.5t-17.5 44.5z" />
    <glyph glyph-name="less" unicode="&#x3c;" 
d="M507 70l-409 196v88l409 196v-87l-325 -153l325 -153v-87z" />
    <glyph glyph-name="equal" unicode="=" 
d="M111 356v74h399v-74h-399zM111 190v74h399v-74h-399z" />
    <glyph glyph-name="greater" unicode="&#x3e;" 
d="M113 70v87l325 153l-325 153v87l409 -196v-88z" />
    <glyph glyph-name="question" unicode="?" 
d="M182 326q0 78 85 120l92 47q43 22 43 71q0 35 -23 54t-63 19q-38 0 -65.5 -24.5t-39.5 -67.5l-78 13q12 69 60.5 109.5t122.5 40.5q77 0 123.5 -40t46.5 -109q0 -81 -77 -119l-101 -49q-49 -24 -49 -69q0 -24 14 -37.5t38 -13.5q46 0 72 59l65 -23q-36 -105 -134 -105
q-60 0 -96 33.5t-36 90.5zM248 63q0 29 19 48.5t47 19.5q29 0 48.5 -19.5t19.5 -48.5q0 -28 -19.5 -47t-48.5 -19q-28 0 -47 19t-19 47z" />
    <glyph glyph-name="at" unicode="@" 
d="M42 282v39q0 192 76 294.5t217 102.5q115 0 179.5 -59t64.5 -168v-384h-78l-8 44q-39 -52 -108 -52q-80 0 -130 58.5t-50 146.5q0 91 49 147q50 57 131 57q76 0 117 -44v21q0 75 -45.5 118t-121.5 43q-97 0 -153 -85.5t-56 -242.5v-34q0 -147 57.5 -227t166.5 -80
q107 0 179 72l39 -61q-85 -82 -218 -82q-147 0 -227.5 98t-80.5 278zM499 304q0 60 -28 95t-78 35t-78 -35t-28 -95q0 -58 29 -94.5t77 -36.5t77 36.5t29 94.5z" />
    <glyph glyph-name="A" unicode="A" 
d="M19 0l249 700h84l249 -700h-91l-63 187h-274l-63 -187h-91zM202 271h216l-108 315z" />
    <glyph glyph-name="B" unicode="B" 
d="M96 0v700h246q94 0 146.5 -47t52.5 -133q0 -44 -22 -81t-58 -56q53 -21 84 -67t31 -108q0 -97 -58 -152.5t-160 -55.5h-262zM184 415h156q52 0 81 26t29 74q0 49 -29.5 75t-80.5 26h-156v-201zM184 84h161q71 0 105.5 30t34.5 94q0 123 -140 123h-161v-247z" />
    <glyph glyph-name="C" unicode="C" 
d="M49 350q0 171 81 264.5t208 93.5q96 0 161 -57t90 -156l-83 -25q-24 79 -64 116.5t-104 37.5q-95 0 -146.5 -69t-51.5 -205t51.5 -205t146.5 -69q64 0 104 37.5t64 116.5l83 -25q-25 -99 -90 -156t-161 -57q-127 0 -208 93.5t-81 264.5z" />
    <glyph glyph-name="D" unicode="D" 
d="M78 0v700h177q143 0 227 -90t84 -260t-84 -260t-227 -90h-177zM166 84h80q113 0 169.5 64t56.5 202t-56.5 202t-169.5 64h-80v-532z" />
    <glyph glyph-name="E" unicode="E" 
d="M91 0v700h444v-84h-356v-201h306v-84h-306v-247h366v-84h-454z" />
    <glyph glyph-name="F" unicode="F" 
d="M91 0v700h437v-84h-349v-209h300v-84h-300v-323h-88z" />
    <glyph glyph-name="G" unicode="G" 
d="M44 350q0 171 81 264.5t208 93.5q97 0 162 -56.5t89 -156.5l-83 -25q-24 79 -64 116.5t-104 37.5q-95 0 -146.5 -69t-51.5 -205t51.5 -205t146.5 -69q143 0 157 193h-157v84h248v-353h-73l-5 94q-23 -49 -70 -75.5t-106 -26.5q-123 0 -203 94t-80 264z" />
    <glyph glyph-name="H" unicode="H" 
d="M68 0v700h88v-286h308v286h88v-700h-88v330h-308v-330h-88z" />
    <glyph glyph-name="I" unicode="I" 
d="M97 0v76h169v548h-169v76h426v-76h-169v-548h169v-76h-426z" />
    <glyph glyph-name="J" unicode="J" 
d="M73 182l89 19q12 -60 45 -92.5t84 -32.5q61 0 94 36.5t33 109.5v478h88v-476q0 -113 -60 -173q-61 -59 -155 -59q-91 0 -148 54t-70 136z" />
    <glyph glyph-name="K" unicode="K" 
d="M63 0v700h88v-281l268 281h115l-302 -315l324 -385h-112l-293 351v-351h-88z" />
    <glyph glyph-name="L" unicode="L" 
d="M88 0v700h88v-616h357v-84h-445z" />
    <glyph glyph-name="M" unicode="M" 
d="M67 0v700h94l149 -388l149 388h94v-700h-88v513l-122 -312h-66l-122 312v-513h-88z" />
    <glyph glyph-name="N" unicode="N" 
d="M71 0v700h96l293 -540v540h88v-700h-96l-293 540v-540h-88z" />
    <glyph glyph-name="O" unicode="O" 
d="M38 350q0 170 75.5 264t196.5 94t196.5 -94t75.5 -264t-75.5 -264t-196.5 -94t-196.5 94t-75.5 264zM491 350q0 137 -47.5 205.5t-133.5 68.5t-133.5 -68.5t-47.5 -205.5t47.5 -205.5t133.5 -68.5t133.5 68.5t47.5 205.5z" />
    <glyph glyph-name="P" unicode="P" 
d="M99 0v700h265q99 0 153.5 -53t54.5 -147t-54.5 -147t-153.5 -53h-177v-300h-88zM187 384h175q58 0 88.5 29.5t30.5 86.5t-30.5 86.5t-88.5 29.5h-175v-232z" />
    <glyph glyph-name="Q" unicode="Q" 
d="M595 55l-61 -63l-59 60q-69 -60 -165 -60q-121 0 -196.5 94t-75.5 264t75.5 264t196.5 94t196.5 -94t75.5 -264q0 -140 -52 -229zM415 112l-73 74l61 63l62 -63q26 64 26 164q0 137 -47.5 205.5t-133.5 68.5t-133.5 -68.5t-47.5 -205.5t47.5 -205.5t133.5 -68.5
q63 0 105 36z" />
    <glyph glyph-name="R" unicode="R" 
d="M80 0v700h245q97 0 151.5 -47.5t54.5 -137.5q0 -148 -146 -179l209 -336h-104l-205 330h-117v-330h-88zM168 414h159q113 0 113 101t-113 101h-159v-202z" />
    <glyph glyph-name="S" unicode="S" 
d="M59 200l82 32q41 -156 179 -156q57 0 97 31q42 32 42 82q0 52 -34 79t-120 49q-91 23 -146 69q-56 47 -56 135q0 80 58.5 133.5t155.5 53.5q81 0 137.5 -41.5t81.5 -108.5l-77 -39q-46 105 -142 105q-58 0 -92 -28.5t-34 -79.5q0 -34 20 -57q19 -20 49.5 -33t92.5 -29
q100 -27 146 -67.5t48 -128.5q0 -98 -65 -153.5t-162 -55.5q-103 0 -172 54t-89 154z" />
    <glyph glyph-name="T" unicode="T" 
d="M266 0v616h-218v84h524v-84h-218v-616h-88z" />
    <glyph glyph-name="U" unicode="U" 
d="M62 243v457h88v-463q0 -73 42.5 -117t117.5 -44t117.5 44t42.5 117v463h88v-457q0 -115 -70 -183t-178 -68t-178 68t-70 183z" />
    <glyph glyph-name="V" unicode="V" 
d="M268 0l-245 700h91l196 -575l196 575h91l-245 -700h-84z" />
    <glyph glyph-name="W" unicode="W" 
d="M98 0l-67 700h91l42 -570l106 427h80l106 -427l42 570h91l-67 -700h-109l-103 411l-103 -411h-109z" />
    <glyph glyph-name="X" unicode="X" 
d="M39 0l221 376l-190 324h101l139 -238l139 238h101l-190 -324l221 -376h-101l-170 290l-170 -290h-101z" />
    <glyph glyph-name="Y" unicode="Y" 
d="M266 0v276l-225 424h97l172 -336l172 336h97l-225 -424v-276h-88z" />
    <glyph glyph-name="Z" unicode="Z" 
d="M73 0v42l343 574h-329v84h456v-42l-343 -574h354v-84h-481z" />
    <glyph glyph-name="bracketleft" unicode="[" 
d="M202 -50v800h268v-76h-188v-648h188v-76h-268z" />
    <glyph glyph-name="backslash" unicode="\" 
d="M470 -50l-406 800h86l406 -800h-86z" />
    <glyph glyph-name="bracketright" unicode="]" 
d="M150 -50v76h188v648h-188v76h268v-800h-268z" />
    <glyph glyph-name="asciicircum" unicode="^" 
d="M90 421l187 279h66l187 -279h-86l-134 203l-134 -203h-86z" />
    <glyph glyph-name="underscore" unicode="_" 
d="M70 -80v80h480v-80h-480z" />
    <glyph glyph-name="grave" unicode="`" 
d="M337 560l-122 144h121l67 -144h-66z" />
    <glyph glyph-name="a" unicode="a" 
d="M103 145q0 81 59.5 123t168.5 42h102v22q0 53 -31 78.5t-85 25.5q-42 0 -74.5 -23.5t-44.5 -62.5l-74 20q17 65 70 103.5t123 38.5q95 0 147.5 -48.5t52.5 -145.5v-318h-68l-12 71q-24 -35 -73 -57t-105 -22q-69 0 -112.5 40.5t-43.5 112.5zM433 222v16h-110
q-63 0 -98.5 -25t-35.5 -68q0 -36 22.5 -56.5t60.5 -20.5q61 0 111 40t50 114z" />
    <glyph glyph-name="b" unicode="b" 
d="M184 67v-67h-84v708h84v-268q24 32 65 52t89 20q108 0 169.5 -70.5t61.5 -189.5t-61.5 -189.5t-169.5 -70.5q-47 0 -88.5 21t-65.5 54zM483 252q0 83 -41.5 133.5t-111.5 50.5t-111.5 -50.5t-41.5 -133.5t41.5 -133.5t111.5 -50.5t111.5 50.5t41.5 133.5z" />
    <glyph glyph-name="c" unicode="c" 
d="M87 252q0 109 66 184.5t175 75.5q153 0 213 -139l-73 -30q-40 93 -140 93q-72 0 -113.5 -51t-41.5 -133t41.5 -133t113.5 -51q100 0 140 93l73 -30q-60 -139 -213 -139q-109 0 -175 75.5t-66 184.5z" />
    <glyph glyph-name="d" unicode="d" 
d="M75 252q0 119 61.5 189.5t169.5 70.5q48 0 89 -20t65 -52v268h84v-708h-84v67q-24 -33 -65.5 -54t-88.5 -21q-108 0 -169.5 70.5t-61.5 189.5zM467 252q0 83 -41.5 133.5t-111.5 50.5t-111.5 -50.5t-41.5 -133.5t41.5 -133.5t111.5 -50.5t111.5 50.5t41.5 133.5z" />
    <glyph glyph-name="e" unicode="e" 
d="M70 252q0 111 66.5 185.5t174.5 74.5q110 0 174.5 -69t64.5 -174v-35h-394q4 -75 46 -120.5t109 -45.5q108 0 162 100l67 -35q-73 -141 -229 -141q-107 0 -174 74t-67 186zM162 310h299q-11 60 -50 93t-100 33q-59 0 -97.5 -33t-51.5 -93z" />
    <glyph glyph-name="f" unicode="f" 
d="M241 0v428h-142v76h142v31q0 173 155 173q58 0 105 -29l-21 -74q-42 27 -81 27q-74 0 -74 -95v-33h196v-76h-196v-428h-84z" />
    <glyph glyph-name="g" unicode="g" 
d="M83 -46q0 69 52 108q-36 29 -36 77q0 34 19.5 61t54.5 40q-31 41 -31 103q0 76 50 122.5t128 46.5q53 0 99 -26l105 54l38 -69l-85 -44q21 -36 21 -84q0 -76 -50 -123q-49 -46 -128 -46q-52 0 -93 21q-46 -18 -46 -52q0 -42 71 -42h131q81 0 125 -35.5t44 -103.5
q0 -88 -69 -131q-68 -43 -167 -43q-111 0 -172 43t-61 123zM416 343q0 45 -27 71t-69 26t-69 -26.5t-27 -70.5t27 -70.5t69 -26.5t69 26t27 71zM466 -46q0 75 -85 75h-119q-33 0 -52 4q-43 -22 -43 -76q0 -44 40 -69.5t109 -25.5q71 0 110.5 24.5t39.5 67.5z" />
    <glyph glyph-name="h" unicode="h" 
d="M108 0v708h84v-297q31 46 79.5 73.5t103.5 27.5q77 0 115.5 -42.5t38.5 -121.5v-348h-84v330q0 106 -93 106q-64 0 -112 -62.5t-48 -162.5v-211h-84z" />
    <glyph glyph-name="i" unicode="i" 
d="M229 638q0 29 20 49.5t49 20.5t49 -20.5t20 -49.5t-20 -48.5t-49 -19.5t-49 20t-20 48zM88 0v74h174v356h-154v74h238v-430h186v-74h-444z" />
    <glyph glyph-name="j" unicode="j" 
d="M275 638q0 29 20 49.5t49 20.5t49 -20.5t20 -49.5t-20 -48.5t-49 -19.5t-49 20t-20 48zM201 -212l-28 80q72 24 103.5 66t31.5 116v380h-198v74h282v-476q0 -101 -56 -160q-56 -61 -135 -80z" />
    <glyph glyph-name="k" unicode="k" 
d="M94 0v708h84v-415l215 211h110l-235 -231l258 -273h-110l-238 253v-253h-84z" />
    <glyph glyph-name="l" unicode="l" 
d="M188 190v434h-139v76h223v-510q0 -122 106 -122q99 0 117 122l76 -15q-13 -89 -63 -136t-130 -47q-88 0 -139 52.5t-51 145.5z" />
    <glyph glyph-name="m" unicode="m" 
d="M48 0v504h84v-64q46 72 118 72q82 0 104 -82q21 38 53.5 60t70.5 22q52 0 81 -34.5t29 -101.5v-376h-84v358q0 41 -13 59t-42 18q-40 0 -64.5 -50.5t-24.5 -147.5v-237h-84v358q0 41 -13 59t-42 18q-40 0 -64.5 -50.5t-24.5 -147.5v-237h-84z" />
    <glyph glyph-name="n" unicode="n" 
d="M106 0v504h84v-93q28 46 74 73.5t97 27.5q76 0 115 -42.5t39 -118.5v-351h-84v333q0 103 -93 103q-63 0 -105.5 -64t-42.5 -169v-203h-84z" />
    <glyph glyph-name="o" unicode="o" 
d="M62 252q0 108 69 184t179 76t179 -76t69 -184t-69 -184t-179 -76t-179 76t-69 184zM472 252q0 77 -44.5 130.5t-117.5 53.5t-117.5 -53.5t-44.5 -130.5t44.5 -130.5t117.5 -53.5t117.5 53.5t44.5 130.5z" />
    <glyph glyph-name="p" unicode="p" 
d="M106 -204v708h84v-67q24 33 65.5 54t88.5 21q108 0 169.5 -70.5t61.5 -189.5t-61.5 -189.5t-169.5 -70.5q-48 0 -89 20t-65 52v-268h-84zM489 252q0 83 -41.5 133.5t-111.5 50.5t-111.5 -50.5t-41.5 -133.5t41.5 -133.5t111.5 -50.5t111.5 50.5t41.5 133.5z" />
    <glyph glyph-name="q" unicode="q" 
d="M460 -204v268q-24 -32 -65 -52t-89 -20q-108 0 -169.5 70.5t-61.5 189.5t61.5 189.5t169.5 70.5q47 0 88.5 -21t65.5 -54v67h84v-708h-84zM467 252q0 83 -41.5 133.5t-111.5 50.5t-111.5 -50.5t-41.5 -133.5t41.5 -133.5t111.5 -50.5t111.5 50.5t41.5 133.5z" />
    <glyph glyph-name="r" unicode="r" 
d="M92 0v504h84v-93q64 101 186 101q75 0 118.5 -43.5t47.5 -124.5h-84q-11 92 -97 92q-73 0 -122 -67.5t-49 -186.5v-182h-84z" />
    <glyph glyph-name="s" unicode="s" 
d="M103 138l80 30q13 -48 50 -74t89 -26q49 0 78 18.5t29 53.5t-26.5 50t-103.5 30q-81 15 -122 48t-41 98t50 105.5t122 40.5q129 0 187 -112l-69 -44q-44 80 -121 80q-38 0 -62.5 -17.5t-24.5 -49.5q0 -30 27.5 -48t89.5 -30q94 -19 137.5 -50.5t43.5 -93.5
q0 -69 -56.5 -112t-137.5 -43q-79 0 -137.5 38.5t-81.5 107.5z" />
    <glyph glyph-name="t" unicode="t" 
d="M200 167v261h-134v76h134v151l84 53v-204h176v-76h-176v-258q0 -102 87 -102q65 0 124 60l31 -71q-65 -65 -155 -65q-84 0 -127.5 44t-43.5 131z" />
    <glyph glyph-name="u" unicode="u" 
d="M105 153v351h84v-333q0 -103 93 -103q63 0 105.5 64t42.5 169v203h84v-504h-84v93q-28 -46 -74 -73.5t-97 -27.5q-76 0 -115 42.5t-39 118.5z" />
    <glyph glyph-name="v" unicode="v" 
d="M268 0l-211 504h91l162 -404l162 404h91l-211 -504h-84z" />
    <glyph glyph-name="w" unicode="w" 
d="M137 0l-110 504h86l69 -373l86 323h84l86 -323l69 373h86l-110 -504h-76l-97 354l-97 -354h-76z" />
    <glyph glyph-name="x" unicode="x" 
d="M81 0l183 267l-164 237h99l111 -167l111 167h99l-164 -237l183 -267h-95l-134 198l-134 -198h-95z" />
    <glyph glyph-name="y" unicode="y" 
d="M178 -204l98 238l-218 470h94l169 -369l149 369h91l-299 -708h-84z" />
    <glyph glyph-name="z" unicode="z" 
d="M109 0v36l264 392h-251v76h378v-36l-267 -392h279v-76h-403z" />
    <glyph glyph-name="braceleft" unicode="{" 
d="M250 50v172q0 49 -24.5 69.5t-75.5 20.5v76q51 0 75.5 20.5t24.5 69.5v172q0 45 27.5 72.5t72.5 27.5h138v-76h-113q-24 0 -34.5 -10.5t-10.5 -34.5v-181q0 -45 -17 -66.5t-53 -31.5q36 -10 53 -31.5t17 -66.5v-181q0 -24 10.5 -34.5t34.5 -10.5h113v-76h-138
q-45 0 -72.5 27.5t-27.5 72.5z" />
    <glyph glyph-name="bar" unicode="|" 
d="M270 -50v800h80v-800h-80z" />
    <glyph glyph-name="braceright" unicode="}" 
d="M132 -50v76h113q24 0 34.5 10.5t10.5 34.5v181q0 45 17 66.5t53 31.5q-36 10 -53 31.5t-17 66.5v181q0 24 -10.5 34.5t-34.5 10.5h-113v76h138q45 0 72.5 -27.5t27.5 -72.5v-172q0 -49 24.5 -69.5t75.5 -20.5v-76q-51 0 -75.5 -20.5t-24.5 -69.5v-172q0 -45 -27.5 -72.5
t-72.5 -27.5h-138z" />
    <glyph glyph-name="asciitilde" unicode="~" 
d="M307 290q-52 23 -89 23q-56 0 -93 -45l-49 51q22 42 56.5 65t75.5 23q43 0 105 -27q52 -23 89 -23q56 0 93 45l49 -51q-22 -42 -56.5 -65t-75.5 -23q-43 0 -105 27z" />
    <glyph glyph-name="uni00A0" unicode="&#xa0;" 
 />
    <glyph glyph-name="exclamdown" unicode="&#xa1;" 
d="M380 431q0 -30 -20 -50.5t-50 -20.5t-50 20.5t-20 50.5q0 29 20 48.5t50 19.5t50 -19.5t20 -48.5zM277 296h66l24 -500h-114z" />
    <glyph glyph-name="cent" unicode="&#xa2;" 
d="M284 -50v143q-92 13 -146.5 86t-54.5 171q0 97 54 169.5t147 87.5v143h80v-143q118 -13 173 -136l-73 -30q-40 93 -140 93q-72 0 -113.5 -51t-41.5 -133t41.5 -133t113.5 -51q100 0 140 93l73 -30q-52 -121 -173 -137v-142h-80z" />
    <glyph glyph-name="sterling" unicode="&#xa3;" 
d="M149 -8l-57 62q60 57 85.5 102t25.5 95q0 29 -11 73h-80v80h53q-22 66 -22 103q0 91 56 146t141 55q71 0 121.5 -35.5t74.5 -102.5l-75 -35q-22 50 -50.5 71.5t-70.5 21.5q-50 0 -81.5 -32t-31.5 -90q0 -48 20 -102h164v-80h-138q7 -29 7 -63q0 -101 -79 -177
q46 27 87 27q36 0 71 -22q32 -17 52 -17q27 0 47 14.5t43 53.5l66 -36q-60 -112 -151 -112q-44 0 -93 23q-35 17 -61 17q-57 0 -113 -40z" />
    <glyph glyph-name="currency" unicode="&#xa4;" 
d="M128 56l-69 69l88 67q-35 52 -35 115t35 115l-88 67l69 69l67 -87q52 38 115 38t115 -38l67 87l69 -69l-88 -67q35 -52 35 -115t-35 -115l88 -67l-69 -69l-67 87q-52 -38 -115 -38t-115 38zM427 307q0 57 -32 91.5t-85 34.5t-85 -34.5t-32 -91.5t32 -91.5t85 -34.5
t85 34.5t32 91.5z" />
    <glyph glyph-name="yen" unicode="&#xa5;" 
d="M266 0v116h-156v72h156v88h-156v72h118l-183 352h97l168 -336l168 336h97l-183 -352h118v-72h-156v-88h156v-72h-156v-116h-88z" />
    <glyph glyph-name="brokenbar" unicode="&#xa6;" 
d="M270 401v349h80v-349h-80zM270 -50v349h80v-349h-80z" />
    <glyph glyph-name="section" unicode="&#xa7;" 
d="M106 -54l77 25q37 -103 127 -103q48 0 76.5 27t28.5 75q0 32 -17 55q-17 21 -42 36t-77 37q-48 20 -73 34q-61 31 -86.5 63t-25.5 79q0 84 70 136q-43 46 -43 112q0 86 53 136t136 50q80 0 133 -41.5t71 -116.5l-77 -25q-37 103 -127 103q-48 0 -76.5 -27t-28.5 -75
q0 -32 17 -55q17 -21 42 -36t77 -37q48 -20 73 -34q61 -31 86.5 -63t25.5 -79q0 -84 -70 -136q43 -46 43 -112q0 -86 -53 -136t-136 -50q-80 0 -133 41.5t-71 116.5zM447 213q0 27 -18 46q-17 19 -41 32.5t-77 35.5q-50 19 -83 38q-55 -35 -55 -82q0 -27 18 -47
q28 -29 118 -67q50 -19 83 -38q55 35 55 82z" />
    <glyph glyph-name="dieresis" unicode="&#xa8;" 
d="M161 643q0 24 16.5 40.5t40.5 16.5t40.5 -16.5t16.5 -40.5t-16.5 -40.5t-40.5 -16.5t-40.5 16.5t-16.5 40.5zM345 643q0 24 16.5 40.5t40.5 16.5t40.5 -16.5t16.5 -40.5t-16.5 -40.5t-40.5 -16.5t-40.5 16.5t-16.5 40.5z" />
    <glyph glyph-name="copyright" unicode="&#xa9;" 
d="M39 350q0 118 77.5 198t193.5 80t193.5 -80t77.5 -198t-77.5 -198t-193.5 -80t-193.5 80t-77.5 198zM517 350q0 93 -58 155t-149 62t-149 -62t-58 -155t58 -155t149 -62t149 62t58 155zM169 350q0 73 42 112.5t99 39.5q48 0 81 -25t41 -67l-51 -12q-18 51 -71 51
q-38 0 -60 -25t-22 -74t22 -74t60 -25q53 0 71 51l51 -12q-8 -42 -41 -67t-81 -25q-57 0 -99 39.5t-42 112.5z" />
    <glyph glyph-name="ordfeminine" unicode="&#xaa;" 
d="M147 415q0 62 47.5 96t131.5 34h80v17q0 41 -26 61.5t-69 20.5q-32 0 -56 -18.5t-34 -48.5l-57 15q13 51 53 81.5t94 30.5q76 0 118.5 -38.5t42.5 -114.5v-251h-54l-9 58q-19 -28 -57.5 -45t-82.5 -17q-55 0 -88.5 30.5t-33.5 88.5zM406 476v13h-87q-50 0 -77 -20
t-27 -54q0 -28 17 -43.5t48 -15.5q49 0 87.5 31t38.5 89z" />
    <glyph glyph-name="guillemotleft" unicode="&#xab;" 
d="M337 80l-294 199v62l294 199v-90l-209 -140l209 -140v-90zM577 80l-294 199v62l294 199v-90l-209 -140l209 -140v-90z" />
    <glyph glyph-name="logicalnot" unicode="&#xac;" 
d="M459 142v171h-366v76h450v-247h-84z" />
    <glyph glyph-name="uni00AD" unicode="&#xad;" 
d="M136 280v74h349v-74h-349z" />
    <glyph glyph-name="registered" unicode="&#xae;" 
d="M39 350q0 118 77.5 198t193.5 80t193.5 -80t77.5 -198t-77.5 -198t-193.5 -80t-193.5 80t-77.5 198zM517 350q0 93 -58 155t-149 62t-149 -62t-58 -155t58 -155t149 -62t149 62t58 155zM213 202v296h106q44 0 69 -23t25 -62q0 -32 -18 -54t-48 -28l89 -129h-59l-88 126
h-24v-126h-52zM265 377h51q43 0 43 36t-43 36h-51v-72z" />
    <glyph glyph-name="overscore" unicode="&#xaf;" 
d="M183 600v74h254v-74h-254z" />
    <glyph glyph-name="degree" unicode="&#xb0;" 
d="M156 553q0 66 43 109q44 44 111 44t111 -44q43 -43 43 -109q0 -67 -43 -110t-111 -43t-111 43t-43 110zM395 553q0 39 -23 63t-62 24t-62 -24t-23 -63t23 -63t62 -24t62 24t23 63z" />
    <glyph glyph-name="plusminus" unicode="&#xb1;" 
d="M273 179v183h-183v74h183v183h74v-183h183v-74h-183v-183h-74zM90 0v74h440v-74h-440z" />
    <glyph glyph-name="uni00B2" unicode="&#xb2;" 
d="M181 300v25l147 180q35 41 35 86q0 24 -14 37.5t-40 13.5q-24 0 -40 -18t-20 -50l-62 17q5 51 38 82t84 31q57 0 89 -30.5t32 -81.5q0 -58 -38 -105l-103 -127h149v-60h-257z" />
    <glyph glyph-name="uni00B3" unicode="&#xb3;" 
d="M180 416l63 9q4 -32 23 -50.5t47 -18.5q29 0 46.5 19t17.5 53q0 36 -17 55.5t-48 19.5q-19 0 -35 -10l-31 40l81 109h-127v58h221v-22l-95 -129q4 1 16 1q46 0 73.5 -32.5t27.5 -89.5q0 -59 -34 -95.5t-96 -36.5q-57 0 -92.5 31.5t-40.5 88.5z" />
    <glyph glyph-name="acute" unicode="&#xb4;" 
d="M216 560l67 144h121l-122 -144h-66z" />
    <glyph glyph-name="uni00B5" unicode="&#xb5;" 
d="M106 -204v708h84v-333q0 -103 93 -103q63 0 105.5 64t42.5 169v203h84v-504h-84v93q-28 -46 -74 -73.5t-97 -27.5q-42 0 -70 12v-208h-84z" />
    <glyph glyph-name="paragraph" unicode="&#xb6;" 
d="M250 -204v518q-80 0 -136.5 57t-56.5 136t56.5 136t136.5 57h312v-76h-62v-828h-84v828h-82v-828h-84z" />
    <glyph glyph-name="middot" unicode="&#xb7;" 
d="M248 351q0 27 17.5 44.5t44.5 17.5t44.5 -17.5t17.5 -44.5t-17.5 -44.5t-44.5 -17.5t-44.5 17.5t-17.5 44.5z" />
    <glyph glyph-name="cedilla" unicode="&#xb8;" 
d="M316 -235l-95 45l108 130h70z" />
    <glyph glyph-name="uni00B9" unicode="&#xb9;" 
d="M200 300v56h83v255l-75 -34v71l113 52h24v-344h83v-56h-228z" />
    <glyph glyph-name="ordmasculine" unicode="&#xba;" 
d="M115 500q0 85 53.5 144.5t140.5 59.5q86 0 140.5 -59.5t54.5 -144.5t-54.5 -144.5t-140.5 -59.5q-87 0 -140.5 59.5t-53.5 144.5zM436 500q0 61 -35 102.5t-92 41.5t-92 -41.5t-35 -102.5q0 -60 34 -103q34 -42 93 -42q57 0 92 42q35 44 35 103z" />
    <glyph glyph-name="guillemotright" unicode="&#xbb;" 
d="M43 80v90l209 140l-209 140v90l294 -199v-62zM283 80v90l209 140l-209 140v90l294 -199v-62z" />
    <glyph glyph-name="onequarter" unicode="&#xbc;" 
d="M31 366v54h76v199l-69 -32v63l105 50h24v-280h76v-54h-212zM144 102l-41 41l440 439l41 -42zM468 0v67h-153v27l142 240h71v-213h43v-54h-43v-67h-60zM396 121h72v125z" />
    <glyph glyph-name="onehalf" unicode="&#xbd;" 
d="M31 366v54h76v199l-69 -32v63l105 50h24v-280h76v-54h-212zM122 102l-41 41l440 439l41 -42zM358 0v25l127 151q25 29 25 61q0 20 -12 32.5t-31 12.5q-43 0 -52 -53l-54 15q7 43 35 68.5t71 25.5q50 0 77.5 -26t27.5 -71q0 -52 -37 -96l-73 -89h113v-56h-217z" />
    <glyph glyph-name="threequarters" unicode="&#xbe;" 
d="M46 464l58 12q9 -60 58 -60q51 0 51 62q0 26 -13 40.5t-35 14.5q-23 0 -35 -9l-27 36l67 86h-105v54h191v-23l-78 -99q44 0 70.5 -28.5t26.5 -71.5q0 -53 -30.5 -84.5t-82.5 -31.5q-49 0 -80.5 28t-35.5 74zM144 102l-41 41l440 439l41 -42zM468 0v67h-153v27l142 240h71
v-213h43v-54h-43v-67h-60zM396 121h72v125z" />
    <glyph glyph-name="questiondown" unicode="&#xbf;" 
d="M372 433q0 -29 -19 -48.5t-47 -19.5t-48 20t-20 48t19.5 47t48.5 19q28 0 47 -19t19 -47zM438 170q0 -78 -85 -120l-92 -47q-43 -22 -43 -71q0 -35 23 -54t63 -19q38 0 65.5 24.5t39.5 67.5l78 -13q-12 -69 -60.5 -109.5t-122.5 -40.5q-77 0 -123.5 40t-46.5 109
q0 81 77 119l101 49q49 24 49 69q0 24 -14 37.5t-38 13.5q-46 0 -72 -59l-65 23q36 105 134 105q60 0 96 -33.5t36 -90.5z" />
    <glyph glyph-name="Agrave" unicode="&#xc0;" 
d="M19 0l249 700h84l249 -700h-91l-63 187h-274l-63 -187h-91zM202 271h216l-108 315zM277 756l-122 144h121l67 -144h-66z" />
    <glyph glyph-name="Aacute" unicode="&#xc1;" 
d="M19 0l249 700h84l249 -700h-91l-63 187h-274l-63 -187h-91zM202 271h216l-108 315zM277 756l67 144h121l-122 -144h-66z" />
    <glyph glyph-name="Acircumflex" unicode="&#xc2;" 
d="M19 0l249 700h84l249 -700h-91l-63 187h-274l-63 -187h-91zM202 271h216l-108 315zM143 756l154 152h26l154 -152h-91l-76 75l-76 -75h-91z" />
    <glyph glyph-name="Atilde" unicode="&#xc3;" 
d="M19 0l249 700h84l249 -700h-91l-63 187h-274l-63 -187h-91zM202 271h216l-108 315zM303 796q-33 18 -55 18q-38 0 -66 -36l-49 38q41 76 107 76q35 0 76 -22q33 -18 55 -18q37 0 66 36l49 -39q-18 -34 -46.5 -54.5t-60.5 -20.5q-35 0 -76 22z" />
    <glyph glyph-name="Adieresis" unicode="&#xc4;" 
d="M19 0l249 700h84l249 -700h-91l-63 187h-274l-63 -187h-91zM202 271h216l-108 315zM161 839q0 24 16.5 40.5t40.5 16.5t40.5 -16.5t16.5 -40.5t-16.5 -40.5t-40.5 -16.5t-40.5 16.5t-16.5 40.5zM345 839q0 24 16.5 40.5t40.5 16.5t40.5 -16.5t16.5 -40.5t-16.5 -40.5
t-40.5 -16.5t-40.5 16.5t-16.5 40.5z" />
    <glyph glyph-name="Aring" unicode="&#xc5;" 
d="M19 0l249 700h84l249 -700h-91l-63 187h-274l-63 -187h-91zM202 271h216l-108 315zM211 849q0 42 28.5 71t70.5 29t70.5 -29t28.5 -71q0 -41 -28 -68.5t-71 -27.5q-42 0 -70.5 27.5t-28.5 68.5zM353 850q0 20 -12 33t-31 13t-31 -13t-12 -33q0 -19 12 -31.5t31 -12.5
t31 12.5t12 31.5z" />
    <glyph glyph-name="AE" unicode="&#xc6;" 
d="M-11 0l194 700h392v-84h-206v-201h166v-84h-166v-247h216v-84h-304v187h-152l-52 -187h-88zM149 271h132v345h-39z" />
    <glyph glyph-name="Ccedilla" unicode="&#xc7;" 
d="M49 350q0 171 81 264.5t208 93.5q96 0 161 -57t90 -156l-83 -25q-24 79 -64 116.5t-104 37.5q-95 0 -146.5 -69t-51.5 -205t51.5 -205t146.5 -69q64 0 104 37.5t64 116.5l83 -25q-25 -99 -90 -156t-161 -57q-127 0 -208 93.5t-81 264.5zM290 -235l-95 45l108 130h70z" />
    <glyph glyph-name="Egrave" unicode="&#xc8;" 
d="M91 0v700h444v-84h-356v-201h306v-84h-306v-247h366v-84h-454zM287 756l-122 144h121l67 -144h-66z" />
    <glyph glyph-name="Eacute" unicode="&#xc9;" 
d="M91 0v700h444v-84h-356v-201h306v-84h-306v-247h366v-84h-454zM287 756l67 144h121l-122 -144h-66z" />
    <glyph glyph-name="Ecircumflex" unicode="&#xca;" 
d="M91 0v700h444v-84h-356v-201h306v-84h-306v-247h366v-84h-454zM153 756l154 152h26l154 -152h-91l-76 75l-76 -75h-91z" />
    <glyph glyph-name="Edieresis" unicode="&#xcb;" 
d="M91 0v700h444v-84h-356v-201h306v-84h-306v-247h366v-84h-454zM171 839q0 24 16.5 40.5t40.5 16.5t40.5 -16.5t16.5 -40.5t-16.5 -40.5t-40.5 -16.5t-40.5 16.5t-16.5 40.5zM355 839q0 24 16.5 40.5t40.5 16.5t40.5 -16.5t16.5 -40.5t-16.5 -40.5t-40.5 -16.5t-40.5 16.5
t-16.5 40.5z" />
    <glyph glyph-name="Igrave" unicode="&#xcc;" 
d="M97 0v76h169v548h-169v76h426v-76h-169v-548h169v-76h-426zM277 756l-122 144h121l67 -144h-66z" />
    <glyph glyph-name="Iacute" unicode="&#xcd;" 
d="M97 0v76h169v548h-169v76h426v-76h-169v-548h169v-76h-426zM277 756l67 144h121l-122 -144h-66z" />
    <glyph glyph-name="Icircumflex" unicode="&#xce;" 
d="M97 0v76h169v548h-169v76h426v-76h-169v-548h169v-76h-426zM143 756l154 152h26l154 -152h-91l-76 75l-76 -75h-91z" />
    <glyph glyph-name="Idieresis" unicode="&#xcf;" 
d="M97 0v76h169v548h-169v76h426v-76h-169v-548h169v-76h-426zM161 839q0 24 16.5 40.5t40.5 16.5t40.5 -16.5t16.5 -40.5t-16.5 -40.5t-40.5 -16.5t-40.5 16.5t-16.5 40.5zM345 839q0 24 16.5 40.5t40.5 16.5t40.5 -16.5t16.5 -40.5t-16.5 -40.5t-40.5 -16.5t-40.5 16.5
t-16.5 40.5z" />
    <glyph glyph-name="Eth" unicode="&#xd0;" 
d="M78 0v308h-49v84h49v308h177q143 0 227 -90t84 -260t-84 -260t-227 -90h-177zM166 84h80q113 0 169.5 64t56.5 202t-56.5 202t-169.5 64h-80v-224h109v-84h-109v-224z" />
    <glyph glyph-name="Ntilde" unicode="&#xd1;" 
d="M71 0v700h96l293 -540v540h88v-700h-96l-293 540v-540h-88zM303 796q-33 18 -55 18q-38 0 -66 -36l-49 38q41 76 107 76q35 0 76 -22q33 -18 55 -18q37 0 66 36l49 -39q-18 -34 -46.5 -54.5t-60.5 -20.5q-35 0 -76 22z" />
    <glyph glyph-name="Ograve" unicode="&#xd2;" 
d="M38 350q0 170 75.5 264t196.5 94t196.5 -94t75.5 -264t-75.5 -264t-196.5 -94t-196.5 94t-75.5 264zM491 350q0 137 -47.5 205.5t-133.5 68.5t-133.5 -68.5t-47.5 -205.5t47.5 -205.5t133.5 -68.5t133.5 68.5t47.5 205.5zM277 756l-122 144h121l67 -144h-66z" />
    <glyph glyph-name="Oacute" unicode="&#xd3;" 
d="M38 350q0 170 75.5 264t196.5 94t196.5 -94t75.5 -264t-75.5 -264t-196.5 -94t-196.5 94t-75.5 264zM491 350q0 137 -47.5 205.5t-133.5 68.5t-133.5 -68.5t-47.5 -205.5t47.5 -205.5t133.5 -68.5t133.5 68.5t47.5 205.5zM277 756l67 144h121l-122 -144h-66z" />
    <glyph glyph-name="Ocircumflex" unicode="&#xd4;" 
d="M38 350q0 170 75.5 264t196.5 94t196.5 -94t75.5 -264t-75.5 -264t-196.5 -94t-196.5 94t-75.5 264zM491 350q0 137 -47.5 205.5t-133.5 68.5t-133.5 -68.5t-47.5 -205.5t47.5 -205.5t133.5 -68.5t133.5 68.5t47.5 205.5zM143 756l154 152h26l154 -152h-91l-76 75
l-76 -75h-91z" />
    <glyph glyph-name="Otilde" unicode="&#xd5;" 
d="M38 350q0 170 75.5 264t196.5 94t196.5 -94t75.5 -264t-75.5 -264t-196.5 -94t-196.5 94t-75.5 264zM491 350q0 137 -47.5 205.5t-133.5 68.5t-133.5 -68.5t-47.5 -205.5t47.5 -205.5t133.5 -68.5t133.5 68.5t47.5 205.5zM303 796q-33 18 -55 18q-38 0 -66 -36l-49 38
q41 76 107 76q35 0 76 -22q33 -18 55 -18q37 0 66 36l49 -39q-18 -34 -46.5 -54.5t-60.5 -20.5q-35 0 -76 22z" />
    <glyph glyph-name="Odieresis" unicode="&#xd6;" 
d="M38 350q0 170 75.5 264t196.5 94t196.5 -94t75.5 -264t-75.5 -264t-196.5 -94t-196.5 94t-75.5 264zM491 350q0 137 -47.5 205.5t-133.5 68.5t-133.5 -68.5t-47.5 -205.5t47.5 -205.5t133.5 -68.5t133.5 68.5t47.5 205.5zM161 839q0 24 16.5 40.5t40.5 16.5t40.5 -16.5
t16.5 -40.5t-16.5 -40.5t-40.5 -16.5t-40.5 16.5t-16.5 40.5zM345 839q0 24 16.5 40.5t40.5 16.5t40.5 -16.5t16.5 -40.5t-16.5 -40.5t-40.5 -16.5t-40.5 16.5t-16.5 40.5z" />
    <glyph glyph-name="multiply" unicode="&#xd7;" 
d="M152 109l-52 52l158 158l-158 158l52 52l158 -158l158 158l52 -52l-158 -158l158 -158l-52 -52l-158 158z" />
    <glyph glyph-name="Oslash" unicode="&#xd8;" 
d="M38 350q0 170 75.5 264t196.5 94t196.5 -94t75.5 -264t-75.5 -264t-196.5 -94t-196.5 94t-75.5 264zM491 350q0 137 -47.5 205.5t-133.5 68.5t-133.5 -68.5t-47.5 -205.5t47.5 -205.5t133.5 -68.5t133.5 68.5t47.5 205.5zM67 -24l-59 44l545 704l59 -44z" />
    <glyph glyph-name="Ugrave" unicode="&#xd9;" 
d="M62 243v457h88v-463q0 -73 42.5 -117t117.5 -44t117.5 44t42.5 117v463h88v-457q0 -115 -70 -183t-178 -68t-178 68t-70 183zM277 756l-122 144h121l67 -144h-66z" />
    <glyph glyph-name="Uacute" unicode="&#xda;" 
d="M62 243v457h88v-463q0 -73 42.5 -117t117.5 -44t117.5 44t42.5 117v463h88v-457q0 -115 -70 -183t-178 -68t-178 68t-70 183zM277 756l67 144h121l-122 -144h-66z" />
    <glyph glyph-name="Ucircumflex" unicode="&#xdb;" 
d="M62 243v457h88v-463q0 -73 42.5 -117t117.5 -44t117.5 44t42.5 117v463h88v-457q0 -115 -70 -183t-178 -68t-178 68t-70 183zM143 756l154 152h26l154 -152h-91l-76 75l-76 -75h-91z" />
    <glyph glyph-name="Udieresis" unicode="&#xdc;" 
d="M62 243v457h88v-463q0 -73 42.5 -117t117.5 -44t117.5 44t42.5 117v463h88v-457q0 -115 -70 -183t-178 -68t-178 68t-70 183zM161 839q0 24 16.5 40.5t40.5 16.5t40.5 -16.5t16.5 -40.5t-16.5 -40.5t-40.5 -16.5t-40.5 16.5t-16.5 40.5zM345 839q0 24 16.5 40.5
t40.5 16.5t40.5 -16.5t16.5 -40.5t-16.5 -40.5t-40.5 -16.5t-40.5 16.5t-16.5 40.5z" />
    <glyph glyph-name="Yacute" unicode="&#xdd;" 
d="M266 0v276l-225 424h97l172 -336l172 336h97l-225 -424v-276h-88zM277 756l67 144h121l-122 -144h-66z" />
    <glyph glyph-name="Thorn" unicode="&#xde;" 
d="M105 0v700h88v-150h159q99 0 153.5 -53t54.5 -147t-54.5 -147t-153.5 -53h-159v-150h-88zM193 234h157q58 0 88.5 29.5t30.5 86.5t-30.5 86.5t-88.5 29.5h-157v-232z" />
    <glyph glyph-name="germandbls" unicode="&#xdf;" 
d="M255 -1v76q32 -7 65 -7q66 0 101.5 35t35.5 103t-37 103t-104 35h-35v76h35q98 0 98 106q0 50 -28.5 78t-77.5 28t-77 -34t-28 -96v-502h-84v344h-50v76h50v85q0 96 53.5 149.5t135.5 53.5q88 0 137 -49.5t49 -129.5q0 -53 -24.5 -90t-65.5 -49q62 -12 99.5 -58.5
t37.5 -119.5q0 -107 -57 -163.5t-158 -56.5q-43 0 -71 7z" />
    <glyph glyph-name="agrave" unicode="&#xe0;" 
d="M103 145q0 81 59.5 123t168.5 42h102v22q0 53 -31 78.5t-85 25.5q-42 0 -74.5 -23.5t-44.5 -62.5l-74 20q17 65 70 103.5t123 38.5q95 0 147.5 -48.5t52.5 -145.5v-318h-68l-12 71q-24 -35 -73 -57t-105 -22q-69 0 -112.5 40.5t-43.5 112.5zM433 222v16h-110
q-63 0 -98.5 -25t-35.5 -68q0 -36 22.5 -56.5t60.5 -20.5q61 0 111 40t50 114zM300 560l-122 144h121l67 -144h-66z" />
    <glyph glyph-name="aacute" unicode="&#xe1;" 
d="M103 145q0 81 59.5 123t168.5 42h102v22q0 53 -31 78.5t-85 25.5q-42 0 -74.5 -23.5t-44.5 -62.5l-74 20q17 65 70 103.5t123 38.5q95 0 147.5 -48.5t52.5 -145.5v-318h-68l-12 71q-24 -35 -73 -57t-105 -22q-69 0 -112.5 40.5t-43.5 112.5zM433 222v16h-110
q-63 0 -98.5 -25t-35.5 -68q0 -36 22.5 -56.5t60.5 -20.5q61 0 111 40t50 114zM282 560l67 144h121l-122 -144h-66z" />
    <glyph glyph-name="acircumflex" unicode="&#xe2;" 
d="M103 145q0 81 59.5 123t168.5 42h102v22q0 53 -31 78.5t-85 25.5q-42 0 -74.5 -23.5t-44.5 -62.5l-74 20q17 65 70 103.5t123 38.5q95 0 147.5 -48.5t52.5 -145.5v-318h-68l-12 71q-24 -35 -73 -57t-105 -22q-69 0 -112.5 40.5t-43.5 112.5zM433 222v16h-110
q-63 0 -98.5 -25t-35.5 -68q0 -36 22.5 -56.5t60.5 -20.5q61 0 111 40t50 114zM150 560l154 152h26l154 -152h-91l-76 75l-76 -75h-91z" />
    <glyph glyph-name="atilde" unicode="&#xe3;" 
d="M103 145q0 81 59.5 123t168.5 42h102v22q0 53 -31 78.5t-85 25.5q-42 0 -74.5 -23.5t-44.5 -62.5l-74 20q17 65 70 103.5t123 38.5q95 0 147.5 -48.5t52.5 -145.5v-318h-68l-12 71q-24 -35 -73 -57t-105 -22q-69 0 -112.5 40.5t-43.5 112.5zM433 222v16h-110
q-63 0 -98.5 -25t-35.5 -68q0 -36 22.5 -56.5t60.5 -20.5q61 0 111 40t50 114zM310 600q-33 18 -55 18q-37 0 -66 -36l-49 38q41 76 107 76q35 0 76 -22q33 -18 55 -18q38 0 66 36l49 -39q-18 -34 -46.5 -54.5t-60.5 -20.5q-35 0 -76 22z" />
    <glyph glyph-name="adieresis" unicode="&#xe4;" 
d="M103 145q0 81 59.5 123t168.5 42h102v22q0 53 -31 78.5t-85 25.5q-42 0 -74.5 -23.5t-44.5 -62.5l-74 20q17 65 70 103.5t123 38.5q95 0 147.5 -48.5t52.5 -145.5v-318h-68l-12 71q-24 -35 -73 -57t-105 -22q-69 0 -112.5 40.5t-43.5 112.5zM433 222v16h-110
q-63 0 -98.5 -25t-35.5 -68q0 -36 22.5 -56.5t60.5 -20.5q61 0 111 40t50 114zM168 643q0 24 16.5 40.5t40.5 16.5t40.5 -16.5t16.5 -40.5t-16.5 -40.5t-40.5 -16.5t-40.5 16.5t-16.5 40.5zM352 643q0 24 16.5 40.5t40.5 16.5t40.5 -16.5t16.5 -40.5t-16.5 -40.5
t-40.5 -16.5t-40.5 16.5t-16.5 40.5z" />
    <glyph glyph-name="aring" unicode="&#xe5;" 
d="M103 145q0 81 59.5 123t168.5 42h102v22q0 53 -31 78.5t-85 25.5q-42 0 -74.5 -23.5t-44.5 -62.5l-74 20q17 65 70 103.5t123 38.5q95 0 147.5 -48.5t52.5 -145.5v-318h-68l-12 71q-24 -35 -73 -57t-105 -22q-69 0 -112.5 40.5t-43.5 112.5zM433 222v16h-110
q-63 0 -98.5 -25t-35.5 -68q0 -36 22.5 -56.5t60.5 -20.5q61 0 111 40t50 114zM218 653q0 42 28.5 71t70.5 29t70.5 -29t28.5 -71q0 -41 -28 -68.5t-71 -27.5q-42 0 -70.5 27.5t-28.5 68.5zM360 654q0 20 -12 33t-31 13t-31 -13t-12 -33q0 -19 12 -31.5t31 -12.5t31 12.5
t12 31.5z" />
    <glyph glyph-name="ae" unicode="&#xe6;" 
d="M36 144q0 79 51 122.5t137 43.5h55v32q0 43 -18 68.5t-50 25.5q-63 0 -80 -86l-74 20q8 60 50 101q43 41 103 41q89 0 117 -76q19 35 52 55.5t71 20.5q75 0 116 -59.5t41 -168.5v-50h-242q0 -79 20.5 -122.5t58.5 -43.5q32 0 51 23t34 76l72 -21q-24 -80 -60.5 -117
t-96.5 -37q-44 0 -75 24t-44 66q-40 -90 -144 -90q-66 0 -105.5 40.5t-39.5 111.5zM365 310h158q0 56 -21.5 91t-57.5 35q-34 0 -56.5 -35t-22.5 -91zM279 199v39h-44q-55 0 -84 -23.5t-29 -67.5q0 -36 18 -57.5t49 -21.5q44 0 67 36t23 95z" />
    <glyph glyph-name="ccedilla" unicode="&#xe7;" 
d="M87 252q0 109 66 184.5t175 75.5q153 0 213 -139l-73 -30q-40 93 -140 93q-72 0 -113.5 -51t-41.5 -133t41.5 -133t113.5 -51q100 0 140 93l73 -30q-60 -139 -213 -139q-109 0 -175 75.5t-66 184.5zM280 -235l-95 45l108 130h70z" />
    <glyph glyph-name="egrave" unicode="&#xe8;" 
d="M70 252q0 111 66.5 185.5t174.5 74.5q110 0 174.5 -69t64.5 -174v-35h-394q4 -75 46 -120.5t109 -45.5q108 0 162 100l67 -35q-73 -141 -229 -141q-107 0 -174 74t-67 186zM162 310h299q-11 60 -50 93t-100 33q-59 0 -97.5 -33t-51.5 -93zM294 560l-122 144h121l67 -144
h-66z" />
    <glyph glyph-name="eacute" unicode="&#xe9;" 
d="M70 252q0 111 66.5 185.5t174.5 74.5q110 0 174.5 -69t64.5 -174v-35h-394q4 -75 46 -120.5t109 -45.5q108 0 162 100l67 -35q-73 -141 -229 -141q-107 0 -174 74t-67 186zM162 310h299q-11 60 -50 93t-100 33q-59 0 -97.5 -33t-51.5 -93zM276 560l67 144h121l-122 -144
h-66z" />
    <glyph glyph-name="ecircumflex" unicode="&#xea;" 
d="M70 252q0 111 66.5 185.5t174.5 74.5q110 0 174.5 -69t64.5 -174v-35h-394q4 -75 46 -120.5t109 -45.5q108 0 162 100l67 -35q-73 -141 -229 -141q-107 0 -174 74t-67 186zM162 310h299q-11 60 -50 93t-100 33q-59 0 -97.5 -33t-51.5 -93zM144 560l154 152h26l154 -152
h-91l-76 75l-76 -75h-91z" />
    <glyph glyph-name="edieresis" unicode="&#xeb;" 
d="M70 252q0 111 66.5 185.5t174.5 74.5q110 0 174.5 -69t64.5 -174v-35h-394q4 -75 46 -120.5t109 -45.5q108 0 162 100l67 -35q-73 -141 -229 -141q-107 0 -174 74t-67 186zM162 310h299q-11 60 -50 93t-100 33q-59 0 -97.5 -33t-51.5 -93zM162 643q0 24 16.5 40.5
t40.5 16.5t40.5 -16.5t16.5 -40.5t-16.5 -40.5t-40.5 -16.5t-40.5 16.5t-16.5 40.5zM346 643q0 24 16.5 40.5t40.5 16.5t40.5 -16.5t16.5 -40.5t-16.5 -40.5t-40.5 -16.5t-40.5 16.5t-16.5 40.5z" />
    <glyph glyph-name="igrave" unicode="&#xec;" 
d="M88 0v74h174v356h-154v74h238v-430h186v-74h-444zM287 560l-122 144h121l67 -144h-66z" />
    <glyph glyph-name="iacute" unicode="&#xed;" 
d="M88 0v74h174v356h-154v74h238v-430h186v-74h-444zM269 560l67 144h121l-122 -144h-66z" />
    <glyph glyph-name="icircumflex" unicode="&#xee;" 
d="M88 0v74h174v356h-154v74h238v-430h186v-74h-444zM137 560l154 152h26l154 -152h-91l-76 75l-76 -75h-91z" />
    <glyph glyph-name="idieresis" unicode="&#xef;" 
d="M88 0v74h174v356h-154v74h238v-430h186v-74h-444zM155 643q0 24 16.5 40.5t40.5 16.5t40.5 -16.5t16.5 -40.5t-16.5 -40.5t-40.5 -16.5t-40.5 16.5t-16.5 40.5zM339 643q0 24 16.5 40.5t40.5 16.5t40.5 -16.5t16.5 -40.5t-16.5 -40.5t-40.5 -16.5t-40.5 16.5t-16.5 40.5z
" />
    <glyph glyph-name="eth" unicode="&#xf0;" 
d="M73 252q-2 107 66 184.5t174 75.5q33 0 67 -12.5t49 -31.5q-14 38 -40.5 68.5t-72.5 64.5l-39 -59l-59 42l38 57q-33 19 -80 38l40 61q47 -20 80 -39l37 54l58 -42l-34 -51q103 -78 150 -173q46 -93 46 -227q0 -115 -66 -192.5t-174 -77.5q-106 -2 -174 75.5t-66 184.5z
M467 252q0 78 -42 131t-112 53q-72 0 -113 -54t-41 -130t41 -130t113 -54t113 54t41 130z" />
    <glyph glyph-name="ntilde" unicode="&#xf1;" 
d="M106 0v504h84v-93q28 46 74 73.5t97 27.5q76 0 115 -42.5t39 -118.5v-351h-84v333q0 103 -93 103q-63 0 -105.5 -64t-42.5 -169v-203h-84zM325 600q-33 18 -55 18q-38 0 -66 -36l-49 38q41 76 107 76q35 0 76 -22q33 -18 55 -18q37 0 66 36l49 -39q-18 -34 -46.5 -54.5
t-60.5 -20.5q-35 0 -76 22z" />
    <glyph glyph-name="ograve" unicode="&#xf2;" 
d="M62 252q0 108 69 184t179 76t179 -76t69 -184t-69 -184t-179 -76t-179 76t-69 184zM472 252q0 77 -44.5 130.5t-117.5 53.5t-117.5 -53.5t-44.5 -130.5t44.5 -130.5t117.5 -53.5t117.5 53.5t44.5 130.5zM293 560l-122 144h121l67 -144h-66z" />
    <glyph glyph-name="oacute" unicode="&#xf3;" 
d="M62 252q0 108 69 184t179 76t179 -76t69 -184t-69 -184t-179 -76t-179 76t-69 184zM472 252q0 77 -44.5 130.5t-117.5 53.5t-117.5 -53.5t-44.5 -130.5t44.5 -130.5t117.5 -53.5t117.5 53.5t44.5 130.5zM275 560l67 144h121l-122 -144h-66z" />
    <glyph glyph-name="ocircumflex" unicode="&#xf4;" 
d="M62 252q0 108 69 184t179 76t179 -76t69 -184t-69 -184t-179 -76t-179 76t-69 184zM472 252q0 77 -44.5 130.5t-117.5 53.5t-117.5 -53.5t-44.5 -130.5t44.5 -130.5t117.5 -53.5t117.5 53.5t44.5 130.5zM143 560l154 152h26l154 -152h-91l-76 75l-76 -75h-91z" />
    <glyph glyph-name="otilde" unicode="&#xf5;" 
d="M62 252q0 108 69 184t179 76t179 -76t69 -184t-69 -184t-179 -76t-179 76t-69 184zM472 252q0 77 -44.5 130.5t-117.5 53.5t-117.5 -53.5t-44.5 -130.5t44.5 -130.5t117.5 -53.5t117.5 53.5t44.5 130.5zM303 600q-33 18 -55 18q-38 0 -66 -36l-49 38q41 76 107 76
q35 0 76 -22q33 -18 55 -18q37 0 66 36l49 -39q-18 -34 -46.5 -54.5t-60.5 -20.5q-35 0 -76 22z" />
    <glyph glyph-name="odieresis" unicode="&#xf6;" 
d="M62 252q0 108 69 184t179 76t179 -76t69 -184t-69 -184t-179 -76t-179 76t-69 184zM472 252q0 77 -44.5 130.5t-117.5 53.5t-117.5 -53.5t-44.5 -130.5t44.5 -130.5t117.5 -53.5t117.5 53.5t44.5 130.5zM161 643q0 24 16.5 40.5t40.5 16.5t40.5 -16.5t16.5 -40.5
t-16.5 -40.5t-40.5 -16.5t-40.5 16.5t-16.5 40.5zM345 643q0 24 16.5 40.5t40.5 16.5t40.5 -16.5t16.5 -40.5t-16.5 -40.5t-40.5 -16.5t-40.5 16.5t-16.5 40.5z" />
    <glyph glyph-name="divide" unicode="&#xf7;" 
d="M244 491q0 29 19 47.5t47 18.5q29 0 47.5 -18.5t18.5 -47.5q0 -28 -18.5 -47t-47.5 -19q-28 0 -47 19t-19 47zM90 280v74h440v-74h-440zM244 143q0 29 19 47.5t47 18.5q29 0 47.5 -18.5t18.5 -47.5q0 -28 -18.5 -47t-47.5 -19q-28 0 -47 19t-19 47z" />
    <glyph glyph-name="oslash" unicode="&#xf8;" 
d="M62 252q0 108 69 184t179 76t179 -76t69 -184t-69 -184t-179 -76t-179 76t-69 184zM472 252q0 77 -44.5 130.5t-117.5 53.5t-117.5 -53.5t-44.5 -130.5t44.5 -130.5t117.5 -53.5t117.5 53.5t44.5 130.5zM124 -44l-59 44l431 548l59 -44z" />
    <glyph glyph-name="ugrave" unicode="&#xf9;" 
d="M105 153v351h84v-333q0 -103 93 -103q63 0 105.5 64t42.5 169v203h84v-504h-84v93q-28 -46 -74 -73.5t-97 -27.5q-76 0 -115 42.5t-39 118.5zM285 560l-122 144h121l67 -144h-66z" />
    <glyph glyph-name="uacute" unicode="&#xfa;" 
d="M105 153v351h84v-333q0 -103 93 -103q63 0 105.5 64t42.5 169v203h84v-504h-84v93q-28 -46 -74 -73.5t-97 -27.5q-76 0 -115 42.5t-39 118.5zM267 560l67 144h121l-122 -144h-66z" />
    <glyph glyph-name="ucircumflex" unicode="&#xfb;" 
d="M105 153v351h84v-333q0 -103 93 -103q63 0 105.5 64t42.5 169v203h84v-504h-84v93q-28 -46 -74 -73.5t-97 -27.5q-76 0 -115 42.5t-39 118.5zM135 560l154 152h26l154 -152h-91l-76 75l-76 -75h-91z" />
    <glyph glyph-name="udieresis" unicode="&#xfc;" 
d="M105 153v351h84v-333q0 -103 93 -103q63 0 105.5 64t42.5 169v203h84v-504h-84v93q-28 -46 -74 -73.5t-97 -27.5q-76 0 -115 42.5t-39 118.5zM153 643q0 24 16.5 40.5t40.5 16.5t40.5 -16.5t16.5 -40.5t-16.5 -40.5t-40.5 -16.5t-40.5 16.5t-16.5 40.5zM337 643
q0 24 16.5 40.5t40.5 16.5t40.5 -16.5t16.5 -40.5t-16.5 -40.5t-40.5 -16.5t-40.5 16.5t-16.5 40.5z" />
    <glyph glyph-name="yacute" unicode="&#xfd;" 
d="M178 -204l98 238l-218 470h94l169 -369l149 369h91l-299 -708h-84zM286 560l67 144h121l-122 -144h-66z" />
    <glyph glyph-name="thorn" unicode="&#xfe;" 
d="M90 -204v912h84v-268q61 72 154 72q108 0 169.5 -70.5t61.5 -189.5t-61.5 -189.5t-169.5 -70.5q-47 0 -88.5 21t-65.5 54v-271h-84zM473 252q0 83 -41.5 133.5t-111.5 50.5t-111.5 -50.5t-41.5 -133.5t41.5 -133.5t111.5 -50.5t111.5 50.5t41.5 133.5z" />
    <glyph glyph-name="ydieresis" unicode="&#xff;" 
d="M178 -204l98 238l-218 470h94l169 -369l149 369h91l-299 -708h-84zM172 643q0 24 16.5 40.5t40.5 16.5t40.5 -16.5t16.5 -40.5t-16.5 -40.5t-40.5 -16.5t-40.5 16.5t-16.5 40.5zM356 643q0 24 16.5 40.5t40.5 16.5t40.5 -16.5t16.5 -40.5t-16.5 -40.5t-40.5 -16.5
t-40.5 16.5t-16.5 40.5z" />
    <glyph glyph-name="Amacron" unicode="&#x100;" 
d="M19 0l249 700h84l249 -700h-91l-63 187h-274l-63 -187h-91zM202 271h216l-108 315zM182 796v74h254v-74h-254z" />
    <glyph glyph-name="amacron" unicode="&#x101;" 
d="M103 145q0 81 59.5 123t168.5 42h102v22q0 53 -31 78.5t-85 25.5q-42 0 -74.5 -23.5t-44.5 -62.5l-74 20q17 65 70 103.5t123 38.5q95 0 147.5 -48.5t52.5 -145.5v-318h-68l-12 71q-24 -35 -73 -57t-105 -22q-69 0 -112.5 40.5t-43.5 112.5zM433 222v16h-110
q-63 0 -98.5 -25t-35.5 -68q0 -36 22.5 -56.5t60.5 -20.5q61 0 111 40t50 114zM189 600v74h254v-74h-254z" />
    <glyph glyph-name="Abreve" unicode="&#x102;" 
d="M19 0l249 700h84l249 -700h-91l-63 187h-274l-63 -187h-91zM202 271h216l-108 315zM199 896h67q0 -20 12.5 -32.5t31.5 -12.5q20 0 32 12.5t12 32.5h67q0 -46 -31.5 -77.5t-79.5 -31.5q-47 0 -79 31.5t-32 77.5z" />
    <glyph glyph-name="abreve" unicode="&#x103;" 
d="M103 145q0 81 59.5 123t168.5 42h102v22q0 53 -31 78.5t-85 25.5q-42 0 -74.5 -23.5t-44.5 -62.5l-74 20q17 65 70 103.5t123 38.5q95 0 147.5 -48.5t52.5 -145.5v-318h-68l-12 71q-24 -35 -73 -57t-105 -22q-69 0 -112.5 40.5t-43.5 112.5zM433 222v16h-110
q-63 0 -98.5 -25t-35.5 -68q0 -36 22.5 -56.5t60.5 -20.5q61 0 111 40t50 114zM206 700h67q0 -20 12.5 -32.5t31.5 -12.5q20 0 32 12.5t12 32.5h67q0 -46 -31.5 -77.5t-79.5 -31.5q-47 0 -79 31.5t-32 77.5z" />
    <glyph glyph-name="Aogonek" unicode="&#x104;" 
d="M19 0l249 700h84l249 -700h-91l-63 187h-274l-63 -187h-91zM202 271h216l-108 315zM466 -97q0 54 60 97h75q-62 -54 -62 -84q0 -32 33 -32q19 0 37 15l17 -66q-29 -17 -65 -17q-43 0 -69 23.5t-26 63.5z" />
    <glyph glyph-name="aogonek" unicode="&#x105;" 
d="M525 -101l17 -66q-29 -17 -65 -17q-43 0 -69 23.5t-26 63.5q0 54 67 97l-12 71q-24 -35 -73 -57t-105 -22q-69 0 -112.5 40.5t-43.5 112.5q0 81 59.5 123t168.5 42h102v22q0 53 -31 78.5t-85 25.5q-42 0 -74.5 -23.5t-44.5 -62.5l-74 20q17 65 70 103.5t123 38.5
q95 0 147.5 -48.5t52.5 -145.5v-318q-62 -54 -62 -84q0 -32 33 -32q19 0 37 15zM433 222v16h-110q-63 0 -98.5 -25t-35.5 -68q0 -36 22.5 -56.5t60.5 -20.5q61 0 111 40t50 114z" />
    <glyph glyph-name="Cacute" unicode="&#x106;" 
d="M49 350q0 171 81 264.5t208 93.5q96 0 161 -57t90 -156l-83 -25q-24 79 -64 116.5t-104 37.5q-95 0 -146.5 -69t-51.5 -205t51.5 -205t146.5 -69q64 0 104 37.5t64 116.5l83 -25q-25 -99 -90 -156t-161 -57q-127 0 -208 93.5t-81 264.5zM305 756l67 144h121l-122 -144
h-66z" />
    <glyph glyph-name="cacute" unicode="&#x107;" 
d="M87 252q0 109 66 184.5t175 75.5q153 0 213 -139l-73 -30q-40 93 -140 93q-72 0 -113.5 -51t-41.5 -133t41.5 -133t113.5 -51q100 0 140 93l73 -30q-60 -139 -213 -139q-109 0 -175 75.5t-66 184.5zM293 560l67 144h121l-122 -144h-66z" />
    <glyph glyph-name="Ccircumflex" unicode="&#x108;" 
d="M49 350q0 171 81 264.5t208 93.5q96 0 161 -57t90 -156l-83 -25q-24 79 -64 116.5t-104 37.5q-95 0 -146.5 -69t-51.5 -205t51.5 -205t146.5 -69q64 0 104 37.5t64 116.5l83 -25q-25 -99 -90 -156t-161 -57q-127 0 -208 93.5t-81 264.5zM171 756l154 152h26l154 -152h-91
l-76 75l-76 -75h-91z" />
    <glyph glyph-name="ccircumflex" unicode="&#x109;" 
d="M87 252q0 109 66 184.5t175 75.5q153 0 213 -139l-73 -30q-40 93 -140 93q-72 0 -113.5 -51t-41.5 -133t41.5 -133t113.5 -51q100 0 140 93l73 -30q-60 -139 -213 -139q-109 0 -175 75.5t-66 184.5zM161 560l154 152h26l154 -152h-91l-76 75l-76 -75h-91z" />
    <glyph glyph-name="Cdotaccent" unicode="&#x10a;" 
d="M49 350q0 171 81 264.5t208 93.5q96 0 161 -57t90 -156l-83 -25q-24 79 -64 116.5t-104 37.5q-95 0 -146.5 -69t-51.5 -205t51.5 -205t146.5 -69q64 0 104 37.5t64 116.5l83 -25q-25 -99 -90 -156t-161 -57q-127 0 -208 93.5t-81 264.5zM268 844q0 29 20 49.5t49 20.5
t49 -20.5t20 -49.5t-20 -48.5t-49 -19.5t-49 20t-20 48z" />
    <glyph glyph-name="cdotaccent" unicode="&#x10b;" 
d="M87 252q0 109 66 184.5t175 75.5q153 0 213 -139l-73 -30q-40 93 -140 93q-72 0 -113.5 -51t-41.5 -133t41.5 -133t113.5 -51q100 0 140 93l73 -30q-60 -139 -213 -139q-109 0 -175 75.5t-66 184.5zM259 638q0 29 20 49.5t49 20.5t49 -20.5t20 -49.5t-20 -48.5t-49 -19.5
t-49 20t-20 48z" />
    <glyph glyph-name="Ccaron" unicode="&#x10c;" 
d="M49 350q0 171 81 264.5t208 93.5q96 0 161 -57t90 -156l-83 -25q-24 79 -64 116.5t-104 37.5q-95 0 -146.5 -69t-51.5 -205t51.5 -205t146.5 -69q64 0 104 37.5t64 116.5l83 -25q-25 -99 -90 -156t-161 -57q-127 0 -208 93.5t-81 264.5zM325 756l-154 152h91l76 -75
l76 75h91l-154 -152h-26z" />
    <glyph glyph-name="ccaron" unicode="&#x10d;" 
d="M87 252q0 109 66 184.5t175 75.5q153 0 213 -139l-73 -30q-40 93 -140 93q-72 0 -113.5 -51t-41.5 -133t41.5 -133t113.5 -51q100 0 140 93l73 -30q-60 -139 -213 -139q-109 0 -175 75.5t-66 184.5zM315 560l-154 152h91l76 -75l76 75h91l-154 -152h-26z" />
    <glyph glyph-name="Dcaron" unicode="&#x10e;" 
d="M78 0v700h177q143 0 227 -90t84 -260t-84 -260t-227 -90h-177zM166 84h80q113 0 169.5 64t56.5 202t-56.5 202t-169.5 64h-80v-532zM247 756l-154 152h91l76 -75l76 75h91l-154 -152h-26z" />
    <glyph glyph-name="dcaron" unicode="&#x10f;" 
d="M14 252q0 119 61.5 189.5t169.5 70.5q48 0 89 -20t65 -52v268h84v-708h-84v67q-24 -33 -65.5 -54t-88.5 -21q-108 0 -169.5 70.5t-61.5 189.5zM406 252q0 83 -41.5 133.5t-111.5 50.5t-111.5 -50.5t-41.5 -133.5t41.5 -133.5t111.5 -50.5t111.5 50.5t41.5 133.5zM515 542
l24 174h104l-72 -174h-56z" />
    <glyph glyph-name="Dcroat" unicode="&#x110;" 
d="M78 0v308h-49v84h49v308h177q143 0 227 -90t84 -260t-84 -260t-227 -90h-177zM166 84h80q113 0 169.5 64t56.5 202t-56.5 202t-169.5 64h-80v-224h109v-84h-109v-224z" />
    <glyph glyph-name="dslash" unicode="&#x111;" 
d="M70 252q0 119 61.5 189.5t169.5 70.5q48 0 89 -20t65 -52v132h-138v68h138v68h84v-68h71v-68h-71v-572h-84v67q-24 -33 -65.5 -54t-88.5 -21q-108 0 -169.5 70.5t-61.5 189.5zM462 252q0 83 -41.5 133.5t-111.5 50.5t-111.5 -50.5t-41.5 -133.5t41.5 -133.5t111.5 -50.5
t111.5 50.5t41.5 133.5z" />
    <glyph glyph-name="Emacron" unicode="&#x112;" 
d="M91 0v700h444v-84h-356v-201h306v-84h-306v-247h366v-84h-454zM192 796v74h254v-74h-254z" />
    <glyph glyph-name="emacron" unicode="&#x113;" 
d="M70 252q0 111 66.5 185.5t174.5 74.5q110 0 174.5 -69t64.5 -174v-35h-394q4 -75 46 -120.5t109 -45.5q108 0 162 100l67 -35q-73 -141 -229 -141q-107 0 -174 74t-67 186zM162 310h299q-11 60 -50 93t-100 33q-59 0 -97.5 -33t-51.5 -93zM183 600v74h254v-74h-254z" />
    <glyph glyph-name="Ebreve" unicode="&#x114;" 
d="M91 0v700h444v-84h-356v-201h306v-84h-306v-247h366v-84h-454zM209 896h67q0 -20 12.5 -32.5t31.5 -12.5q20 0 32 12.5t12 32.5h67q0 -46 -31.5 -77.5t-79.5 -31.5q-47 0 -79 31.5t-32 77.5z" />
    <glyph glyph-name="ebreve" unicode="&#x115;" 
d="M70 252q0 111 66.5 185.5t174.5 74.5q110 0 174.5 -69t64.5 -174v-35h-394q4 -75 46 -120.5t109 -45.5q108 0 162 100l67 -35q-73 -141 -229 -141q-107 0 -174 74t-67 186zM162 310h299q-11 60 -50 93t-100 33q-59 0 -97.5 -33t-51.5 -93zM200 700h67q0 -20 12.5 -32.5
t31.5 -12.5q20 0 32 12.5t12 32.5h67q0 -46 -31.5 -77.5t-79.5 -31.5q-47 0 -79 31.5t-32 77.5z" />
    <glyph glyph-name="Edotaccent" unicode="&#x116;" 
d="M91 0v700h444v-84h-356v-201h306v-84h-306v-247h366v-84h-454zM250 844q0 29 20 49.5t49 20.5t49 -20.5t20 -49.5t-20 -48.5t-49 -19.5t-49 20t-20 48z" />
    <glyph glyph-name="edotaccent" unicode="&#x117;" 
d="M70 252q0 111 66.5 185.5t174.5 74.5q110 0 174.5 -69t64.5 -174v-35h-394q4 -75 46 -120.5t109 -45.5q108 0 162 100l67 -35q-73 -141 -229 -141q-107 0 -174 74t-67 186zM162 310h299q-11 60 -50 93t-100 33q-59 0 -97.5 -33t-51.5 -93zM242 638q0 29 20 49.5t49 20.5
t49 -20.5t20 -49.5t-20 -48.5t-49 -19.5t-49 20t-20 48z" />
    <glyph glyph-name="Eogonek" unicode="&#x118;" 
d="M91 0v700h444v-84h-356v-201h306v-84h-306v-247h366v-84h-454zM410 -97q0 54 60 97h75q-62 -54 -62 -84q0 -32 33 -32q19 0 37 15l17 -66q-29 -17 -65 -17q-43 0 -69 23.5t-26 63.5z" />
    <glyph glyph-name="eogonek" unicode="&#x119;" 
d="M70 252q0 111 66.5 185.5t174.5 74.5q110 0 174.5 -69t64.5 -174v-35h-394q4 -75 46 -120.5t109 -45.5q108 0 162 100l67 -35q-73 -141 -229 -141q-107 0 -174 74t-67 186zM162 310h299q-11 60 -50 93t-100 33q-59 0 -97.5 -33t-51.5 -93zM247 -97q0 54 60 97h75
q-62 -54 -62 -84q0 -32 33 -32q19 0 37 15l17 -66q-29 -17 -65 -17q-43 0 -69 23.5t-26 63.5z" />
    <glyph glyph-name="Ecaron" unicode="&#x11a;" 
d="M91 0v700h444v-84h-356v-201h306v-84h-306v-247h366v-84h-454zM307 756l-154 152h91l76 -75l76 75h91l-154 -152h-26z" />
    <glyph glyph-name="ecaron" unicode="&#x11b;" 
d="M70 252q0 111 66.5 185.5t174.5 74.5q110 0 174.5 -69t64.5 -174v-35h-394q4 -75 46 -120.5t109 -45.5q108 0 162 100l67 -35q-73 -141 -229 -141q-107 0 -174 74t-67 186zM162 310h299q-11 60 -50 93t-100 33q-59 0 -97.5 -33t-51.5 -93zM298 560l-154 152h91l76 -75
l76 75h91l-154 -152h-26z" />
    <glyph glyph-name="Gcircumflex" unicode="&#x11c;" 
d="M44 350q0 171 81 264.5t208 93.5q97 0 162 -56.5t89 -156.5l-83 -25q-24 79 -64 116.5t-104 37.5q-95 0 -146.5 -69t-51.5 -205t51.5 -205t146.5 -69q143 0 157 193h-157v84h248v-353h-73l-5 94q-23 -49 -70 -75.5t-106 -26.5q-123 0 -203 94t-80 264zM165 756l154 152
h26l154 -152h-91l-76 75l-76 -75h-91z" />
    <glyph glyph-name="gcircumflex" unicode="&#x11d;" 
d="M83 -46q0 69 52 108q-36 29 -36 77q0 34 19.5 61t54.5 40q-31 41 -31 103q0 76 50 122.5t128 46.5q53 0 99 -26l105 54l38 -69l-85 -44q21 -36 21 -84q0 -76 -50 -123q-49 -46 -128 -46q-52 0 -93 21q-46 -18 -46 -52q0 -42 71 -42h131q81 0 125 -35.5t44 -103.5
q0 -88 -69 -131q-68 -43 -167 -43q-111 0 -172 43t-61 123zM416 343q0 45 -27 71t-69 26t-69 -26.5t-27 -70.5t27 -70.5t69 -26.5t69 26t27 71zM466 -46q0 75 -85 75h-119q-33 0 -52 4q-43 -22 -43 -76q0 -44 40 -69.5t109 -25.5q71 0 110.5 24.5t39.5 67.5zM153 560
l154 152h26l154 -152h-91l-76 75l-76 -75h-91z" />
    <glyph glyph-name="Gbreve" unicode="&#x11e;" 
d="M44 350q0 171 81 264.5t208 93.5q97 0 162 -56.5t89 -156.5l-83 -25q-24 79 -64 116.5t-104 37.5q-95 0 -146.5 -69t-51.5 -205t51.5 -205t146.5 -69q143 0 157 193h-157v84h248v-353h-73l-5 94q-23 -49 -70 -75.5t-106 -26.5q-123 0 -203 94t-80 264zM221 896h67
q0 -20 12.5 -32.5t31.5 -12.5q20 0 32 12.5t12 32.5h67q0 -46 -31.5 -77.5t-79.5 -31.5q-47 0 -79 31.5t-32 77.5z" />
    <glyph glyph-name="gbreve" unicode="&#x11f;" 
d="M83 -46q0 69 52 108q-36 29 -36 77q0 34 19.5 61t54.5 40q-31 41 -31 103q0 76 50 122.5t128 46.5q53 0 99 -26l105 54l38 -69l-85 -44q21 -36 21 -84q0 -76 -50 -123q-49 -46 -128 -46q-52 0 -93 21q-46 -18 -46 -52q0 -42 71 -42h131q81 0 125 -35.5t44 -103.5
q0 -88 -69 -131q-68 -43 -167 -43q-111 0 -172 43t-61 123zM416 343q0 45 -27 71t-69 26t-69 -26.5t-27 -70.5t27 -70.5t69 -26.5t69 26t27 71zM466 -46q0 75 -85 75h-119q-33 0 -52 4q-43 -22 -43 -76q0 -44 40 -69.5t109 -25.5q71 0 110.5 24.5t39.5 67.5zM209 700h67
q0 -20 12.5 -32.5t31.5 -12.5q20 0 32 12.5t12 32.5h67q0 -46 -31.5 -77.5t-79.5 -31.5q-47 0 -79 31.5t-32 77.5z" />
    <glyph glyph-name="Gdotaccent" unicode="&#x120;" 
d="M44 350q0 171 81 264.5t208 93.5q97 0 162 -56.5t89 -156.5l-83 -25q-24 79 -64 116.5t-104 37.5q-95 0 -146.5 -69t-51.5 -205t51.5 -205t146.5 -69q143 0 157 193h-157v84h248v-353h-73l-5 94q-23 -49 -70 -75.5t-106 -26.5q-123 0 -203 94t-80 264zM262 844
q0 29 20 49.5t49 20.5t49 -20.5t20 -49.5t-20 -48.5t-49 -19.5t-49 20t-20 48z" />
    <glyph glyph-name="gdotaccent" unicode="&#x121;" 
d="M83 -46q0 69 52 108q-36 29 -36 77q0 34 19.5 61t54.5 40q-31 41 -31 103q0 76 50 122.5t128 46.5q53 0 99 -26l105 54l38 -69l-85 -44q21 -36 21 -84q0 -76 -50 -123q-49 -46 -128 -46q-52 0 -93 21q-46 -18 -46 -52q0 -42 71 -42h131q81 0 125 -35.5t44 -103.5
q0 -88 -69 -131q-68 -43 -167 -43q-111 0 -172 43t-61 123zM416 343q0 45 -27 71t-69 26t-69 -26.5t-27 -70.5t27 -70.5t69 -26.5t69 26t27 71zM466 -46q0 75 -85 75h-119q-33 0 -52 4q-43 -22 -43 -76q0 -44 40 -69.5t109 -25.5q71 0 110.5 24.5t39.5 67.5zM251 638
q0 29 20 49.5t49 20.5t49 -20.5t20 -49.5t-20 -48.5t-49 -19.5t-49 20t-20 48z" />
    <glyph glyph-name="Gcommaaccent" unicode="&#x122;" 
d="M44 350q0 171 81 264.5t208 93.5q97 0 162 -56.5t89 -156.5l-83 -25q-24 79 -64 116.5t-104 37.5q-95 0 -146.5 -69t-51.5 -205t51.5 -205t146.5 -69q143 0 157 193h-157v84h248v-353h-73l-5 94q-23 -49 -70 -75.5t-106 -26.5q-123 0 -203 94t-80 264zM234 -224l42 172
h109l-104 -172h-47z" />
    <glyph glyph-name="gcommaaccent" unicode="&#x123;" 
d="M83 -46q0 69 52 108q-36 29 -36 77q0 34 19.5 61t54.5 40q-31 41 -31 103q0 76 50 122.5t128 46.5q53 0 99 -26l105 54l38 -69l-85 -44q21 -36 21 -84q0 -76 -50 -123q-49 -46 -128 -46q-52 0 -93 21q-46 -18 -46 -52q0 -42 71 -42h131q81 0 125 -35.5t44 -103.5
q0 -88 -69 -131q-68 -43 -167 -43q-111 0 -172 43t-61 123zM416 343q0 45 -27 71t-69 26t-69 -26.5t-27 -70.5t27 -70.5t69 -26.5t69 26t27 71zM466 -46q0 75 -85 75h-119q-33 0 -52 4q-43 -22 -43 -76q0 -44 40 -69.5t109 -25.5q71 0 110.5 24.5t39.5 67.5zM269 586l87 152
h57l-42 -152h-102z" />
    <glyph glyph-name="Hcircumflex" unicode="&#x124;" 
d="M68 0v700h88v-286h308v286h88v-700h-88v330h-308v-330h-88zM143 756l154 152h26l154 -152h-91l-76 75l-76 -75h-91z" />
    <glyph glyph-name="hcircumflex" unicode="&#x125;" 
d="M108 0v708h84v-297q31 46 79.5 73.5t103.5 27.5q77 0 115.5 -42.5t38.5 -121.5v-348h-84v330q0 106 -93 106q-64 0 -112 -62.5t-48 -162.5v-211h-84zM104 764l154 152h26l154 -152h-91l-76 75l-76 -75h-91z" />
    <glyph glyph-name="Hbar" unicode="&#x126;" 
d="M68 0v525h-52v76h52v99h88v-99h308v99h88v-99h53v-76h-53v-525h-88v330h-308v-330h-88zM156 414h308v111h-308v-111z" />
    <glyph glyph-name="hbar" unicode="&#x127;" 
d="M108 0v572h-71v68h71v68h84v-68h138v-68h-138v-161q31 46 79.5 73.5t103.5 27.5q77 0 115.5 -42.5t38.5 -121.5v-348h-84v330q0 106 -93 106q-64 0 -112 -62.5t-48 -162.5v-211h-84z" />
    <glyph glyph-name="Itilde" unicode="&#x128;" 
d="M97 0v76h169v548h-169v76h426v-76h-169v-548h169v-76h-426zM303 796q-33 18 -55 18q-38 0 -66 -36l-49 38q41 76 107 76q35 0 76 -22q33 -18 55 -18q37 0 66 36l49 -39q-18 -34 -46.5 -54.5t-60.5 -20.5q-35 0 -76 22z" />
    <glyph glyph-name="itilde" unicode="&#x129;" 
d="M88 0v74h174v356h-154v74h238v-430h186v-74h-444zM297 600q-33 18 -55 18q-38 0 -66 -36l-49 38q41 76 107 76q35 0 76 -22q33 -18 55 -18q37 0 66 36l49 -39q-18 -34 -46.5 -54.5t-60.5 -20.5q-35 0 -76 22z" />
    <glyph glyph-name="Imacron" unicode="&#x12a;" 
d="M97 0v76h169v548h-169v76h426v-76h-169v-548h169v-76h-426zM182 796v74h254v-74h-254z" />
    <glyph glyph-name="imacron" unicode="&#x12b;" 
d="M88 0v74h174v356h-154v74h238v-430h186v-74h-444zM176 600v74h254v-74h-254z" />
    <glyph glyph-name="Ibreve" unicode="&#x12c;" 
d="M97 0v76h169v548h-169v76h426v-76h-169v-548h169v-76h-426zM199 896h67q0 -20 12.5 -32.5t31.5 -12.5q20 0 32 12.5t12 32.5h67q0 -46 -31.5 -77.5t-79.5 -31.5q-47 0 -79 31.5t-32 77.5z" />
    <glyph glyph-name="ibreve" unicode="&#x12d;" 
d="M88 0v74h174v356h-154v74h238v-430h186v-74h-444zM193 700h67q0 -20 12.5 -32.5t31.5 -12.5q20 0 32 12.5t12 32.5h67q0 -46 -31.5 -77.5t-79.5 -31.5q-47 0 -79 31.5t-32 77.5z" />
    <glyph glyph-name="Iogonek" unicode="&#x12e;" 
d="M97 0v76h169v548h-169v76h426v-76h-169v-548h169v-76h-426zM388 -97q0 54 60 97h75q-62 -54 -62 -84q0 -32 33 -32q19 0 37 15l17 -66q-29 -17 -65 -17q-43 0 -69 23.5t-26 63.5z" />
    <glyph glyph-name="iogonek" unicode="&#x12f;" 
d="M88 0v74h174v356h-154v74h238v-430h186v-74h-444zM235 638q0 29 20 49.5t49 20.5t49 -20.5t20 -49.5t-20 -48.5t-49 -19.5t-49 20t-20 48zM397 -97q0 54 60 97h75q-62 -54 -62 -84q0 -32 33 -32q19 0 37 15l17 -66q-29 -17 -65 -17q-43 0 -69 23.5t-26 63.5z" />
    <glyph glyph-name="Idot" unicode="&#x130;" 
d="M97 0v76h169v548h-169v76h426v-76h-169v-548h169v-76h-426zM240 844q0 29 20 49.5t49 20.5t49 -20.5t20 -49.5t-20 -48.5t-49 -19.5t-49 20t-20 48z" />
    <glyph glyph-name="dotlessi" unicode="&#x131;" 
d="M88 0v74h174v356h-154v74h238v-430h186v-74h-444z" />
    <glyph glyph-name="IJ" unicode="&#x132;" 
d="M54 0v700h88v-700h-88zM177 158l89 19q23 -101 102 -101q106 0 106 146v478h88v-476q0 -109 -51 -170.5t-143 -61.5q-74 0 -125.5 45t-65.5 121z" />
    <glyph glyph-name="ij" unicode="&#x133;" 
d="M101 638q0 29 20 49.5t49 20.5t49 -20.5t20 -49.5t-20 -48.5t-49 -19.5t-49 20t-20 48zM411 638q0 29 20 49.5t49 20.5t49 -20.5t20 -49.5t-20 -48.5t-49 -19.5t-49 20t-20 48zM134 0v504h84v-504h-84zM337 -212l-28 80q72 24 103.5 66t31.5 116v380h-98v74h182v-476
q0 -101 -56 -160q-56 -61 -135 -80z" />
    <glyph glyph-name="Jcircumflex" unicode="&#x134;" 
d="M73 182l89 19q12 -60 45 -92.5t84 -32.5q61 0 94 36.5t33 109.5v478h88v-476q0 -113 -60 -173q-61 -59 -155 -59q-91 0 -148 54t-70 136zM295 756l154 152h26l154 -152h-91l-76 75l-76 -75h-91z" />
    <glyph glyph-name="jcircumflex" unicode="&#x135;" 
d="M201 -212l-28 80q72 24 103.5 66t31.5 116v380h-198v74h282v-476q0 -101 -56 -160q-56 -61 -135 -80zM184 560l154 152h26l154 -152h-91l-76 75l-76 -75h-91z" />
    <glyph glyph-name="Kcommaaccent" unicode="&#x136;" 
d="M63 0v700h88v-281l268 281h115l-302 -315l324 -385h-112l-293 351v-351h-88zM179 -224l42 172h109l-104 -172h-47z" />
    <glyph glyph-name="kcommaaccent" unicode="&#x137;" 
d="M94 0v708h84v-415l215 211h110l-235 -231l258 -273h-110l-238 253v-253h-84zM197 -224l42 172h109l-104 -172h-47z" />
    <glyph glyph-name="kgreenlandic" unicode="&#x138;" 
d="M94 0v504h84v-211l215 211h110l-235 -231l258 -273h-110l-238 253v-253h-84z" />
    <glyph glyph-name="Lacute" unicode="&#x139;" 
d="M88 0v700h88v-616h357v-84h-445zM99 756l67 144h121l-122 -144h-66z" />
    <glyph glyph-name="lacute" unicode="&#x13a;" 
d="M188 190v434h-139v76h223v-510q0 -122 106 -122q99 0 117 122l76 -15q-13 -89 -63 -136t-130 -47q-88 0 -139 52.5t-51 145.5zM199 756l67 144h121l-122 -144h-66z" />
    <glyph glyph-name="Lcommaaccent" unicode="&#x13b;" 
d="M88 0v700h88v-616h357v-84h-445zM219 -224l42 172h109l-104 -172h-47z" />
    <glyph glyph-name="lcommaaccent" unicode="&#x13c;" 
d="M188 190v434h-139v76h223v-510q0 -122 106 -122q99 0 117 122l76 -15q-13 -89 -63 -136t-130 -47q-88 0 -139 52.5t-51 145.5zM281 -224l42 172h109l-104 -172h-47z" />
    <glyph glyph-name="Lcaron" unicode="&#x13d;" 
d="M88 0v700h88v-616h357v-84h-445zM372 542l24 174h104l-72 -174h-56z" />
    <glyph glyph-name="lcaron" unicode="&#x13e;" 
d="M188 190v434h-139v76h223v-510q0 -122 106 -122q99 0 117 122l76 -15q-13 -89 -63 -136t-130 -47q-88 0 -139 52.5t-51 145.5zM405 542l24 174h104l-72 -174h-56z" />
    <glyph glyph-name="Ldot" unicode="&#x13f;" 
d="M88 0v700h88v-616h357v-84h-445zM349 374q0 27 17.5 44.5t44.5 17.5t44.5 -17.5t17.5 -44.5t-17.5 -44.5t-44.5 -17.5t-44.5 17.5t-17.5 44.5z" />
    <glyph glyph-name="ldot" unicode="&#x140;" 
d="M188 190v434h-139v76h223v-510q0 -122 106 -122q99 0 117 122l76 -15q-13 -89 -63 -136t-130 -47q-88 0 -139 52.5t-51 145.5zM429 351q0 27 17.5 44.5t44.5 17.5t44.5 -17.5t17.5 -44.5t-17.5 -44.5t-44.5 -17.5t-44.5 17.5t-17.5 44.5z" />
    <glyph glyph-name="Lslash" unicode="&#x141;" 
d="M88 0v700h88v-616h357v-84h-445zM38 229l-39 74l289 168l43 -74z" />
    <glyph glyph-name="lslash" unicode="&#x142;" 
d="M188 191v90l-84 -47l-36 64l120 68v258h-139v76h223v-287l84 48l36 -64l-120 -68v-139q0 -122 106 -122q100 0 117 121l76 -15q-13 -89 -63 -135.5t-130 -46.5q-88 0 -139 53t-51 146z" />
    <glyph glyph-name="Nacute" unicode="&#x143;" 
d="M71 0v700h96l293 -540v540h88v-700h-96l-293 540v-540h-88zM277 756l67 144h121l-122 -144h-66z" />
    <glyph glyph-name="nacute" unicode="&#x144;" 
d="M106 0v504h84v-93q28 46 74 73.5t97 27.5q76 0 115 -42.5t39 -118.5v-351h-84v333q0 103 -93 103q-63 0 -105.5 -64t-42.5 -169v-203h-84zM297 560l67 144h121l-122 -144h-66z" />
    <glyph glyph-name="Ncommaaccent" unicode="&#x145;" 
d="M71 0v700h96l293 -540v540h88v-700h-96l-293 540v-540h-88zM214 -224l42 172h109l-104 -172h-47z" />
    <glyph glyph-name="ncommaaccent" unicode="&#x146;" 
d="M106 0v504h84v-93q28 46 74 73.5t97 27.5q76 0 115 -42.5t39 -118.5v-351h-84v333q0 103 -93 103q-63 0 -105.5 -64t-42.5 -169v-203h-84zM214 -224l42 172h109l-104 -172h-47z" />
    <glyph glyph-name="Ncaron" unicode="&#x147;" 
d="M71 0v700h96l293 -540v540h88v-700h-96l-293 540v-540h-88zM297 756l-154 152h91l76 -75l76 75h91l-154 -152h-26z" />
    <glyph glyph-name="ncaron" unicode="&#x148;" 
d="M106 0v504h84v-93q28 46 74 73.5t97 27.5q76 0 115 -42.5t39 -118.5v-351h-84v333q0 103 -93 103q-63 0 -105.5 -64t-42.5 -169v-203h-84zM319 560l-154 152h91l76 -75l76 75h91l-154 -152h-26z" />
    <glyph glyph-name="Eng" unicode="&#x14a;" 
d="M333 -212v84q65 0 96 29t31 99l-301 540v-540h-88v700h96l293 -527v527h88v-700q0 -108 -56.5 -160t-158.5 -52z" />
    <glyph glyph-name="eng" unicode="&#x14b;" 
d="M324 -212l-28 80q72 24 103.5 66t31.5 116v283q0 103 -93 103q-63 0 -105.5 -64t-42.5 -169v-203h-84v504h84v-93q28 46 74 73.5t97 27.5q76 0 115 -42.5t39 -118.5v-323q0 -101 -56 -160q-56 -61 -135 -80z" />
    <glyph glyph-name="Omacron" unicode="&#x14c;" 
d="M38 350q0 170 75.5 264t196.5 94t196.5 -94t75.5 -264t-75.5 -264t-196.5 -94t-196.5 94t-75.5 264zM491 350q0 137 -47.5 205.5t-133.5 68.5t-133.5 -68.5t-47.5 -205.5t47.5 -205.5t133.5 -68.5t133.5 68.5t47.5 205.5zM182 796v74h254v-74h-254z" />
    <glyph glyph-name="omacron" unicode="&#x14d;" 
d="M62 252q0 108 69 184t179 76t179 -76t69 -184t-69 -184t-179 -76t-179 76t-69 184zM472 252q0 77 -44.5 130.5t-117.5 53.5t-117.5 -53.5t-44.5 -130.5t44.5 -130.5t117.5 -53.5t117.5 53.5t44.5 130.5zM182 600v74h254v-74h-254z" />
    <glyph glyph-name="Obreve" unicode="&#x14e;" 
d="M38 350q0 170 75.5 264t196.5 94t196.5 -94t75.5 -264t-75.5 -264t-196.5 -94t-196.5 94t-75.5 264zM491 350q0 137 -47.5 205.5t-133.5 68.5t-133.5 -68.5t-47.5 -205.5t47.5 -205.5t133.5 -68.5t133.5 68.5t47.5 205.5zM199 896h67q0 -20 12.5 -32.5t31.5 -12.5
q20 0 32 12.5t12 32.5h67q0 -46 -31.5 -77.5t-79.5 -31.5q-47 0 -79 31.5t-32 77.5z" />
    <glyph glyph-name="obreve" unicode="&#x14f;" 
d="M62 252q0 108 69 184t179 76t179 -76t69 -184t-69 -184t-179 -76t-179 76t-69 184zM472 252q0 77 -44.5 130.5t-117.5 53.5t-117.5 -53.5t-44.5 -130.5t44.5 -130.5t117.5 -53.5t117.5 53.5t44.5 130.5zM199 700h67q0 -20 12.5 -32.5t31.5 -12.5q20 0 32 12.5t12 32.5h67
q0 -46 -31.5 -77.5t-79.5 -31.5q-47 0 -79 31.5t-32 77.5z" />
    <glyph glyph-name="Ohungarumlaut" unicode="&#x150;" 
d="M38 350q0 170 75.5 264t196.5 94t196.5 -94t75.5 -264t-75.5 -264t-196.5 -94t-196.5 94t-75.5 264zM491 350q0 137 -47.5 205.5t-133.5 68.5t-133.5 -68.5t-47.5 -205.5t47.5 -205.5t133.5 -68.5t133.5 68.5t47.5 205.5zM164 756l68 144h121l-121 -144h-68zM354 756
l68 144h121l-121 -144h-68z" />
    <glyph glyph-name="ohungarumlaut" unicode="&#x151;" 
d="M62 252q0 108 69 184t179 76t179 -76t69 -184t-69 -184t-179 -76t-179 76t-69 184zM472 252q0 77 -44.5 130.5t-117.5 53.5t-117.5 -53.5t-44.5 -130.5t44.5 -130.5t117.5 -53.5t117.5 53.5t44.5 130.5zM151 560l68 144h121l-121 -144h-68zM341 560l68 144h121l-121 -144
h-68z" />
    <glyph glyph-name="OE" unicode="&#x152;" 
d="M38 350q0 171 69.5 260.5t191.5 89.5h262v-84h-183v-201h156v-84h-156v-247h193v-84h-272q-122 0 -191.5 89.5t-69.5 260.5zM290 84v540q-81 0 -121 -66t-40 -208q0 -141 39.5 -203.5t121.5 -62.5z" />
    <glyph glyph-name="oe" unicode="&#x153;" 
d="M73 252q0 108 69 184t179 76t174.5 -69t64.5 -174v-35h-197v-162q77 16 120 96l67 -35q-73 -141 -229 -141q-110 0 -179 76t-69 184zM363 310h108q-22 105 -108 122v-122zM277 73v357q-55 -14 -86.5 -63.5t-31.5 -114.5q0 -67 31 -115.5t87 -63.5z" />
    <glyph glyph-name="Racute" unicode="&#x154;" 
d="M80 0v700h245q97 0 151.5 -47.5t54.5 -137.5q0 -148 -146 -179l209 -336h-104l-205 330h-117v-330h-88zM168 414h159q113 0 113 101t-113 101h-159v-202zM227 756l67 144h121l-122 -144h-66z" />
    <glyph glyph-name="racute" unicode="&#x155;" 
d="M92 0v504h84v-93q64 101 186 101q75 0 118.5 -43.5t47.5 -124.5h-84q-11 92 -97 92q-73 0 -122 -67.5t-49 -186.5v-182h-84zM302 560l67 144h121l-122 -144h-66z" />
    <glyph glyph-name="Rcommaaccent" unicode="&#x156;" 
d="M80 0v700h245q97 0 151.5 -47.5t54.5 -137.5q0 -148 -146 -179l209 -336h-104l-205 330h-117v-330h-88zM168 414h159q113 0 113 101t-113 101h-159v-202zM224 -224l42 172h109l-104 -172h-47z" />
    <glyph glyph-name="rcommaaccent" unicode="&#x157;" 
d="M92 0v504h84v-93q64 101 186 101q75 0 118.5 -43.5t47.5 -124.5h-84q-11 92 -97 92q-73 0 -122 -67.5t-49 -186.5v-182h-84zM38 -224l42 172h109l-104 -172h-47z" />
    <glyph glyph-name="Rcaron" unicode="&#x158;" 
d="M80 0v700h245q97 0 151.5 -47.5t54.5 -137.5q0 -148 -146 -179l209 -336h-104l-205 330h-117v-330h-88zM168 414h159q113 0 113 101t-113 101h-159v-202zM247 756l-154 152h91l76 -75l76 75h91l-154 -152h-26z" />
    <glyph glyph-name="rcaron" unicode="&#x159;" 
d="M92 0v504h84v-93q64 101 186 101q75 0 118.5 -43.5t47.5 -124.5h-84q-11 92 -97 92q-73 0 -122 -67.5t-49 -186.5v-182h-84zM324 560l-154 152h91l76 -75l76 75h91l-154 -152h-26z" />
    <glyph glyph-name="Sacute" unicode="&#x15a;" 
d="M59 200l82 32q41 -156 179 -156q57 0 97 31q42 32 42 82q0 52 -34 79t-120 49q-91 23 -146 69q-56 47 -56 135q0 80 58.5 133.5t155.5 53.5q81 0 137.5 -41.5t81.5 -108.5l-77 -39q-46 105 -142 105q-58 0 -92 -28.5t-34 -79.5q0 -34 20 -57q19 -20 49.5 -33t92.5 -29
q100 -27 146 -67.5t48 -128.5q0 -98 -65 -153.5t-162 -55.5q-103 0 -172 54t-89 154zM277 756l67 144h121l-122 -144h-66z" />
    <glyph glyph-name="sacute" unicode="&#x15b;" 
d="M103 138l80 30q13 -48 50 -74t89 -26q49 0 78 18.5t29 53.5t-26.5 50t-103.5 30q-81 15 -122 48t-41 98t50 105.5t122 40.5q129 0 187 -112l-69 -44q-44 80 -121 80q-38 0 -62.5 -17.5t-24.5 -49.5q0 -30 27.5 -48t89.5 -30q94 -19 137.5 -50.5t43.5 -93.5
q0 -69 -56.5 -112t-137.5 -43q-79 0 -137.5 38.5t-81.5 107.5zM275 560l67 144h121l-122 -144h-66z" />
    <glyph glyph-name="Scircumflex" unicode="&#x15c;" 
d="M59 200l82 32q41 -156 179 -156q57 0 97 31q42 32 42 82q0 52 -34 79t-120 49q-91 23 -146 69q-56 47 -56 135q0 80 58.5 133.5t155.5 53.5q81 0 137.5 -41.5t81.5 -108.5l-77 -39q-46 105 -142 105q-58 0 -92 -28.5t-34 -79.5q0 -34 20 -57q19 -20 49.5 -33t92.5 -29
q100 -27 146 -67.5t48 -128.5q0 -98 -65 -153.5t-162 -55.5q-103 0 -172 54t-89 154zM143 756l154 152h26l154 -152h-91l-76 75l-76 -75h-91z" />
    <glyph glyph-name="scircumflex" unicode="&#x15d;" 
d="M103 138l80 30q13 -48 50 -74t89 -26q49 0 78 18.5t29 53.5t-26.5 50t-103.5 30q-81 15 -122 48t-41 98t50 105.5t122 40.5q129 0 187 -112l-69 -44q-44 80 -121 80q-38 0 -62.5 -17.5t-24.5 -49.5q0 -30 27.5 -48t89.5 -30q94 -19 137.5 -50.5t43.5 -93.5
q0 -69 -56.5 -112t-137.5 -43q-79 0 -137.5 38.5t-81.5 107.5zM143 560l154 152h26l154 -152h-91l-76 75l-76 -75h-91z" />
    <glyph glyph-name="Scedilla" unicode="&#x15e;" 
d="M59 200l82 32q41 -156 179 -156q57 0 97 31q42 32 42 82q0 52 -34 79t-120 49q-91 23 -146 69q-56 47 -56 135q0 80 58.5 133.5t155.5 53.5q81 0 137.5 -41.5t81.5 -108.5l-77 -39q-46 105 -142 105q-58 0 -92 -28.5t-34 -79.5q0 -34 20 -57q19 -20 49.5 -33t92.5 -29
q100 -27 146 -67.5t48 -128.5q0 -98 -65 -153.5t-162 -55.5q-103 0 -172 54t-89 154zM262 -235l-95 45l108 130h70z" />
    <glyph glyph-name="scedilla" unicode="&#x15f;" 
d="M103 138l80 30q13 -48 50 -74t89 -26q49 0 78 18.5t29 53.5t-26.5 50t-103.5 30q-81 15 -122 48t-41 98t50 105.5t122 40.5q129 0 187 -112l-69 -44q-44 80 -121 80q-38 0 -62.5 -17.5t-24.5 -49.5q0 -30 27.5 -48t89.5 -30q94 -19 137.5 -50.5t43.5 -93.5
q0 -69 -56.5 -112t-137.5 -43q-79 0 -137.5 38.5t-81.5 107.5zM262 -235l-95 45l108 130h70z" />
    <glyph glyph-name="Scaron" unicode="&#x160;" 
d="M59 200l82 32q41 -156 179 -156q57 0 97 31q42 32 42 82q0 52 -34 79t-120 49q-91 23 -146 69q-56 47 -56 135q0 80 58.5 133.5t155.5 53.5q81 0 137.5 -41.5t81.5 -108.5l-77 -39q-46 105 -142 105q-58 0 -92 -28.5t-34 -79.5q0 -34 20 -57q19 -20 49.5 -33t92.5 -29
q100 -27 146 -67.5t48 -128.5q0 -98 -65 -153.5t-162 -55.5q-103 0 -172 54t-89 154zM297 756l-154 152h91l76 -75l76 75h91l-154 -152h-26z" />
    <glyph glyph-name="scaron" unicode="&#x161;" 
d="M103 138l80 30q13 -48 50 -74t89 -26q49 0 78 18.5t29 53.5t-26.5 50t-103.5 30q-81 15 -122 48t-41 98t50 105.5t122 40.5q129 0 187 -112l-69 -44q-44 80 -121 80q-38 0 -62.5 -17.5t-24.5 -49.5q0 -30 27.5 -48t89.5 -30q94 -19 137.5 -50.5t43.5 -93.5
q0 -69 -56.5 -112t-137.5 -43q-79 0 -137.5 38.5t-81.5 107.5zM297 560l-154 152h91l76 -75l76 75h91l-154 -152h-26z" />
    <glyph glyph-name="uni0162" unicode="&#x162;" 
d="M266 0v616h-218v84h524v-84h-218v-616h-88zM262 -235l-95 45l108 130h70z" />
    <glyph glyph-name="uni0163" unicode="&#x163;" 
d="M200 167v261h-134v76h134v151l84 53v-204h176v-76h-176v-258q0 -102 87 -102q65 0 124 60l31 -71q-65 -65 -155 -65q-84 0 -127.5 44t-43.5 131zM312 -235l-95 45l108 130h70z" />
    <glyph glyph-name="Tcaron" unicode="&#x164;" 
d="M266 0v616h-218v84h524v-84h-218v-616h-88zM297 756l-154 152h91l76 -75l76 75h91l-154 -152h-26z" />
    <glyph glyph-name="tcaron" unicode="&#x165;" 
d="M200 167v261h-134v76h134v151l84 53v-204h176v-76h-176v-258q0 -102 87 -102q65 0 124 60l31 -71q-65 -65 -155 -65q-84 0 -127.5 44t-43.5 131zM404 542l24 174h104l-72 -174h-56z" />
    <glyph glyph-name="Tbar" unicode="&#x166;" 
d="M266 0v616h-218v84h524v-84h-218v-616h-88zM140 312v76h341v-76h-341z" />
    <glyph glyph-name="tbar" unicode="&#x167;" 
d="M200 167v92h-89v68h89v101h-134v76h134v151l84 53v-204h176v-76h-176v-101h144v-68h-144v-89q0 -102 87 -102q65 0 124 60l31 -71q-65 -65 -155 -65q-84 0 -127.5 44t-43.5 131z" />
    <glyph glyph-name="Utilde" unicode="&#x168;" 
d="M62 243v457h88v-463q0 -73 42.5 -117t117.5 -44t117.5 44t42.5 117v463h88v-457q0 -115 -70 -183t-178 -68t-178 68t-70 183zM303 796q-33 18 -55 18q-38 0 -66 -36l-49 38q41 76 107 76q35 0 76 -22q33 -18 55 -18q37 0 66 36l49 -39q-18 -34 -46.5 -54.5t-60.5 -20.5
q-35 0 -76 22z" />
    <glyph glyph-name="utilde" unicode="&#x169;" 
d="M105 153v351h84v-333q0 -103 93 -103q63 0 105.5 64t42.5 169v203h84v-504h-84v93q-28 -46 -74 -73.5t-97 -27.5q-76 0 -115 42.5t-39 118.5zM295 600q-33 18 -55 18q-38 0 -66 -36l-49 38q41 76 107 76q35 0 76 -22q33 -18 55 -18q37 0 66 36l49 -39
q-18 -34 -46.5 -54.5t-60.5 -20.5q-35 0 -76 22z" />
    <glyph glyph-name="Umacron" unicode="&#x16a;" 
d="M62 243v457h88v-463q0 -73 42.5 -117t117.5 -44t117.5 44t42.5 117v463h88v-457q0 -115 -70 -183t-178 -68t-178 68t-70 183zM182 796v74h254v-74h-254z" />
    <glyph glyph-name="umacron" unicode="&#x16b;" 
d="M105 153v351h84v-333q0 -103 93 -103q63 0 105.5 64t42.5 169v203h84v-504h-84v93q-28 -46 -74 -73.5t-97 -27.5q-76 0 -115 42.5t-39 118.5zM174 600v74h254v-74h-254z" />
    <glyph glyph-name="Ubreve" unicode="&#x16c;" 
d="M62 243v457h88v-463q0 -73 42.5 -117t117.5 -44t117.5 44t42.5 117v463h88v-457q0 -115 -70 -183t-178 -68t-178 68t-70 183zM199 896h67q0 -20 12.5 -32.5t31.5 -12.5q20 0 32 12.5t12 32.5h67q0 -46 -31.5 -77.5t-79.5 -31.5q-47 0 -79 31.5t-32 77.5z" />
    <glyph glyph-name="ubreve" unicode="&#x16d;" 
d="M105 153v351h84v-333q0 -103 93 -103q63 0 105.5 64t42.5 169v203h84v-504h-84v93q-28 -46 -74 -73.5t-97 -27.5q-76 0 -115 42.5t-39 118.5zM191 700h67q0 -20 12.5 -32.5t31.5 -12.5q20 0 32 12.5t12 32.5h67q0 -46 -31.5 -77.5t-79.5 -31.5q-47 0 -79 31.5t-32 77.5z
" />
    <glyph glyph-name="Uring" unicode="&#x16e;" 
d="M62 243v457h88v-463q0 -73 42.5 -117t117.5 -44t117.5 44t42.5 117v463h88v-457q0 -115 -70 -183t-178 -68t-178 68t-70 183zM211 849q0 42 28.5 71t70.5 29t70.5 -29t28.5 -71q0 -41 -28 -68.5t-71 -27.5q-42 0 -70.5 27.5t-28.5 68.5zM353 850q0 20 -12 33t-31 13
t-31 -13t-12 -33q0 -19 12 -31.5t31 -12.5t31 12.5t12 31.5z" />
    <glyph glyph-name="uring" unicode="&#x16f;" 
d="M105 153v351h84v-333q0 -103 93 -103q63 0 105.5 64t42.5 169v203h84v-504h-84v93q-28 -46 -74 -73.5t-97 -27.5q-76 0 -115 42.5t-39 118.5zM203 653q0 42 28.5 71t70.5 29t70.5 -29t28.5 -71q0 -41 -28 -68.5t-71 -27.5q-42 0 -70.5 27.5t-28.5 68.5zM345 654
q0 20 -12 33t-31 13t-31 -13t-12 -33q0 -19 12 -31.5t31 -12.5t31 12.5t12 31.5z" />
    <glyph glyph-name="Uhungarumlaut" unicode="&#x170;" 
d="M62 243v457h88v-463q0 -73 42.5 -117t117.5 -44t117.5 44t42.5 117v463h88v-457q0 -115 -70 -183t-178 -68t-178 68t-70 183zM164 756l68 144h121l-121 -144h-68zM354 756l68 144h121l-121 -144h-68z" />
    <glyph glyph-name="uhungarumlaut" unicode="&#x171;" 
d="M105 153v351h84v-333q0 -103 93 -103q63 0 105.5 64t42.5 169v203h84v-504h-84v93q-28 -46 -74 -73.5t-97 -27.5q-76 0 -115 42.5t-39 118.5zM143 560l68 144h121l-121 -144h-68zM333 560l68 144h121l-121 -144h-68z" />
    <glyph glyph-name="Uogonek" unicode="&#x172;" 
d="M62 243v457h88v-463q0 -73 42.5 -117t117.5 -44t117.5 44t42.5 117v463h88v-457q0 -115 -70 -183t-178 -68t-178 68t-70 183zM243 -97q0 54 60 97h75q-62 -54 -62 -84q0 -32 33 -32q19 0 37 15l17 -66q-29 -17 -65 -17q-43 0 -69 23.5t-26 63.5z" />
    <glyph glyph-name="uogonek" unicode="&#x173;" 
d="M105 153v351h84v-333q0 -103 93 -103q63 0 105.5 64t42.5 169v203h84v-504h-84v93q-28 -46 -74 -73.5t-97 -27.5q-76 0 -115 42.5t-39 118.5zM379 -97q0 54 60 97h75q-62 -54 -62 -84q0 -32 33 -32q19 0 37 15l17 -66q-29 -17 -65 -17q-43 0 -69 23.5t-26 63.5z" />
    <glyph glyph-name="Wcircumflex" unicode="&#x174;" 
d="M98 0l-67 700h91l42 -570l106 427h80l106 -427l42 570h91l-67 -700h-109l-103 411l-103 -411h-109zM143 756l154 152h26l154 -152h-91l-76 75l-76 -75h-91z" />
    <glyph glyph-name="wcircumflex" unicode="&#x175;" 
d="M137 0l-110 504h86l69 -373l86 323h84l86 -323l69 373h86l-110 -504h-76l-97 354l-97 -354h-76zM143 560l154 152h26l154 -152h-91l-76 75l-76 -75h-91z" />
    <glyph glyph-name="Ycircumflex" unicode="&#x176;" 
d="M266 0v276l-225 424h97l172 -336l172 336h97l-225 -424v-276h-88zM143 756l154 152h26l154 -152h-91l-76 75l-76 -75h-91z" />
    <glyph glyph-name="ycircumflex" unicode="&#x177;" 
d="M178 -204l98 238l-218 470h94l169 -369l149 369h91l-299 -708h-84zM154 560l154 152h26l154 -152h-91l-76 75l-76 -75h-91z" />
    <glyph glyph-name="Ydieresis" unicode="&#x178;" 
d="M266 0v276l-225 424h97l172 -336l172 336h97l-225 -424v-276h-88zM161 839q0 24 16.5 40.5t40.5 16.5t40.5 -16.5t16.5 -40.5t-16.5 -40.5t-40.5 -16.5t-40.5 16.5t-16.5 40.5zM345 839q0 24 16.5 40.5t40.5 16.5t40.5 -16.5t16.5 -40.5t-16.5 -40.5t-40.5 -16.5
t-40.5 16.5t-16.5 40.5z" />
    <glyph glyph-name="Zacute" unicode="&#x179;" 
d="M73 0v42l343 574h-329v84h456v-42l-343 -574h354v-84h-481zM277 756l67 144h121l-122 -144h-66z" />
    <glyph glyph-name="zacute" unicode="&#x17a;" 
d="M109 0v36l264 392h-251v76h378v-36l-267 -392h279v-76h-403zM274 560l67 144h121l-122 -144h-66z" />
    <glyph glyph-name="Zdotaccent" unicode="&#x17b;" 
d="M73 0v42l343 574h-329v84h456v-42l-343 -574h354v-84h-481zM240 844q0 29 20 49.5t49 20.5t49 -20.5t20 -49.5t-20 -48.5t-49 -19.5t-49 20t-20 48z" />
    <glyph glyph-name="zdotaccent" unicode="&#x17c;" 
d="M109 0v36l264 392h-251v76h378v-36l-267 -392h279v-76h-403zM240 638q0 29 20 49.5t49 20.5t49 -20.5t20 -49.5t-20 -48.5t-49 -19.5t-49 20t-20 48z" />
    <glyph glyph-name="Zcaron" unicode="&#x17d;" 
d="M73 0v42l343 574h-329v84h456v-42l-343 -574h354v-84h-481zM297 756l-154 152h91l76 -75l76 75h91l-154 -152h-26z" />
    <glyph glyph-name="zcaron" unicode="&#x17e;" 
d="M109 0v36l264 392h-251v76h378v-36l-267 -392h279v-76h-403zM296 560l-154 152h91l76 -75l76 75h91l-154 -152h-26z" />
    <glyph glyph-name="florin" unicode="&#x192;" 
d="M8 -183l36 74q32 -27 75 -27q73 0 93 95l91 469h-142l15 76h142l6 31q18 93 62 133t120 40q63 0 106 -29l-36 -74q-32 27 -75 27q-73 0 -93 -95l-6 -33h196l-15 -76h-196l-91 -467q-18 -93 -62 -133t-120 -40q-63 0 -106 29z" />
    <glyph glyph-name="uni01B5" unicode="&#x1b5;" 
d="M73 0v42l168 281h-134v76h179l130 217h-329v84h456v-42l-155 -259h126v-76h-172l-142 -239h354v-84h-481z" />
    <glyph glyph-name="uni01B6" unicode="&#x1b6;" 
d="M108 0v36l130 194h-93v68h139l88 130h-251v76h378v-36l-116 -170h93v-68h-140l-104 -154h279v-76h-403z" />
    <glyph glyph-name="Aringacute" unicode="&#x1fa;" 
d="M19 0l249 700h84l249 -700h-91l-63 187h-274l-63 -187h-91zM202 271h216l-108 315zM211 849q0 42 28.5 71t70.5 29t70.5 -29t28.5 -71q0 -41 -28 -68.5t-71 -27.5q-42 0 -70.5 27.5t-28.5 68.5zM353 850q0 20 -12 33t-31 13t-31 -13t-12 -33q0 -19 12 -31.5t31 -12.5
t31 12.5t12 31.5zM277 975l67 144h121l-122 -144h-66z" />
    <glyph glyph-name="aringacute" unicode="&#x1fb;" 
d="M103 145q0 81 59.5 123t168.5 42h102v22q0 53 -31 78.5t-85 25.5q-42 0 -74.5 -23.5t-44.5 -62.5l-74 20q17 65 70 103.5t123 38.5q95 0 147.5 -48.5t52.5 -145.5v-318h-68l-12 71q-24 -35 -73 -57t-105 -22q-69 0 -112.5 40.5t-43.5 112.5zM433 222v16h-110
q-63 0 -98.5 -25t-35.5 -68q0 -36 22.5 -56.5t60.5 -20.5q61 0 111 40t50 114zM218 653q0 42 28.5 71t70.5 29t70.5 -29t28.5 -71q0 -41 -28 -68.5t-71 -27.5q-42 0 -70.5 27.5t-28.5 68.5zM360 654q0 20 -12 33t-31 13t-31 -13t-12 -33q0 -19 12 -31.5t31 -12.5t31 12.5
t12 31.5zM282 795l67 144h121l-122 -144h-66z" />
    <glyph glyph-name="AEacute" unicode="&#x1fc;" 
d="M-11 0l194 700h392v-84h-206v-201h166v-84h-166v-247h216v-84h-304v187h-152l-52 -187h-88zM149 271h132v345h-39zM387 756l67 144h121l-122 -144h-66z" />
    <glyph glyph-name="aeacute" unicode="&#x1fd;" 
d="M36 144q0 79 51 122.5t137 43.5h55v32q0 43 -18 68.5t-50 25.5q-63 0 -80 -86l-74 20q8 60 50 101q43 41 103 41q89 0 117 -76q19 35 52 55.5t71 20.5q75 0 116 -59.5t41 -168.5v-50h-242q0 -79 20.5 -122.5t58.5 -43.5q32 0 51 23t34 76l72 -21q-24 -80 -60.5 -117
t-96.5 -37q-44 0 -75 24t-44 66q-40 -90 -144 -90q-66 0 -105.5 40.5t-39.5 111.5zM365 310h158q0 56 -21.5 91t-57.5 35q-34 0 -56.5 -35t-22.5 -91zM279 199v39h-44q-55 0 -84 -23.5t-29 -67.5q0 -36 18 -57.5t49 -21.5q44 0 67 36t23 95zM295 560l67 144h121l-122 -144
h-66z" />
    <glyph glyph-name="Scommaaccent" unicode="&#x218;" 
d="M59 200l82 32q41 -156 179 -156q57 0 97 31q42 32 42 82q0 52 -34 79t-120 49q-91 23 -146 69q-56 47 -56 135q0 80 58.5 133.5t155.5 53.5q81 0 137.5 -41.5t81.5 -108.5l-77 -39q-46 105 -142 105q-58 0 -92 -28.5t-34 -79.5q0 -34 20 -57q19 -20 49.5 -33t92.5 -29
q100 -27 146 -67.5t48 -128.5q0 -98 -65 -153.5t-162 -55.5q-103 0 -172 54t-89 154zM214 -224l42 172h109l-104 -172h-47z" />
    <glyph glyph-name="scommaaccent" unicode="&#x219;" 
d="M103 138l80 30q13 -48 50 -74t89 -26q49 0 78 18.5t29 53.5t-26.5 50t-103.5 30q-81 15 -122 48t-41 98t50 105.5t122 40.5q129 0 187 -112l-69 -44q-44 80 -121 80q-38 0 -62.5 -17.5t-24.5 -49.5q0 -30 27.5 -48t89.5 -30q94 -19 137.5 -50.5t43.5 -93.5
q0 -69 -56.5 -112t-137.5 -43q-79 0 -137.5 38.5t-81.5 107.5zM214 -224l42 172h109l-104 -172h-47z" />
    <glyph glyph-name="uni021A" unicode="&#x21a;" 
d="M266 0v616h-218v84h524v-84h-218v-616h-88zM214 -224l42 172h109l-104 -172h-47z" />
    <glyph glyph-name="uni021B" unicode="&#x21b;" 
d="M200 167v261h-134v76h134v151l84 53v-204h176v-76h-176v-258q0 -102 87 -102q65 0 124 60l31 -71q-65 -65 -155 -65q-84 0 -127.5 44t-43.5 131zM264 -224l42 172h109l-104 -172h-47z" />
    <glyph glyph-name="uni0237" unicode="&#x237;" 
d="M201 -212l-28 80q72 24 103.5 66t31.5 116v380h-198v74h282v-476q0 -101 -56 -160q-56 -61 -135 -80z" />
    <glyph glyph-name="circumflex" unicode="&#x2c6;" 
d="M143 560l154 152h26l154 -152h-91l-76 75l-76 -75h-91z" />
    <glyph glyph-name="caron" unicode="&#x2c7;" 
d="M297 560l-154 152h91l76 -75l76 75h91l-154 -152h-26z" />
    <glyph glyph-name="uni02C9" unicode="&#x2c9;" 
d="M183 600v74h254v-74h-254z" />
    <glyph glyph-name="breve" unicode="&#x2d8;" 
d="M199 700h67q0 -20 12.5 -32.5t31.5 -12.5q20 0 32 12.5t12 32.5h67q0 -46 -31.5 -77.5t-79.5 -31.5q-47 0 -79 31.5t-32 77.5z" />
    <glyph glyph-name="dotaccent" unicode="&#x2d9;" 
d="M241 638q0 29 20 49.5t49 20.5t49 -20.5t20 -49.5t-20 -48.5t-49 -19.5t-49 20t-20 48z" />
    <glyph glyph-name="ring" unicode="&#x2da;" 
d="M211 653q0 42 28.5 71t70.5 29t70.5 -29t28.5 -71q0 -41 -28 -68.5t-71 -27.5q-42 0 -70.5 27.5t-28.5 68.5zM353 654q0 20 -12 33t-31 13t-31 -13t-12 -33q0 -19 12 -31.5t31 -12.5t31 12.5t12 31.5z" />
    <glyph glyph-name="ogonek" unicode="&#x2db;" 
d="M230 -97q0 54 60 97h75q-62 -54 -62 -84q0 -32 33 -32q19 0 37 15l17 -66q-29 -17 -65 -17q-43 0 -69 23.5t-26 63.5z" />
    <glyph glyph-name="tilde" unicode="&#x2dc;" 
d="M303 600q-33 18 -55 18q-38 0 -66 -36l-49 38q41 76 107 76q35 0 76 -22q33 -18 55 -18q37 0 66 36l49 -39q-18 -34 -46.5 -54.5t-60.5 -20.5q-35 0 -76 22z" />
    <glyph glyph-name="hungarumlaut" unicode="&#x2dd;" 
d="M120 560l68 144h121l-121 -144h-68zM310 560l68 144h121l-121 -144h-68z" />
    <glyph glyph-name="gravecomb" unicode="&#x300;" horiz-adv-x="0" 
d="M-282 560l-122 144h121l67 -144h-66z" />
    <glyph glyph-name="acutecomb" unicode="&#x301;" horiz-adv-x="0" 
d="M-404 560l67 144h121l-122 -144h-66z" />
    <glyph glyph-name="uni0302" unicode="&#x302;" horiz-adv-x="0" 
d="M-477 560l154 152h26l154 -152h-91l-76 75l-76 -75h-91z" />
    <glyph glyph-name="tildecomb" unicode="&#x303;" horiz-adv-x="0" 
d="M-317 600q-33 18 -55 18q-38 0 -66 -36l-49 38q41 76 107 76q35 0 76 -22q33 -18 55 -18q37 0 66 36l49 -39q-18 -34 -46.5 -54.5t-60.5 -20.5q-35 0 -76 22z" />
    <glyph glyph-name="uni0304" unicode="&#x304;" horiz-adv-x="0" 
d="M-437 600v74h254v-74h-254z" />
    <glyph glyph-name="uni0306" unicode="&#x306;" horiz-adv-x="0" 
d="M-421 700h67q0 -20 12.5 -32.5t31.5 -12.5q20 0 32 12.5t12 32.5h67q0 -46 -31.5 -77.5t-79.5 -31.5q-47 0 -79 31.5t-32 77.5z" />
    <glyph glyph-name="uni0307" unicode="&#x307;" horiz-adv-x="0" 
d="M-379 638q0 29 20 49.5t49 20.5t49 -20.5t20 -49.5t-20 -48.5t-49 -19.5t-49 20t-20 48z" />
    <glyph glyph-name="uni0308" unicode="&#x308;" horiz-adv-x="0" 
d="M-459 643q0 24 16.5 40.5t40.5 16.5t40.5 -16.5t16.5 -40.5t-16.5 -40.5t-40.5 -16.5t-40.5 16.5t-16.5 40.5zM-275 643q0 24 16.5 40.5t40.5 16.5t40.5 -16.5t16.5 -40.5t-16.5 -40.5t-40.5 -16.5t-40.5 16.5t-16.5 40.5z" />
    <glyph glyph-name="uni030A" unicode="&#x30a;" horiz-adv-x="0" 
d="M-409 653q0 42 28.5 71t70.5 29t70.5 -29t28.5 -71q0 -41 -28 -68.5t-71 -27.5q-42 0 -70.5 27.5t-28.5 68.5zM-267 654q0 20 -12 33t-31 13t-31 -13t-12 -33q0 -19 12 -31.5t31 -12.5t31 12.5t12 31.5z" />
    <glyph glyph-name="uni030B" unicode="&#x30b;" horiz-adv-x="0" 
d="M-499 560l68 144h121l-121 -144h-68zM-309 560l68 144h121l-121 -144h-68z" />
    <glyph glyph-name="uni030C" unicode="&#x30c;" horiz-adv-x="0" 
d="M-323 560l-154 152h91l76 -75l76 75h91l-154 -152h-26z" />
    <glyph glyph-name="uni0312" unicode="&#x312;" horiz-adv-x="0" 
d="M-382 586l87 152h57l-42 -152h-102z" />
    <glyph glyph-name="uni0326" unicode="&#x326;" horiz-adv-x="0" 
d="M-386 -224l42 172h109l-104 -172h-47z" />
    <glyph glyph-name="uni0327" unicode="&#x327;" horiz-adv-x="0" 
d="M-304 -235l-95 45l108 130h70z" />
    <glyph glyph-name="uni0328" unicode="&#x328;" horiz-adv-x="0" 
d="M-390 -97q0 54 60 97h75q-62 -54 -62 -84q0 -32 33 -32q19 0 37 15l17 -66q-29 -17 -65 -17q-43 0 -69 23.5t-26 63.5z" />
    <glyph glyph-name="uni0335" unicode="&#x335;" horiz-adv-x="0" 
d="M-451 316v68h282v-68h-282z" />
    <glyph glyph-name="uni0336" unicode="&#x336;" horiz-adv-x="0" 
d="M-590 313v74h560v-74h-560z" />
    <glyph glyph-name="uni0337" unicode="&#x337;" horiz-adv-x="0" 
d="M-419 263l-35 63l253 140l36 -63z" />
    <glyph glyph-name="uni0338" unicode="&#x338;" horiz-adv-x="0" 
d="M-496 -44l-59 44l431 548l59 -44z" />
    <glyph glyph-name="uni037E" unicode="&#x37e;" 
d="M200 -103l58 210h117l-116 -210h-59zM248 416q0 27 17.5 44.5t44.5 17.5t44.5 -17.5t17.5 -44.5t-17.5 -44.5t-44.5 -17.5t-44.5 17.5t-17.5 44.5z" />
    <glyph glyph-name="tonos" unicode="&#x384;" 
d="M216 560l43 143h121l-96 -143h-68z" />
    <glyph glyph-name="dieresistonos" unicode="&#x385;" 
d="M241 560l43 143h108l-92 -143h-59zM116 631q0 24 16.5 40.5t39.5 16.5q25 0 41 -16.5t16 -40.5t-16 -40t-41 -16q-23 0 -39.5 16t-16.5 40zM391 631q0 24 16.5 40.5t39.5 16.5q25 0 41 -16.5t16 -40.5t-16 -40t-41 -16q-23 0 -39.5 16t-16.5 40z" />
    <glyph glyph-name="Alphatonos" unicode="&#x386;" 
d="M15 556l67 144h121l-122 -144h-66zM19 0l249 700h84l249 -700h-91l-63 187h-274l-63 -187h-91zM202 271h216l-108 315z" />
    <glyph glyph-name="anoteleia" unicode="&#x387;" 
d="M248 351q0 27 17.5 44.5t44.5 17.5t44.5 -17.5t17.5 -44.5t-17.5 -44.5t-44.5 -17.5t-44.5 17.5t-17.5 44.5z" />
    <glyph glyph-name="Epsilontonos" unicode="&#x388;" 
d="M6 556l67 144h121l-122 -144h-66zM221 0v700h368v-84h-280v-201h230v-84h-230v-247h290v-84h-378z" />
    <glyph glyph-name="Etatonos" unicode="&#x389;" 
d="M-21 556l67 144h121l-122 -144h-66zM191 0v700h88v-286h218v286h88v-700h-88v330h-218v-330h-88z" />
    <glyph glyph-name="Iotatonos" unicode="&#x38a;" 
d="M16 556l67 144h121l-122 -144h-66zM237 0v76h139v548h-139v76h366v-76h-139v-548h139v-76h-366z" />
    <glyph glyph-name="Omicrontonos" unicode="&#x38c;" 
d="M117 350q0 170 68 264t174 94t174 -94t68 -264t-68 -264t-174 -94t-174 94t-68 264zM0 556l67 144h121l-122 -144h-66zM510 350q0 136 -41 205t-110 69t-110 -69t-41 -205t41 -205t110 -69t110 69t41 205z" />
    <glyph glyph-name="Upsilontonos" unicode="&#x38e;" 
d="M-25 556l67 144h121l-122 -144h-66zM346 0v276l-165 424h97l112 -326l112 326h97l-165 -424v-276h-88z" />
    <glyph glyph-name="Omegatonos" unicode="&#x38f;" 
d="M88 0v78h134q-54 58 -93 150q-38 93 -38 180q0 139 71.5 219.5t187.5 80.5t187 -80.5t71 -219.5q0 -88 -39 -180q-37 -91 -92 -150h134v-78h-233v78q70 64 105.5 149.5t35.5 176.5q0 108 -48 165.5t-121 57.5q-74 0 -121.5 -57.5t-47.5 -165.5q0 -91 35.5 -176.5
t104.5 -149.5v-78h-233zM-10 556l67 144h121l-122 -144h-66z" />
    <glyph glyph-name="iotadieresistonos" unicode="&#x390;" 
d="M88 0v74h174v356h-154v74h238v-430h186v-74h-444zM271 560l43 143h108l-92 -143h-59zM146 631q0 24 16.5 40.5t39.5 16.5q25 0 41 -16.5t16 -40.5t-16 -40t-41 -16q-23 0 -39.5 16t-16.5 40zM421 631q0 24 16.5 40.5t39.5 16.5q25 0 41 -16.5t16 -40.5t-16 -40t-41 -16
q-23 0 -39.5 16t-16.5 40z" />
    <glyph glyph-name="Alpha" unicode="&#x391;" 
d="M19 0l249 700h84l249 -700h-91l-63 187h-274l-63 -187h-91zM202 271h216l-108 315z" />
    <glyph glyph-name="Beta" unicode="&#x392;" 
d="M96 0v700h246q94 0 146.5 -47t52.5 -133q0 -44 -22 -81t-58 -56q53 -21 84 -67t31 -108q0 -97 -58 -152.5t-160 -55.5h-262zM184 415h156q52 0 81 26t29 74q0 49 -29.5 75t-80.5 26h-156v-201zM184 84h161q71 0 105.5 30t34.5 94q0 123 -140 123h-161v-247z" />
    <glyph glyph-name="Gamma" unicode="&#x393;" 
d="M118 0v700h427v-84h-339v-616h-88z" />
    <glyph glyph-name="uni0394" unicode="&#x394;" 
d="M352 700l249 -700h-582l249 700h84zM139 84h342l-171 502z" />
    <glyph glyph-name="Epsilon" unicode="&#x395;" 
d="M91 0v700h444v-84h-356v-201h306v-84h-306v-247h366v-84h-454z" />
    <glyph glyph-name="Zeta" unicode="&#x396;" 
d="M73 0v42l343 574h-329v84h456v-42l-343 -574h354v-84h-481z" />
    <glyph glyph-name="Eta" unicode="&#x397;" 
d="M68 0v700h88v-286h308v286h88v-700h-88v330h-308v-330h-88z" />
    <glyph glyph-name="Theta" unicode="&#x398;" 
d="M38 350q0 170 75.5 264t196.5 94t196.5 -94t75.5 -264t-75.5 -264t-196.5 -94t-196.5 94t-75.5 264zM491 350q0 137 -47.5 205.5t-133.5 68.5t-133.5 -68.5t-47.5 -205.5t47.5 -205.5t133.5 -68.5t133.5 68.5t47.5 205.5zM185 312v76h249v-76h-249z" />
    <glyph glyph-name="Iota" unicode="&#x399;" 
d="M97 0v76h169v548h-169v76h426v-76h-169v-548h169v-76h-426z" />
    <glyph glyph-name="Kappa" unicode="&#x39a;" 
d="M63 0v700h88v-281l268 281h115l-302 -315l324 -385h-112l-293 351v-351h-88z" />
    <glyph glyph-name="Lambda" unicode="&#x39b;" 
d="M310 586l-200 -586h-91l249 700h84l249 -700h-91z" />
    <glyph glyph-name="Mu" unicode="&#x39c;" 
d="M67 0v700h94l149 -388l149 388h94v-700h-88v513l-122 -312h-66l-122 312v-513h-88z" />
    <glyph glyph-name="Nu" unicode="&#x39d;" 
d="M71 0v700h96l293 -540v540h88v-700h-96l-293 540v-540h-88z" />
    <glyph glyph-name="Xi" unicode="&#x39e;" 
d="M98 616v84h424v-84h-424zM148 331v84h324v-84h-324zM93 0v84h434v-84h-434z" />
    <glyph glyph-name="Omicron" unicode="&#x39f;" 
d="M38 350q0 170 75.5 264t196.5 94t196.5 -94t75.5 -264t-75.5 -264t-196.5 -94t-196.5 94t-75.5 264zM491 350q0 137 -47.5 205.5t-133.5 68.5t-133.5 -68.5t-47.5 -205.5t47.5 -205.5t133.5 -68.5t133.5 68.5t47.5 205.5z" />
    <glyph glyph-name="Pi" unicode="&#x3a0;" 
d="M68 0v700h484v-700h-88v616h-308v-616h-88z" />
    <glyph glyph-name="Rho" unicode="&#x3a1;" 
d="M99 0v700h265q99 0 153.5 -53t54.5 -147t-54.5 -147t-153.5 -53h-177v-300h-88zM187 384h175q58 0 88.5 29.5t30.5 86.5t-30.5 86.5t-88.5 29.5h-175v-232z" />
    <glyph glyph-name="Sigma" unicode="&#x3a3;" 
d="M95 0v41l206 309l-206 309v41h422v-84h-291l167 -255v-22l-167 -255h299v-84h-430z" />
    <glyph glyph-name="Tau" unicode="&#x3a4;" 
d="M266 0v616h-218v84h524v-84h-218v-616h-88z" />
    <glyph glyph-name="Upsilon" unicode="&#x3a5;" 
d="M266 0v276l-225 424h97l172 -336l172 336h97l-225 -424v-276h-88z" />
    <glyph glyph-name="Phi" unicode="&#x3a6;" 
d="M266 0v73q-104 2 -175.5 78.5t-71.5 198.5t71.5 198.5t175.5 78.5v73h88v-73q96 1 172.5 -79.5t74.5 -197.5q2 -117 -74.5 -197.5t-172.5 -79.5v-73h-88zM266 154v393q-67 0 -111.5 -53.5t-44.5 -143.5t44.5 -142t111.5 -54zM510 350q0 88 -47 142.5t-109 54.5v-393
q62 2 109 55.5t47 140.5z" />
    <glyph glyph-name="Chi" unicode="&#x3a7;" 
d="M39 0l221 376l-190 324h101l139 -238l139 238h101l-190 -324l221 -376h-101l-170 290l-170 -290h-101z" />
    <glyph glyph-name="Psi" unicode="&#x3a8;" 
d="M266 0v186q-101 2 -162 65t-61 174v275h88v-275q0 -72 37.5 -115t97.5 -43v433h88v-433q63 0 99 43t36 115v275h88v-275q0 -111 -61 -174t-162 -65v-186h-88z" />
    <glyph glyph-name="uni03A9" unicode="&#x3a9;" 
d="M50 0v78h134q-54 58 -93 150q-38 93 -38 180q0 139 71.5 219.5t187.5 80.5t187 -80.5t71 -219.5q0 -88 -39 -180q-37 -91 -92 -150h134v-78h-233v78q70 64 105.5 149.5t35.5 176.5q0 108 -48 165.5t-121 57.5q-74 0 -121.5 -57.5t-47.5 -165.5q0 -91 35.5 -176.5
t104.5 -149.5v-78h-233z" />
    <glyph glyph-name="Iotadieresis" unicode="&#x3aa;" 
d="M97 0v76h169v548h-169v76h426v-76h-169v-548h169v-76h-426zM161 839q0 24 16.5 40.5t40.5 16.5t40.5 -16.5t16.5 -40.5t-16.5 -40.5t-40.5 -16.5t-40.5 16.5t-16.5 40.5zM345 839q0 24 16.5 40.5t40.5 16.5t40.5 -16.5t16.5 -40.5t-16.5 -40.5t-40.5 -16.5t-40.5 16.5
t-16.5 40.5z" />
    <glyph glyph-name="Upsilondieresis" unicode="&#x3ab;" 
d="M266 0v276l-225 424h97l172 -336l172 336h97l-225 -424v-276h-88zM161 839q0 24 16.5 40.5t40.5 16.5t40.5 -16.5t16.5 -40.5t-16.5 -40.5t-40.5 -16.5t-40.5 16.5t-16.5 40.5zM345 839q0 24 16.5 40.5t40.5 16.5t40.5 -16.5t16.5 -40.5t-16.5 -40.5t-40.5 -16.5
t-40.5 16.5t-16.5 40.5z" />
    <glyph glyph-name="alphatonos" unicode="&#x3ac;" 
d="M75 252q0 119 61.5 189.5t169.5 70.5q48 0 89 -20t65 -52v64h84v-504h-84v67q-24 -33 -65.5 -54t-88.5 -21q-108 0 -169.5 70.5t-61.5 189.5zM467 252q0 83 -41.5 133.5t-111.5 50.5t-111.5 -50.5t-41.5 -133.5t41.5 -133.5t111.5 -50.5t111.5 50.5t41.5 133.5zM281 560
l43 143h121l-96 -143h-68z" />
    <glyph glyph-name="epsilontonos" unicode="&#x3ad;" 
d="M135 143q0 89 89 124q-69 32 -69 111q0 60 42.5 97t113.5 37q63 0 104.5 -31.5t52.5 -86.5l-72 -17q-17 65 -84 65q-36 0 -58.5 -19t-22.5 -51q0 -35 24 -55t65 -20h27v-64h-27q-49 0 -76 -22t-27 -64q0 -36 26.5 -59t66.5 -23q80 0 99 82l75 -12q-9 -66 -55.5 -104.5
t-118.5 -38.5q-75 0 -125 42.5t-50 108.5zM275 560l43 143h121l-96 -143h-68z" />
    <glyph glyph-name="etatonos" unicode="&#x3ae;" 
d="M106 0v504h84v-93q28 46 74 73.5t97 27.5q76 0 115 -42.5t39 -118.5v-555h-84v537q0 103 -93 103q-63 0 -105.5 -64t-42.5 -169v-203h-84zM309 560l43 143h121l-96 -143h-68z" />
    <glyph glyph-name="iotatonos" unicode="&#x3af;" 
d="M88 0v74h174v356h-154v74h238v-430h186v-74h-444zM270 560l43 143h121l-96 -143h-68z" />
    <glyph glyph-name="upsilondieresistonos" unicode="&#x3b0;" 
d="M106 212v292h84v-292q0 -74 31.5 -110t88.5 -36t88.5 36t31.5 110v292h83v-292q0 -107 -53.5 -163.5t-149.5 -56.5t-150 56.5t-54 163.5zM277 560l43 143h108l-92 -143h-59zM152 631q0 24 16.5 40.5t39.5 16.5q25 0 41 -16.5t16 -40.5t-16 -40t-41 -16q-23 0 -39.5 16
t-16.5 40zM427 631q0 24 16.5 40.5t39.5 16.5q25 0 41 -16.5t16 -40.5t-16 -40t-41 -16q-23 0 -39.5 16t-16.5 40z" />
    <glyph glyph-name="alpha" unicode="&#x3b1;" 
d="M75 252q0 119 61.5 189.5t169.5 70.5q48 0 89 -20t65 -52v64h84v-504h-84v67q-24 -33 -65.5 -54t-88.5 -21q-108 0 -169.5 70.5t-61.5 189.5zM467 252q0 83 -41.5 133.5t-111.5 50.5t-111.5 -50.5t-41.5 -133.5t41.5 -133.5t111.5 -50.5t111.5 50.5t41.5 133.5z" />
    <glyph glyph-name="beta" unicode="&#x3b2;" 
d="M97 -204v703q0 97 55 153t140 56q84 0 135 -48.5t51 -127.5q0 -51 -27.5 -90t-68.5 -51q61 -16 100.5 -65t39.5 -122q0 -97 -57.5 -154.5t-148.5 -57.5q-44 0 -82 17.5t-55 44.5v-258h-82zM439 203q0 68 -42 105t-113 37h-33v74h32q53 0 84 29.5t31 80.5q0 47 -30 76
t-76 29q-53 0 -83 -31.5t-30 -95.5v-298q0 -68 34.5 -105.5t95.5 -37.5q64 0 97 36.5t33 100.5z" />
    <glyph glyph-name="gamma" unicode="&#x3b3;" 
d="M268 -204v213l-174 495h85l131 -389l131 389h84l-175 -495v-213h-82z" />
    <glyph glyph-name="delta" unicode="&#x3b4;" 
d="M68 252q0 101 61.5 174.5t155.5 80.5l-157 121v72h369v-76h-244l180 -139q120 -93 120 -233q2 -106 -67.5 -184t-175.5 -76q-106 -2 -175 76t-67 184zM467 252q0 77 -43 131.5t-114 54.5q-72 0 -114 -54.5t-42 -131.5t42 -131.5t114 -54.5q71 0 114 54.5t43 131.5z" />
    <glyph glyph-name="epsilon" unicode="&#x3b5;" 
d="M135 143q0 89 89 124q-69 32 -69 111q0 60 42.5 97t113.5 37q63 0 104.5 -31.5t52.5 -86.5l-72 -17q-17 65 -84 65q-36 0 -58.5 -19t-22.5 -51q0 -35 24 -55t65 -20h27v-64h-27q-49 0 -76 -22t-27 -64q0 -36 26.5 -59t66.5 -23q80 0 99 82l75 -12q-9 -66 -55.5 -104.5
t-118.5 -38.5q-75 0 -125 42.5t-50 108.5z" />
    <glyph glyph-name="zeta" unicode="&#x3b6;" 
d="M186 -133l52 59q44 -62 110 -62q40 0 63.5 19t23.5 56q0 36 -25 56.5t-74 20.5h-45q-86 0 -139 48.5t-53 134.5q0 55 24.5 103.5t79.5 107.5l199 214h-278v76h388v-66l-246 -267q-44 -47 -62.5 -84.5t-18.5 -79.5q0 -111 122 -111h42q78 0 125 -42t47 -109
q0 -65 -47 -109t-126 -44q-108 0 -162 79z" />
    <glyph glyph-name="eta" unicode="&#x3b7;" 
d="M106 0v504h84v-93q28 46 74 73.5t97 27.5q76 0 115 -42.5t39 -118.5v-555h-84v537q0 103 -93 103q-63 0 -105.5 -64t-42.5 -169v-203h-84z" />
    <glyph glyph-name="theta" unicode="&#x3b8;" 
d="M582 350q0 -170 -75.5 -264t-196.5 -94t-196.5 94t-75.5 264t75.5 264t196.5 94t196.5 -94t75.5 -264zM130 387h360q-6 119 -53 178t-127 59t-127 -59t-53 -178zM490 313h-360q6 -119 53 -178t127 -59t127 59t53 178z" />
    <glyph glyph-name="iota" unicode="&#x3b9;" 
d="M88 0v74h174v356h-154v74h238v-430h186v-74h-444z" />
    <glyph glyph-name="kappa" unicode="&#x3ba;" 
d="M94 0v504h84v-211l215 211h110l-235 -231l258 -273h-110l-238 253v-253h-84z" />
    <glyph glyph-name="lambda" unicode="&#x3bb;" 
d="M276 470l-98 238h84l299 -708h-91l-149 369l-169 -369h-94z" />
    <glyph glyph-name="uni03BC" unicode="&#x3bc;" 
d="M105 -204v708h84v-333q0 -103 93 -103q63 0 105.5 64t42.5 169v203h84v-504h-84v93q-28 -46 -74 -73.5t-97 -27.5q-40 0 -70 12v-208h-84z" />
    <glyph glyph-name="nu" unicode="&#x3bd;" 
d="M268 0l-211 504h91l162 -404l162 404h91l-211 -504h-84z" />
    <glyph glyph-name="xi" unicode="&#x3be;" 
d="M190 -165l48 74q40 -37 97 -37q40 0 63 18t23 51q0 35 -24 55t-71 20h-27q-83 0 -140 54t-57 142q0 64 30 107t80 63q-90 44 -90 144q0 76 56 129t145 53q78 0 130 -41t64 -117l-78 -18q-20 102 -117 102q-49 0 -79 -28.5t-30 -76.5q0 -49 31 -76.5t88 -27.5h69v-84h-69
q-63 0 -101 -32t-38 -91q0 -56 34.5 -87t90.5 -31h15q85 0 132 -40t47 -112q0 -73 -48.5 -116.5t-131.5 -43.5q-89 0 -142 47z" />
    <glyph glyph-name="omicron" unicode="&#x3bf;" 
d="M62 252q0 108 69 184t179 76t179 -76t69 -184t-69 -184t-179 -76t-179 76t-69 184zM472 252q0 77 -44.5 130.5t-117.5 53.5t-117.5 -53.5t-44.5 -130.5t44.5 -130.5t117.5 -53.5t117.5 53.5t44.5 130.5z" />
    <glyph glyph-name="pi" unicode="&#x3c0;" 
d="M122 0v428h-88v76h552v-76h-88v-428h-84v428h-208v-428h-84z" />
    <glyph glyph-name="rho" unicode="&#x3c1;" 
d="M76 -204v453q0 115 60 189t178 74q108 0 169.5 -70.5t61.5 -189.5t-61.5 -189.5t-169.5 -70.5q-48 0 -89 20t-65 52v-268h-84zM459 252q0 83 -41.5 133.5t-111.5 50.5t-111.5 -50.5t-41.5 -133.5t41.5 -133.5t111.5 -50.5t111.5 50.5t41.5 133.5z" />
    <glyph glyph-name="uni03C2" unicode="&#x3c2;" 
d="M507 -64q0 -66 -48.5 -107t-126.5 -41q-92 0 -145 47l44 67q43 -38 101 -38q90 0 90 67q0 75 -83 75h-16q-101 0 -167.5 69t-66.5 177q0 109 62 184.5t168 75.5q159 0 212 -141l-74 -29q-42 94 -138 94q-67 0 -105.5 -50t-38.5 -130q0 -82 46.5 -128t119.5 -46h20
q66 0 106 -38.5t40 -107.5z" />
    <glyph glyph-name="sigma" unicode="&#x3c3;" 
d="M569 504v-76h-83q61 -74 61 -176q0 -108 -69 -184t-179 -76t-179 76t-69 184t69 184t179 76q29 0 66 -8h204zM461 252q0 77 -44.5 130.5t-117.5 53.5t-117.5 -53.5t-44.5 -130.5t44.5 -130.5t117.5 -53.5t117.5 53.5t44.5 130.5z" />
    <glyph glyph-name="tau" unicode="&#x3c4;" 
d="M268 0v428h-160v76h404v-76h-160v-428h-84z" />
    <glyph glyph-name="upsilon" unicode="&#x3c5;" 
d="M106 212v292h84v-292q0 -74 31.5 -110t88.5 -36t88.5 36t31.5 110v292h83v-292q0 -107 -53.5 -163.5t-149.5 -56.5t-150 56.5t-54 163.5z" />
    <glyph glyph-name="phi" unicode="&#x3c6;" 
d="M269 -204v196q-105 0 -170.5 74t-65.5 186q0 109 64 182.5t172 77.5v105h82v-105q108 -4 172 -77.5t64 -182.5q0 -112 -65.5 -186t-170.5 -74v-196h-82zM269 66v372q-72 -3 -111 -52t-39 -134q0 -86 39.5 -134.5t110.5 -51.5zM501 252q0 86 -39.5 134.5t-110.5 51.5v-372
q72 3 111 52t39 134z" />
    <glyph glyph-name="chi" unicode="&#x3c7;" 
d="M81 0l183 267l-164 237h99l111 -167l111 167h99l-164 -237l183 -267h-95l-134 198l-134 -198h-95z" />
    <glyph glyph-name="psi" unicode="&#x3c8;" 
d="M268 -204v196q-108 0 -167 62t-59 175v275h84v-277q0 -79 38 -120t104 -41v551h84v-551q66 0 103.5 41t37.5 120v277h85v-275q0 -113 -59 -175t-167 -62v-196h-84z" />
    <glyph glyph-name="omega" unicode="&#x3c9;" 
d="M22 215q0 152 106 297l70 -50q-90 -118 -90 -247q0 -78 20 -113.5t62 -35.5q38 0 58.5 34t20.5 94v180h82v-180q0 -60 20.5 -94t59.5 -34q81 0 81 149q0 129 -90 247l70 50q106 -145 106 -297q0 -111 -41.5 -167t-116.5 -56q-48 0 -78 24t-52 75q-22 -51 -52 -75t-78 -24
q-75 0 -116.5 56t-41.5 167z" />
    <glyph glyph-name="iotadieresis" unicode="&#x3ca;" 
d="M88 0v74h174v356h-154v74h238v-430h186v-74h-444zM155 643q0 24 16.5 40.5t40.5 16.5t40.5 -16.5t16.5 -40.5t-16.5 -40.5t-40.5 -16.5t-40.5 16.5t-16.5 40.5zM339 643q0 24 16.5 40.5t40.5 16.5t40.5 -16.5t16.5 -40.5t-16.5 -40.5t-40.5 -16.5t-40.5 16.5t-16.5 40.5z
" />
    <glyph glyph-name="upsilondieresis" unicode="&#x3cb;" 
d="M106 212v292h84v-292q0 -74 31.5 -110t88.5 -36t88.5 36t31.5 110v292h83v-292q0 -107 -53.5 -163.5t-149.5 -56.5t-150 56.5t-54 163.5zM161 643q0 24 16.5 40.5t40.5 16.5t40.5 -16.5t16.5 -40.5t-16.5 -40.5t-40.5 -16.5t-40.5 16.5t-16.5 40.5zM345 643
q0 24 16.5 40.5t40.5 16.5t40.5 -16.5t16.5 -40.5t-16.5 -40.5t-40.5 -16.5t-40.5 16.5t-16.5 40.5z" />
    <glyph glyph-name="omicrontonos" unicode="&#x3cc;" 
d="M62 252q0 108 69 184t179 76t179 -76t69 -184t-69 -184t-179 -76t-179 76t-69 184zM472 252q0 77 -44.5 130.5t-117.5 53.5t-117.5 -53.5t-44.5 -130.5t44.5 -130.5t117.5 -53.5t117.5 53.5t44.5 130.5zM276 560l43 143h121l-96 -143h-68z" />
    <glyph glyph-name="upsilontonos" unicode="&#x3cd;" 
d="M106 212v292h84v-292q0 -74 31.5 -110t88.5 -36t88.5 36t31.5 110v292h83v-292q0 -107 -53.5 -163.5t-149.5 -56.5t-150 56.5t-54 163.5zM276 560l43 143h121l-96 -143h-68z" />
    <glyph glyph-name="omegatonos" unicode="&#x3ce;" 
d="M22 215q0 152 106 297l70 -50q-90 -118 -90 -247q0 -78 20 -113.5t62 -35.5q38 0 58.5 34t20.5 94v180h82v-180q0 -60 20.5 -94t59.5 -34q81 0 81 149q0 129 -90 247l70 50q106 -145 106 -297q0 -111 -41.5 -167t-116.5 -56q-48 0 -78 24t-52 75q-22 -51 -52 -75t-78 -24
q-75 0 -116.5 56t-41.5 167zM276 560l43 143h121l-96 -143h-68z" />
    <glyph glyph-name="uni0400" unicode="&#x400;" 
d="M91 0v700h444v-84h-356v-201h306v-84h-306v-247h366v-84h-454zM287 756l-122 144h121l67 -144h-66z" />
    <glyph glyph-name="uni0401" unicode="&#x401;" 
d="M91 0v700h444v-84h-356v-201h306v-84h-306v-247h366v-84h-454zM171 839q0 24 16.5 40.5t40.5 16.5t40.5 -16.5t16.5 -40.5t-16.5 -40.5t-40.5 -16.5t-40.5 16.5t-16.5 40.5zM355 839q0 24 16.5 40.5t40.5 16.5t40.5 -16.5t16.5 -40.5t-16.5 -40.5t-40.5 -16.5t-40.5 16.5
t-16.5 40.5z" />
    <glyph glyph-name="uni0402" unicode="&#x402;" 
d="M376 -8l-28 80q72 24 103.5 66t31.5 116v76q0 106 -84 106q-60 0 -100 -61t-40 -164v-211h-88v616h-137v84h418v-84h-193v-200q24 43 68.5 69.5t94.5 26.5q72 0 108.5 -40t36.5 -111v-129q0 -100 -56 -161q-57 -60 -135 -79z" />
    <glyph glyph-name="uni0403" unicode="&#x403;" 
d="M118 0v700h427v-84h-339v-616h-88zM307 756l67 144h121l-122 -144h-66z" />
    <glyph glyph-name="uni0404" unicode="&#x404;" 
d="M51 350q0 172 76 265t201 93q97 0 163.5 -57t90.5 -156l-81 -25q-47 154 -173 154q-173 0 -186 -232h283v-84h-283q13 -232 186 -232q126 0 173 154l81 -25q-24 -99 -90.5 -156t-163.5 -57q-125 0 -201 93t-76 265z" />
    <glyph glyph-name="uni0405" unicode="&#x405;" 
d="M59 200l82 32q41 -156 179 -156q57 0 97 31q42 32 42 82q0 52 -34 79t-120 49q-91 23 -146 69q-56 47 -56 135q0 80 58.5 133.5t155.5 53.5q81 0 137.5 -41.5t81.5 -108.5l-77 -39q-46 105 -142 105q-58 0 -92 -28.5t-34 -79.5q0 -34 20 -57q19 -20 49.5 -33t92.5 -29
q100 -27 146 -67.5t48 -128.5q0 -98 -65 -153.5t-162 -55.5q-103 0 -172 54t-89 154z" />
    <glyph glyph-name="uni0406" unicode="&#x406;" 
d="M97 0v76h169v548h-169v76h426v-76h-169v-548h169v-76h-426z" />
    <glyph glyph-name="uni0407" unicode="&#x407;" 
d="M97 0v76h169v548h-169v76h426v-76h-169v-548h169v-76h-426zM161 839q0 24 16.5 40.5t40.5 16.5t40.5 -16.5t16.5 -40.5t-16.5 -40.5t-40.5 -16.5t-40.5 16.5t-16.5 40.5zM345 839q0 24 16.5 40.5t40.5 16.5t40.5 -16.5t16.5 -40.5t-16.5 -40.5t-40.5 -16.5t-40.5 16.5
t-16.5 40.5z" />
    <glyph glyph-name="uni0408" unicode="&#x408;" 
d="M73 182l89 19q12 -60 45 -92.5t84 -32.5q61 0 94 36.5t33 109.5v478h88v-476q0 -113 -60 -173q-61 -59 -155 -59q-91 0 -148 54t-70 136z" />
    <glyph glyph-name="uni0409" unicode="&#x409;" 
d="M18 0v84q43 0 59 19t18 68l26 529h267v-285h28q85 0 135.5 -55t50.5 -152q0 -98 -50.5 -153t-135.5 -55h-116v616h-97l-25 -448q-5 -87 -38.5 -127.5t-121.5 -40.5zM388 84h21q102 0 102 124q0 123 -102 123h-21v-247z" />
    <glyph glyph-name="uni040A" unicode="&#x40a;" 
d="M42 0v700h88v-286h144v286h88v-286h35q85 0 135.5 -54.5t50.5 -151.5q0 -98 -50.5 -153t-135.5 -55h-123v330h-144v-330h-88zM362 84h28q102 0 102 124q0 122 -102 122h-28v-246z" />
    <glyph glyph-name="uni040B" unicode="&#x40b;" 
d="M171 0v616h-137v84h418v-84h-193v-200q24 43 68.5 69.5t94.5 26.5q72 0 108.5 -40t36.5 -111v-361h-84v330q0 106 -84 106q-60 0 -100 -61t-40 -164v-211h-88z" />
    <glyph glyph-name="uni040C" unicode="&#x40c;" 
d="M63 0v700h88v-281l268 281h115l-302 -315l324 -385h-112l-293 351v-351h-88zM242 756l67 144h121l-122 -144h-66z" />
    <glyph glyph-name="uni040D" unicode="&#x40d;" 
d="M549 0h-88v540l-293 -540h-96v700h88v-540l293 540h96v-700zM277 756l-122 144h121l67 -144h-66z" />
    <glyph glyph-name="uni040E" unicode="&#x40e;" 
d="M180 0l96 226l-232 474h94l182 -371l160 371h91l-307 -700h-84zM197 896h67q0 -20 12.5 -32.5t31.5 -12.5q20 0 32 12.5t12 32.5h67q0 -46 -31.5 -77.5t-79.5 -31.5q-47 0 -79 31.5t-32 77.5z" />
    <glyph glyph-name="uni040F" unicode="&#x40f;" 
d="M266 -124v124h-184v700h88v-616h280v616h88v-700h-184v-124h-88z" />
    <glyph glyph-name="uni0410" unicode="&#x410;" 
d="M19 0l249 700h84l249 -700h-91l-63 187h-274l-63 -187h-91zM202 271h216l-108 315z" />
    <glyph glyph-name="uni0411" unicode="&#x411;" 
d="M96 0v700h409v-84h-321v-201h174q102 0 160 -55t58 -152t-58 -152.5t-160 -55.5h-262zM184 84h161q71 0 105.5 30t34.5 94q0 123 -140 123h-161v-247z" />
    <glyph glyph-name="uni0412" unicode="&#x412;" 
d="M96 0v700h246q94 0 146.5 -47t52.5 -133q0 -44 -22 -81t-58 -56q53 -21 84 -67t31 -108q0 -97 -58 -152.5t-160 -55.5h-262zM184 415h156q52 0 81 26t29 74q0 49 -29.5 75t-80.5 26h-156v-201zM184 84h161q71 0 105.5 30t34.5 94q0 123 -140 123h-161v-247z" />
    <glyph glyph-name="uni0413" unicode="&#x413;" 
d="M118 0v700h427v-84h-339v-616h-88z" />
    <glyph glyph-name="uni0414" unicode="&#x414;" 
d="M67 -124l-12 208h34l77 616h379v-616h44l-12 -208h-84v124h-342v-124h-84zM181 84h276v532h-212z" />
    <glyph glyph-name="uni0415" unicode="&#x415;" 
d="M91 0v700h444v-84h-356v-201h306v-84h-306v-247h366v-84h-454z" />
    <glyph glyph-name="uni0416" unicode="&#x416;" 
d="M5 0l190 385l-167 315h95l143 -281v281h88v-281l143 281h95l-167 -315l190 -385h-91l-170 351v-351h-88v351l-170 -351h-91z" />
    <glyph glyph-name="uni0417" unicode="&#x417;" 
d="M83 171l81 25q12 -60 48.5 -92t93.5 -32q61 0 99 37t38 99q0 64 -47 97t-108 33h-30v70h26q59 0 94 29.5t35 86.5q0 47 -30.5 76.5t-80.5 29.5q-96 0 -117 -100l-80 17q12 74 66.5 117.5t130.5 43.5q94 0 145.5 -49.5t51.5 -129.5q0 -96 -94 -151q55 -18 89.5 -63
t34.5 -104q0 -95 -62.5 -157t-160.5 -62q-81 0 -144 48q-63 49 -79 131z" />
    <glyph glyph-name="uni0418" unicode="&#x418;" 
d="M549 0h-88v540l-293 -540h-96v700h88v-540l293 540h96v-700z" />
    <glyph glyph-name="uni0419" unicode="&#x419;" 
d="M549 0h-88v540l-293 -540h-96v700h88v-540l293 540h96v-700zM198 896h67q0 -20 12.5 -32.5t31.5 -12.5q20 0 32 12.5t12 32.5h67q0 -46 -31.5 -77.5t-79.5 -31.5q-47 0 -79 31.5t-32 77.5z" />
    <glyph glyph-name="uni041A" unicode="&#x41a;" 
d="M63 0v700h88v-281l268 281h115l-302 -315l324 -385h-112l-293 351v-351h-88z" />
    <glyph glyph-name="uni041B" unicode="&#x41b;" 
d="M18 0v84q52 0 75.5 23t27.5 82l31 511h406v-700h-88v616h-236l-26 -430q-5 -94 -51 -140t-139 -46z" />
    <glyph glyph-name="uni041C" unicode="&#x41c;" 
d="M67 0v700h94l149 -388l149 388h94v-700h-88v513l-122 -312h-66l-122 312v-513h-88z" />
    <glyph glyph-name="uni041D" unicode="&#x41d;" 
d="M68 0v700h88v-286h308v286h88v-700h-88v330h-308v-330h-88z" />
    <glyph glyph-name="uni041E" unicode="&#x41e;" 
d="M38 350q0 170 75.5 264t196.5 94t196.5 -94t75.5 -264t-75.5 -264t-196.5 -94t-196.5 94t-75.5 264zM491 350q0 137 -47.5 205.5t-133.5 68.5t-133.5 -68.5t-47.5 -205.5t47.5 -205.5t133.5 -68.5t133.5 68.5t47.5 205.5z" />
    <glyph glyph-name="uni041F" unicode="&#x41f;" 
d="M68 0v700h484v-700h-88v616h-308v-616h-88z" />
    <glyph glyph-name="uni0420" unicode="&#x420;" 
d="M99 0v700h265q99 0 153.5 -53t54.5 -147t-54.5 -147t-153.5 -53h-177v-300h-88zM187 384h175q58 0 88.5 29.5t30.5 86.5t-30.5 86.5t-88.5 29.5h-175v-232z" />
    <glyph glyph-name="uni0421" unicode="&#x421;" 
d="M49 350q0 171 81 264.5t208 93.5q96 0 161 -57t90 -156l-83 -25q-24 79 -64 116.5t-104 37.5q-95 0 -146.5 -69t-51.5 -205t51.5 -205t146.5 -69q64 0 104 37.5t64 116.5l83 -25q-25 -99 -90 -156t-161 -57q-127 0 -208 93.5t-81 264.5z" />
    <glyph glyph-name="uni0422" unicode="&#x422;" 
d="M266 0v616h-218v84h524v-84h-218v-616h-88z" />
    <glyph glyph-name="uni0423" unicode="&#x423;" 
d="M180 0l96 226l-232 474h94l182 -371l160 371h91l-307 -700h-84z" />
    <glyph glyph-name="uni0424" unicode="&#x424;" 
d="M268 0v72q-95 8 -164.5 84t-69.5 194t69.5 194t164.5 84v72h84v-72q95 -8 164.5 -84t69.5 -194t-69.5 -194t-164.5 -84v-72h-84zM268 148v404q-61 -5 -104.5 -58.5t-43.5 -143.5t43.5 -143.5t104.5 -58.5zM500 350q0 90 -43.5 143.5t-104.5 58.5v-404q61 5 104.5 58.5
t43.5 143.5z" />
    <glyph glyph-name="uni0425" unicode="&#x425;" 
d="M39 0l221 376l-190 324h101l139 -238l139 238h101l-190 -324l221 -376h-101l-170 290l-170 -290h-101z" />
    <glyph glyph-name="uni0426" unicode="&#x426;" 
d="M463 -124v124h-403v700h88v-616h279v616h88v-616h44l-12 -208h-84z" />
    <glyph glyph-name="uni0427" unicode="&#x427;" 
d="M449 0v326q-76 -55 -167 -55q-95 0 -149 57.5t-54 168.5v203h88v-188q0 -157 134 -157q83 0 148 72v273h88v-700h-88z" />
    <glyph glyph-name="uni0428" unicode="&#x428;" 
d="M60 0v700h88v-616h118v616h88v-616h118v616h88v-700h-500z" />
    <glyph glyph-name="uni0429" unicode="&#x429;" 
d="M508 -124v124h-448v700h88v-616h118v616h88v-616h118v616h88v-616h44l-12 -208h-84z" />
    <glyph glyph-name="uni042A" unicode="&#x42a;" 
d="M129 0v616h-119v84h207v-285h141q102 0 160 -55t58 -152t-58 -152.5t-160 -55.5h-229zM217 84h128q71 0 105.5 30t34.5 94q0 123 -140 123h-128v-247z" />
    <glyph glyph-name="uni042B" unicode="&#x42b;" 
d="M59 0v700h88v-285h65q102 0 160 -55t58 -152t-58 -152.5t-160 -55.5h-153zM484 0v700h84v-700h-84zM147 84h52q71 0 105.5 30t34.5 94q0 123 -140 123h-52v-247z" />
    <glyph glyph-name="uni042C" unicode="&#x42c;" 
d="M59 0v700h88v-285h164q102 0 160 -55t58 -152t-58 -152.5t-160 -55.5h-252zM147 84h151q71 0 105.5 30t34.5 94q0 123 -140 123h-151v-247z" />
    <glyph glyph-name="uni042D" unicode="&#x42d;" 
d="M51 205l81 25q47 -154 173 -154q173 0 186 232h-283v84h283q-13 232 -186 232q-126 0 -173 -154l-81 25q24 99 90.5 156t163.5 57q125 0 201 -93t76 -265t-76 -265t-201 -93q-97 0 -163.5 57t-90.5 156z" />
    <glyph glyph-name="uni042E" unicode="&#x42e;" 
d="M182 308h-66v-308h-88v700h88v-308h66q7 152 62.5 234t144.5 82q94 0 151 -92t57 -266t-57 -266t-151 -92q-89 0 -144.5 82t-62.5 234zM506 350q0 137 -31 205.5t-86 68.5t-86 -68.5t-31 -205.5t31 -205.5t86 -68.5t86 68.5t31 205.5z" />
    <glyph glyph-name="uni042F" unicode="&#x42f;" 
d="M20 0l209 336q-146 31 -146 179q0 90 54.5 137.5t151.5 47.5h245v-700h-88v330h-117l-205 -330h-104zM287 414h159v202h-159q-113 0 -113 -101t113 -101z" />
    <glyph glyph-name="uni0430" unicode="&#x430;" 
d="M103 145q0 81 59.5 123t168.5 42h102v22q0 53 -31 78.5t-85 25.5q-42 0 -74.5 -23.5t-44.5 -62.5l-74 20q17 65 70 103.5t123 38.5q95 0 147.5 -48.5t52.5 -145.5v-318h-68l-12 71q-24 -35 -73 -57t-105 -22q-69 0 -112.5 40.5t-43.5 112.5zM433 222v16h-110
q-63 0 -98.5 -25t-35.5 -68q0 -36 22.5 -56.5t60.5 -20.5q61 0 111 40t50 114z" />
    <glyph glyph-name="uni0431" unicode="&#x431;" 
d="M60 310q0 390 254 390h62q35 0 50 10t23 37h55q0 -61 -31 -92t-86 -31h-77q-69 0 -112.5 -51t-47.5 -134q70 73 179 73q97 2 164 -76.5t65 -183.5q0 -110 -69 -185t-180 -75q-116 0 -182.5 83.5t-66.5 234.5zM472 252q0 78 -44 131t-119 53t-119 -53t-44 -131t44 -131
t119 -53t119 53t44 131z" />
    <glyph glyph-name="uni0432" unicode="&#x432;" 
d="M90 0v504h218q65 0 107.5 -34.5t42.5 -90.5q0 -67 -56 -103q35 -16 56 -47.5t21 -74.5q0 -66 -47.5 -110t-119.5 -44h-222zM174 306h130q33 0 52.5 16t19.5 45t-19.5 45t-52.5 16h-130v-122zM174 76h130q89 0 89 77t-89 77h-130v-154z" />
    <glyph glyph-name="uni0433" unicode="&#x433;" 
d="M130 0v504h346v-76h-262v-428h-84z" />
    <glyph glyph-name="uni0434" unicode="&#x434;" 
d="M82 -114l-13 190h34l70 428h337v-428h34l-11 -190h-74v114h-303v-114h-74zM188 76h238v352h-184z" />
    <glyph glyph-name="uni0435" unicode="&#x435;" 
d="M70 252q0 111 66.5 185.5t174.5 74.5q110 0 174.5 -69t64.5 -174v-35h-394q4 -75 46 -120.5t109 -45.5q108 0 162 100l67 -35q-73 -141 -229 -141q-107 0 -174 74t-67 186zM162 310h299q-11 60 -50 93t-100 33q-59 0 -97.5 -33t-51.5 -93z" />
    <glyph glyph-name="uni0436" unicode="&#x436;" 
d="M12 0l174 273l-155 231h99l138 -211v211h84v-211l138 211h99l-155 -231l174 -273h-98l-158 253v-253h-84v253l-158 -253h-98z" />
    <glyph glyph-name="uni0437" unicode="&#x437;" 
d="M132 138l80 9q5 -37 29 -58t61 -21q40 0 63 21.5t23 59.5q0 37 -29 60.5t-82 23.5h-13v62h17q93 0 93 75q0 30 -20.5 50t-54.5 20q-62 0 -82 -63l-71 19q13 54 52 85t100 31q70 0 111 -37t41 -92q0 -77 -67 -113q39 -14 62 -46t23 -73q0 -71 -46.5 -115t-119.5 -44
q-69 0 -116 40.5t-54 105.5z" />
    <glyph glyph-name="uni0438" unicode="&#x438;" 
d="M92 0v504h84v-379l261 379h91v-504h-84v379l-261 -379h-91z" />
    <glyph glyph-name="uni0439" unicode="&#x439;" 
d="M92 0v504h84v-379l261 379h91v-504h-84v379l-261 -379h-91zM198 700h67q0 -20 12.5 -32.5t31.5 -12.5q20 0 32 12.5t12 32.5h67q0 -46 -31.5 -77.5t-79.5 -31.5q-47 0 -79 31.5t-32 77.5z" />
    <glyph glyph-name="uni043A" unicode="&#x43a;" 
d="M94 0v504h84v-211l215 211h110l-235 -231l258 -273h-110l-238 253v-253h-84z" />
    <glyph glyph-name="uni043B" unicode="&#x43b;" 
d="M46 0v76q51 0 74.5 21.5t28.5 70.5l33 336h353v-504h-84v428h-199l-30 -291q-13 -137 -176 -137z" />
    <glyph glyph-name="uni043C" unicode="&#x43c;" 
d="M77 0v504h99l134 -322l134 322h99v-504h-84v333l-125 -287h-48l-125 287v-333h-84z" />
    <glyph glyph-name="uni043D" unicode="&#x43d;" 
d="M106 0v504h84v-198h240v198h84v-504h-84v230h-240v-230h-84z" />
    <glyph glyph-name="uni043E" unicode="&#x43e;" 
d="M62 252q0 108 69 184t179 76t179 -76t69 -184t-69 -184t-179 -76t-179 76t-69 184zM472 252q0 77 -44.5 130.5t-117.5 53.5t-117.5 -53.5t-44.5 -130.5t44.5 -130.5t117.5 -53.5t117.5 53.5t44.5 130.5z" />
    <glyph glyph-name="uni043F" unicode="&#x43f;" 
d="M106 0v504h408v-504h-84v428h-240v-428h-84z" />
    <glyph glyph-name="uni0440" unicode="&#x440;" 
d="M106 -204v708h84v-67q24 33 65.5 54t88.5 21q108 0 169.5 -70.5t61.5 -189.5t-61.5 -189.5t-169.5 -70.5q-48 0 -89 20t-65 52v-268h-84zM489 252q0 83 -41.5 133.5t-111.5 50.5t-111.5 -50.5t-41.5 -133.5t41.5 -133.5t111.5 -50.5t111.5 50.5t41.5 133.5z" />
    <glyph glyph-name="uni0441" unicode="&#x441;" 
d="M87 252q0 109 66 184.5t175 75.5q153 0 213 -139l-73 -30q-40 93 -140 93q-72 0 -113.5 -51t-41.5 -133t41.5 -133t113.5 -51q100 0 140 93l73 -30q-60 -139 -213 -139q-109 0 -175 75.5t-66 184.5z" />
    <glyph glyph-name="uni0442" unicode="&#x442;" 
d="M268 0v428h-177v76h438v-76h-177v-428h-84z" />
    <glyph glyph-name="uni0443" unicode="&#x443;" 
d="M178 -204l98 238l-218 470h94l169 -369l149 369h91l-299 -708h-84z" />
    <glyph glyph-name="uni0444" unicode="&#x444;" 
d="M268 -204v196q-105 0 -170.5 76t-65.5 184t65.5 184t170.5 76v188h84v-188q105 0 170.5 -76t65.5 -184t-65.5 -184t-170.5 -76v-196h-84zM267 68h1v368h-1q-69 -1 -110 -54q-39 -52 -39 -130q0 -77 39 -131q41 -53 110 -53zM352 68h1q70 1 109 54q40 52 40 130t-40 130
q-39 53 -109 54h-1v-368z" />
    <glyph glyph-name="uni0445" unicode="&#x445;" 
d="M81 0l183 267l-164 237h99l111 -167l111 167h99l-164 -237l183 -267h-95l-134 198l-134 -198h-95z" />
    <glyph glyph-name="uni0446" unicode="&#x446;" 
d="M463 -114v114h-357v504h84v-428h240v428h84v-428h34l-11 -190h-74z" />
    <glyph glyph-name="uni0447" unicode="&#x447;" 
d="M421 0v232q-69 -78 -161 -78q-71 0 -111 42t-40 125v183h84v-176q0 -48 22.5 -73t62.5 -25q43 0 76.5 24.5t66.5 77.5v172h84v-504h-84z" />
    <glyph glyph-name="uni0448" unicode="&#x448;" 
d="M50 0v504h84v-428h134v428h84v-428h134v428h84v-504h-520z" />
    <glyph glyph-name="uni0449" unicode="&#x449;" 
d="M507 -114v114h-469v504h84v-428h134v428h84v-428h134v428h84v-428h34l-11 -190h-74z" />
    <glyph glyph-name="uni044A" unicode="&#x44a;" 
d="M151 0v428h-99v76h183v-192h119q80 0 124 -41.5t44 -114.5t-44 -114.5t-124 -41.5h-203zM235 76h98q55 0 80 19t25 61t-25 61t-80 19h-98v-160z" />
    <glyph glyph-name="uni044B" unicode="&#x44b;" 
d="M54 0v504h84v-192h104q80 0 124 -41.5t44 -114.5t-44 -114.5t-124 -41.5h-188zM469 0v504h84v-504h-84zM138 76h83q55 0 80 19t25 61t-25 61t-80 19h-83v-160z" />
    <glyph glyph-name="uni044C" unicode="&#x44c;" 
d="M91 0v504h84v-192h129q80 0 124 -41.5t44 -114.5t-44 -114.5t-124 -41.5h-213zM175 76h108q55 0 80 19t25 61t-25 61t-80 19h-108v-160z" />
    <glyph glyph-name="uni044D" unicode="&#x44d;" 
d="M102 124l70 37q43 -93 146 -93q64 0 101.5 39t46.5 107h-239v76h239q-9 68 -46.5 107t-101.5 39q-103 0 -146 -93l-70 37q69 132 216 132q108 0 172 -76t64 -184t-64 -184t-172 -76q-147 0 -216 132z" />
    <glyph glyph-name="uni044E" unicode="&#x44e;" 
d="M219 214h-63v-214h-84v504h84v-214h63q9 104 56 163t129 59q88 0 137 -70.5t49 -189.5t-49 -189.5t-137 -70.5q-82 0 -129 59t-56 163zM504 252q0 88 -26 136t-74 48t-74 -48t-26 -136t26 -136t74 -48t74 48t26 136z" />
    <glyph glyph-name="uni044F" unicode="&#x44f;" 
d="M107 0l138 232q-99 31 -99 133q0 63 44 101t116 38h192v-504h-84v226h-93l-129 -226h-85zM303 302h111v126h-111q-78 0 -78 -63t78 -63z" />
    <glyph glyph-name="uni0450" unicode="&#x450;" 
d="M70 252q0 111 66.5 185.5t174.5 74.5q110 0 174.5 -69t64.5 -174v-35h-394q4 -75 46 -120.5t109 -45.5q108 0 162 100l67 -35q-73 -141 -229 -141q-107 0 -174 74t-67 186zM162 310h299q-11 60 -50 93t-100 33q-59 0 -97.5 -33t-51.5 -93zM287 560l-122 144h121l67 -144
h-66z" />
    <glyph glyph-name="uni0451" unicode="&#x451;" 
d="M70 252q0 111 66.5 185.5t174.5 74.5q110 0 174.5 -69t64.5 -174v-35h-394q4 -75 46 -120.5t109 -45.5q108 0 162 100l67 -35q-73 -141 -229 -141q-107 0 -174 74t-67 186zM162 310h299q-11 60 -50 93t-100 33q-59 0 -97.5 -33t-51.5 -93zM155 643q0 24 16.5 40.5
t40.5 16.5t40.5 -16.5t16.5 -40.5t-16.5 -40.5t-40.5 -16.5t-40.5 16.5t-16.5 40.5zM339 643q0 24 16.5 40.5t40.5 16.5t40.5 -16.5t16.5 -40.5t-16.5 -40.5t-40.5 -16.5t-40.5 16.5t-16.5 40.5z" />
    <glyph glyph-name="uni0452" unicode="&#x452;" 
d="M338 -212l-28 80q72 24 103.5 66t31.5 116v280q0 106 -93 106q-64 0 -112 -62.5t-48 -162.5v-211h-84v572h-71v68h71v68h84v-68h138v-68h-138v-161q31 46 79.5 73.5t103.5 27.5q77 0 115.5 -42.5t38.5 -121.5v-320q0 -101 -56 -160q-56 -61 -135 -80z" />
    <glyph glyph-name="uni0453" unicode="&#x453;" 
d="M130 0v504h346v-76h-262v-428h-84zM268 560l67 144h121l-122 -144h-66z" />
    <glyph glyph-name="uni0454" unicode="&#x454;" 
d="M66 252q0 108 64 184t172 76q147 0 216 -132l-70 -37q-43 93 -146 93q-64 0 -101.5 -39t-46.5 -107h239v-76h-239q9 -68 46.5 -107t101.5 -39q103 0 146 93l70 -37q-69 -132 -216 -132q-108 0 -172 76t-64 184z" />
    <glyph glyph-name="uni0455" unicode="&#x455;" 
d="M103 138l80 30q13 -48 50 -74t89 -26q49 0 78 18.5t29 53.5t-26.5 50t-103.5 30q-81 15 -122 48t-41 98t50 105.5t122 40.5q129 0 187 -112l-69 -44q-44 80 -121 80q-38 0 -62.5 -17.5t-24.5 -49.5q0 -30 27.5 -48t89.5 -30q94 -19 137.5 -50.5t43.5 -93.5
q0 -69 -56.5 -112t-137.5 -43q-79 0 -137.5 38.5t-81.5 107.5z" />
    <glyph glyph-name="uni0456" unicode="&#x456;" 
d="M229 638q0 29 20 49.5t49 20.5t49 -20.5t20 -49.5t-20 -48.5t-49 -19.5t-49 20t-20 48zM88 0v74h174v356h-154v74h238v-430h186v-74h-444z" />
    <glyph glyph-name="uni0457" unicode="&#x457;" 
d="M88 0v74h174v356h-154v74h238v-430h186v-74h-444zM155 643q0 24 16.5 40.5t40.5 16.5t40.5 -16.5t16.5 -40.5t-16.5 -40.5t-40.5 -16.5t-40.5 16.5t-16.5 40.5zM339 643q0 24 16.5 40.5t40.5 16.5t40.5 -16.5t16.5 -40.5t-16.5 -40.5t-40.5 -16.5t-40.5 16.5t-16.5 40.5z
" />
    <glyph glyph-name="uni0458" unicode="&#x458;" 
d="M275 638q0 29 20 49.5t49 20.5t49 -20.5t20 -49.5t-20 -48.5t-49 -19.5t-49 20t-20 48zM201 -212l-28 80q72 24 103.5 66t31.5 116v380h-198v74h282v-476q0 -101 -56 -160q-56 -61 -135 -80z" />
    <glyph glyph-name="uni0459" unicode="&#x459;" 
d="M24 0v76q42 0 61 20t21 61l20 347h247v-192h48q80 0 125 -42t45 -114t-45 -114t-125 -42h-132v428h-91l-19 -302q-7 -126 -155 -126zM373 76h29q55 0 80 19t25 61t-25 61t-80 19h-29v-160z" />
    <glyph glyph-name="uni045A" unicode="&#x45a;" 
d="M30 0v504h84v-192h150v192h84v-192h93q74 0 115.5 -41.5t41.5 -114.5t-41.5 -114.5t-115.5 -41.5h-177v236h-150v-236h-84zM348 76h72q49 0 71.5 19t22.5 61q0 41 -22.5 60.5t-71.5 19.5h-72v-160z" />
    <glyph glyph-name="uni045B" unicode="&#x45b;" 
d="M108 0v572h-71v68h71v68h84v-68h138v-68h-138v-161q31 46 79.5 73.5t103.5 27.5q77 0 115.5 -42.5t38.5 -121.5v-348h-84v330q0 106 -93 106q-64 0 -112 -62.5t-48 -162.5v-211h-84z" />
    <glyph glyph-name="uni045C" unicode="&#x45c;" 
d="M94 0v504h84v-211l215 211h110l-235 -231l258 -273h-110l-238 253v-253h-84zM254 560l67 144h121l-122 -144h-66z" />
    <glyph glyph-name="uni045D" unicode="&#x45d;" 
d="M92 0v504h84v-379l261 379h91v-504h-84v379l-261 -379h-91zM293 560l-122 144h121l67 -144h-66z" />
    <glyph glyph-name="uni045E" unicode="&#x45e;" 
d="M178 -204l98 238l-218 470h94l169 -369l149 369h91l-299 -708h-84zM209 700h67q0 -20 12.5 -32.5t31.5 -12.5q20 0 32 12.5t12 32.5h67q0 -46 -31.5 -77.5t-79.5 -31.5q-47 0 -79 31.5t-32 77.5z" />
    <glyph glyph-name="uni045F" unicode="&#x45f;" 
d="M271 -114v114h-165v504h84v-428h240v428h84v-504h-165v-114h-78z" />
    <glyph glyph-name="uni0462" unicode="&#x462;" 
d="M588 208q0 -97 -58 -152.5t-160 -55.5h-252v515h-109v84h109v101h88v-101h113v-84h-113v-100h164q102 0 160 -55t58 -152zM497 208q0 123 -140 123h-151v-247h151q71 0 105.5 30t34.5 94z" />
    <glyph glyph-name="uni0463" unicode="&#x463;" 
d="M550 156q0 -73 -45 -114.5t-125 -41.5h-187v475h-126v68h126v157h84v-157h126v-68h-126v-163h103q80 0 125 -41.5t45 -114.5zM462 156q0 43 -26 62.5t-82 19.5h-77v-164h77q57 0 82.5 19.5t25.5 62.5z" />
    <glyph glyph-name="uni0472" unicode="&#x472;" 
d="M582 350q0 -170 -75.5 -264t-196.5 -94t-196.5 94t-75.5 264t75.5 264t196.5 94t196.5 -94t75.5 -264zM130 387h360q-6 119 -53 178t-127 59t-127 -59t-53 -178zM490 313h-360q6 -119 53 -178t127 -59t127 59t53 178z" />
    <glyph glyph-name="uni0473" unicode="&#x473;" 
d="M558 252q0 -108 -69 -184t-179 -76t-179 76t-69 184t69 184t179 76t179 -76t69 -184zM151 289h318q-10 65 -52.5 106t-106.5 41t-106.5 -41t-52.5 -106zM469 215h-318q10 -65 52.5 -106t106.5 -41t106.5 41t52.5 106z" />
    <glyph glyph-name="uni0474" unicode="&#x474;" 
d="M589 708v-83q-42 0 -63.5 -18.5t-36.5 -70.5l-156 -536h-90l-212 700h93l164 -575l111 414q24 92 64.5 130.5t125.5 38.5z" />
    <glyph glyph-name="uni0475" unicode="&#x475;" 
d="M243 0l-170 504h84l127 -398l89 276q24 75 61 102.5t113 27.5v-74q-47 0 -66 -16t-33 -59l-122 -363h-83z" />
    <glyph glyph-name="uni0490" unicode="&#x490;" 
d="M457 771h88v-155h-339v-616h-88v700h339v71z" />
    <glyph glyph-name="uni0491" unicode="&#x491;" 
d="M130 0v504h262v74h84v-150h-262v-428h-84z" />
    <glyph glyph-name="Wgrave" unicode="&#x1e80;" 
d="M98 0l-67 700h91l42 -570l106 427h80l106 -427l42 570h91l-67 -700h-109l-103 411l-103 -411h-109zM277 756l-122 144h121l67 -144h-66z" />
    <glyph glyph-name="wgrave" unicode="&#x1e81;" 
d="M137 0l-110 504h86l69 -373l86 323h84l86 -323l69 373h86l-110 -504h-76l-97 354l-97 -354h-76zM293 560l-122 144h121l67 -144h-66z" />
    <glyph glyph-name="Wacute" unicode="&#x1e82;" 
d="M98 0l-67 700h91l42 -570l106 427h80l106 -427l42 570h91l-67 -700h-109l-103 411l-103 -411h-109zM277 756l67 144h121l-122 -144h-66z" />
    <glyph glyph-name="wacute" unicode="&#x1e83;" 
d="M137 0l-110 504h86l69 -373l86 323h84l86 -323l69 373h86l-110 -504h-76l-97 354l-97 -354h-76zM275 560l67 144h121l-122 -144h-66z" />
    <glyph glyph-name="Wdieresis" unicode="&#x1e84;" 
d="M98 0l-67 700h91l42 -570l106 427h80l106 -427l42 570h91l-67 -700h-109l-103 411l-103 -411h-109zM161 839q0 24 16.5 40.5t40.5 16.5t40.5 -16.5t16.5 -40.5t-16.5 -40.5t-40.5 -16.5t-40.5 16.5t-16.5 40.5zM345 839q0 24 16.5 40.5t40.5 16.5t40.5 -16.5t16.5 -40.5
t-16.5 -40.5t-40.5 -16.5t-40.5 16.5t-16.5 40.5z" />
    <glyph glyph-name="wdieresis" unicode="&#x1e85;" 
d="M137 0l-110 504h86l69 -373l86 323h84l86 -323l69 373h86l-110 -504h-76l-97 354l-97 -354h-76zM161 643q0 24 16.5 40.5t40.5 16.5t40.5 -16.5t16.5 -40.5t-16.5 -40.5t-40.5 -16.5t-40.5 16.5t-16.5 40.5zM345 643q0 24 16.5 40.5t40.5 16.5t40.5 -16.5t16.5 -40.5
t-16.5 -40.5t-40.5 -16.5t-40.5 16.5t-16.5 40.5z" />
    <glyph glyph-name="uni1E9E" unicode="&#x1e9e;" 
d="M236 11v78q55 -23 106 -23t83 39t32 99q0 131 -149 131h-47v53l137 228h-139q-51 0 -75 -27.5t-24 -92.5v-496h-88v504q0 94 48.5 145t138.5 51h254v-48l-151 -250q78 -5 132 -56t54 -140q0 -92 -57 -153t-147 -61q-51 0 -108 19z" />
    <glyph glyph-name="Ygrave" unicode="&#x1ef2;" 
d="M266 0v276l-225 424h97l172 -336l172 336h97l-225 -424v-276h-88zM277 756l-122 144h121l67 -144h-66z" />
    <glyph glyph-name="ygrave" unicode="&#x1ef3;" 
d="M178 -204l98 238l-218 470h94l169 -369l149 369h91l-299 -708h-84zM304 560l-122 144h121l67 -144h-66z" />
    <glyph glyph-name="endash" unicode="&#x2013;" 
d="M105 280v74h409v-74h-409z" />
    <glyph glyph-name="emdash" unicode="&#x2014;" 
d="M65 280v74h490v-74h-490z" />
    <glyph glyph-name="quoteleft" unicode="&#x2018;" 
d="M357 708h64l-95 -248h-126z" />
    <glyph glyph-name="quoteright" unicode="&#x2019;" 
d="M199 460l95 248h126l-157 -248h-64z" />
    <glyph glyph-name="quotesinglbase" unicode="&#x201a;" 
d="M210 -103l58 210h117l-116 -210h-59z" />
    <glyph glyph-name="quotedblleft" unicode="&#x201c;" 
d="M529 708l-95 -248h-126l157 248h64zM313 708l-95 -248h-126l157 248h64z" />
    <glyph glyph-name="quotedblright" unicode="&#x201d;" 
d="M101 460l95 248h126l-157 -248h-64zM297 460l95 248h126l-157 -248h-64z" />
    <glyph glyph-name="quotedblbase" unicode="&#x201e;" 
d="M81 -160l95 248h126l-157 -248h-64zM277 -160l95 248h126l-157 -248h-64z" />
    <glyph glyph-name="dagger" unicode="&#x2020;" 
d="M270 -50v474h-180v80h180v246h80v-246h180v-80h-180v-474h-80z" />
    <glyph glyph-name="daggerdbl" unicode="&#x2021;" 
d="M270 -50v246h-180v80h180v148h-180v80h180v246h80v-246h180v-80h-180v-148h180v-80h-180v-246h-80z" />
    <glyph glyph-name="bullet" unicode="&#x2022;" 
d="M227 330q0 35 24.5 59t58.5 24q35 0 59 -24t24 -59q0 -34 -24 -58.5t-59 -24.5q-34 0 -58.5 24.5t-24.5 58.5z" />
    <glyph glyph-name="ellipsis" unicode="&#x2026;" 
d="M247 59q0 27 17.5 44.5t44.5 17.5t44.5 -17.5t17.5 -44.5t-17.5 -44.5t-44.5 -17.5t-44.5 17.5t-17.5 44.5zM448 59q0 27 17.5 44.5t44.5 17.5t44.5 -17.5t17.5 -44.5t-17.5 -44.5t-44.5 -17.5t-44.5 17.5t-17.5 44.5zM47 59q0 27 17.5 44.5t44.5 17.5t44.5 -17.5
t17.5 -44.5t-17.5 -44.5t-44.5 -17.5t-44.5 17.5t-17.5 44.5z" />
    <glyph glyph-name="perthousand" unicode="&#x2030;" 
d="M37 575q0 55 38.5 94t94.5 39q57 0 95 -39q38 -38 38 -94q0 -55 -38 -95q-38 -38 -95 -38q-56 0 -94.5 39t-38.5 94zM241 575q0 33 -19.5 53.5t-51.5 20.5q-33 0 -52.5 -20.5t-19.5 -53.5t19.5 -53.5t52.5 -20.5q32 0 51.5 20.5t19.5 53.5zM79 214l-34 48l507 353l34 -48
zM130 125q0 56 38 94q38 39 94 39q62 0 103 -47q41 47 103 47q56 0 94 -39q38 -38 38 -94q0 -55 -38 -95q-38 -38 -94 -38q-62 0 -103 47q-41 -47 -103 -47q-56 0 -94 38q-38 40 -38 95zM334 125q0 32 -20.5 53t-51.5 21q-33 0 -52 -20.5t-19 -53.5t19 -53.5t52 -20.5
q31 0 51.5 21t20.5 53zM539 125q0 33 -19 53.5t-52 20.5q-31 0 -51.5 -21t-20.5 -53t20.5 -53t51.5 -21q33 0 52 20.5t19 53.5z" />
    <glyph glyph-name="guilsinglleft" unicode="&#x2039;" 
d="M452 80l-294 199v62l294 199v-90l-209 -140l209 -140v-90z" />
    <glyph glyph-name="guilsinglright" unicode="&#x203a;" 
d="M168 80v90l209 140l-209 140v90l294 -199v-62z" />
    <glyph glyph-name="fraction" unicode="&#x2044;" 
d="M98 122l-39 44l470 401l39 -44z" />
    <glyph glyph-name="uni2048" unicode="&#x2048;" 
d="M94 326q0 78 85 120l92 47q43 22 43 71q0 35 -23 54t-63 19q-38 0 -65.5 -24.5t-39.5 -67.5l-78 13q12 69 60.5 109.5t122.5 40.5q77 0 123.5 -40t46.5 -109q0 -81 -77 -119l-101 -49q-49 -24 -49 -69q0 -24 14 -37.5t38 -13.5q46 0 72 59l65 -23q-36 -105 -134 -105
q-60 0 -96 33.5t-36 90.5zM160 63q0 29 19 48.5t47 19.5q29 0 48.5 -19.5t19.5 -48.5q0 -28 -19.5 -47t-48.5 -19q-28 0 -47 19t-19 47zM469 200l-24 500h114l-24 -500h-66zM432 65q0 30 20 50.5t50 20.5t50 -20.5t20 -50.5q0 -29 -20 -48.5t-50 -19.5t-50 19.5t-20 48.5z
" />
    <glyph glyph-name="uni2049" unicode="&#x2049;" 
d="M265 326q0 78 85 120l92 47q43 22 43 71q0 35 -23 54t-63 19q-38 0 -65.5 -24.5t-39.5 -67.5l-78 13q12 69 60.5 109.5t122.5 40.5q77 0 123.5 -40t46.5 -109q0 -81 -77 -119l-101 -49q-49 -24 -49 -69q0 -24 14 -37.5t38 -13.5q46 0 72 59l65 -23q-36 -105 -134 -105
q-60 0 -96 33.5t-36 90.5zM331 63q0 29 19 48.5t47 19.5q29 0 48.5 -19.5t19.5 -48.5q0 -28 -19.5 -47t-48.5 -19q-28 0 -47 19t-19 47zM89 200l-24 500h114l-24 -500h-66zM52 65q0 30 20 50.5t50 20.5t50 -20.5t20 -50.5q0 -29 -20 -48.5t-50 -19.5t-50 19.5t-20 48.5z" />
    <glyph glyph-name="uni2070" unicode="&#x2070;" 
d="M158 500q0 94 40.5 149t111.5 55t111.5 -55t40.5 -149t-40.5 -149t-111.5 -55t-111.5 55t-40.5 149zM240 412l103 223q-15 9 -33 9q-38 0 -61 -37t-23 -107q0 -52 14 -88zM394 500q0 57 -15 90l-103 -225q15 -9 34 -9q38 0 61 37t23 107z" />
    <glyph glyph-name="uni2074" unicode="&#x2074;" 
d="M340 300v77h-170v27l162 296h72v-265h49v-58h-49v-77h-64zM250 435h90v171z" />
    <glyph glyph-name="uni2075" unicode="&#x2075;" 
d="M181 408l63 9q4 -28 21.5 -43.5t43.5 -15.5q30 0 48 19.5t18 53.5q0 37 -17 57.5t-49 20.5q-45 0 -71 -37l-48 10l21 218h209v-60h-157l-12 -100q23 25 66 25q58 0 92 -36t34 -98q0 -63 -36 -99t-98 -36q-53 0 -87.5 29.5t-40.5 82.5z" />
    <glyph glyph-name="uni2076" unicode="&#x2076;" 
d="M176 428q0 42 24 85l109 191h69l-90 -150q7 5 29 5q60 0 94 -35.5t34 -95.5t-36 -96t-98 -36q-61 0 -98 37t-37 95zM377 428q0 33 -18 52t-48 19t-48.5 -19t-18.5 -52q0 -32 18.5 -52t48.5 -20t48 20t18 52z" />
    <glyph glyph-name="uni2077" unicode="&#x2077;" 
d="M213 300l141 340h-158v60h239v-26l-153 -374h-69z" />
    <glyph glyph-name="uni2078" unicode="&#x2078;" 
d="M181 418q0 72 58 98q-45 30 -45 83q0 47 32 76t84 29t84 -29t32 -76q0 -53 -45 -83q58 -26 58 -98q0 -55 -37 -88.5t-92 -33.5t-92 33.5t-37 88.5zM364 596q0 23 -15 38.5t-39 15.5t-39 -15.5t-15 -38.5t15 -38.5t39 -15.5t39 15.5t15 38.5zM371 419q0 29 -16.5 46
t-44.5 17t-44.5 -17t-16.5 -46q0 -28 16.5 -45.5t44.5 -17.5t44.5 17.5t16.5 45.5z" />
    <glyph glyph-name="uni2079" unicode="&#x2079;" 
d="M243 296l90 150q-7 -5 -29 -5q-60 0 -94 35.5t-34 95.5t36 96t98 36t98.5 -37t36.5 -95q0 -42 -24 -85l-109 -191h-69zM377 572q0 32 -18.5 52t-48.5 20t-48 -20t-18 -52q0 -33 18 -52t48 -19t48.5 19t18.5 52z" />
    <glyph glyph-name="uni2080" unicode="&#x2080;" 
d="M158 -4q0 94 40.5 149t111.5 55t111.5 -55t40.5 -149t-40.5 -149t-111.5 -55t-111.5 55t-40.5 149zM240 -92l103 223q-15 9 -33 9q-38 0 -61 -37t-23 -107q0 -52 14 -88zM394 -4q0 57 -15 90l-103 -225q15 -9 34 -9q38 0 61 37t23 107z" />
    <glyph glyph-name="uni2081" unicode="&#x2081;" 
d="M200 -204v56h83v255l-75 -34v71l113 52h24v-344h83v-56h-228z" />
    <glyph glyph-name="uni2082" unicode="&#x2082;" 
d="M181 -204v25l147 180q35 41 35 86q0 24 -14 37.5t-40 13.5q-24 0 -40 -18t-20 -50l-62 17q5 51 38 82t84 31q57 0 89 -30.5t32 -81.5q0 -58 -38 -105l-103 -127h149v-60h-257z" />
    <glyph glyph-name="uni2083" unicode="&#x2083;" 
d="M180 -88l63 9q4 -32 23 -50.5t47 -18.5q29 0 46.5 19t17.5 53q0 36 -17 55.5t-48 19.5q-19 0 -35 -10l-31 40l81 109h-127v58h221v-22l-95 -129q4 1 16 1q46 0 73.5 -32.5t27.5 -89.5q0 -59 -34 -95.5t-96 -36.5q-57 0 -92.5 31.5t-40.5 88.5z" />
    <glyph glyph-name="uni2084" unicode="&#x2084;" 
d="M340 -204v77h-170v27l162 296h72v-265h49v-58h-49v-77h-64zM250 -69h90v171z" />
    <glyph glyph-name="uni2085" unicode="&#x2085;" 
d="M181 -96l63 9q4 -28 21.5 -43.5t43.5 -15.5q30 0 48 19.5t18 53.5q0 37 -17 57.5t-49 20.5q-45 0 -71 -37l-48 10l21 218h209v-60h-157l-12 -100q23 25 66 25q58 0 92 -36t34 -98q0 -63 -36 -99t-98 -36q-53 0 -87.5 29.5t-40.5 82.5z" />
    <glyph glyph-name="uni2086" unicode="&#x2086;" 
d="M176 -76q0 42 24 85l109 191h69l-90 -150q7 5 29 5q60 0 94 -35.5t34 -95.5t-36 -96t-98 -36q-61 0 -98 37t-37 95zM377 -76q0 33 -18 52t-48 19t-48.5 -19t-18.5 -52q0 -32 18.5 -52t48.5 -20t48 20t18 52z" />
    <glyph glyph-name="uni2087" unicode="&#x2087;" 
d="M213 -204l141 340h-158v60h239v-26l-153 -374h-69z" />
    <glyph glyph-name="uni2088" unicode="&#x2088;" 
d="M181 -86q0 72 58 98q-45 30 -45 83q0 47 32 76t84 29t84 -29t32 -76q0 -53 -45 -83q58 -26 58 -98q0 -55 -37 -88.5t-92 -33.5t-92 33.5t-37 88.5zM364 92q0 23 -15 38.5t-39 15.5t-39 -15.5t-15 -38.5t15 -38.5t39 -15.5t39 15.5t15 38.5zM371 -85q0 29 -16.5 46
t-44.5 17t-44.5 -17t-16.5 -46q0 -28 16.5 -45.5t44.5 -17.5t44.5 17.5t16.5 45.5z" />
    <glyph glyph-name="uni2089" unicode="&#x2089;" 
d="M243 -204l90 150q-7 -5 -29 -5q-60 0 -94 35.5t-34 95.5t36 96t98 36t98.5 -37t36.5 -95q0 -41 -24 -85l-109 -191h-69zM377 72q0 32 -18.5 52t-48.5 20t-48 -20t-18 -52q0 -33 18 -52t48 -19t48.5 19t18.5 52z" />
    <glyph glyph-name="franc" unicode="&#x20a3;" 
d="M528 616h-349v-209h300v-84h-300v-149h163v-84h-163v-90h-88v90h-60v84h60v526h437v-84z" />
    <glyph glyph-name="uni20A8" unicode="&#x20a8;" 
d="M248 338l124 -338h-78l-123 331h-24v-331h-78v486h-32v63h32v151h137q71 0 117.5 -40t56.5 -111h67v-63h-67q-7 -57 -42 -95t-90 -53zM147 623v-74h154q-14 74 -94 74h-60zM147 409h60q81 0 95 77h-155v-77zM595 111q0 -52 -32 -85t-83 -33q-95 0 -115 108l54 29
q13 -72 63 -72q19 0 32 12.5t13 32.5q0 21 -14.5 37.5t-48.5 33.5q-86 45 -86 114q0 46 30 74t74 28q72 0 105 -65l-47 -41q-20 44 -56 44q-18 0 -30 -11t-12 -27q0 -21 13.5 -34.5t49.5 -31.5q46 -23 68 -49t22 -64z" />
    <glyph glyph-name="dong" unicode="&#x20ab;" 
d="M509 654v-58h-45v-414h-78v43q-38 -50 -104 -50q-77 0 -121.5 52.5t-44.5 140.5q0 86 44.5 139t120.5 53q68 0 105 -48v84h-94v58h94v46h78v-46h45zM390 368q0 56 -26 89.5t-71 33.5t-71.5 -33.5t-26.5 -89.5q0 -57 26.5 -90.5t71.5 -33.5t71 33.5t26 90.5zM509 124v-58
h-398v58h398z" />
    <glyph glyph-name="Euro" unicode="&#x20ac;" 
d="M128 233h-85l34 74h42l-1 43l1 43h-76l34 74h51q22 115 85.5 178t160.5 63q140 0 202 -128l-74 -40q-43 88 -128 88q-61 0 -101.5 -41t-56.5 -120h253l-34 -74h-228l-1 -43l1 -43h262l-34 -74h-219q16 -79 56.5 -120t101.5 -41q85 0 128 88l74 -40q-62 -128 -202 -128
q-97 0 -160.5 63t-85.5 178z" />
    <glyph glyph-name="uni20AD" unicode="&#x20ad;" 
d="M586 422v-84h-304l284 -338h-112l-282 338h-11v-338h-88v338h-54v84h54v278h88v-278h3l265 278h115l-267 -278h309z" />
    <glyph glyph-name="uni20B1" unicode="&#x20b1;" 
d="M590 586v-71h-39v-15v-15h39v-71h-54q-44 -114 -193 -114h-177v-300h-88v414h-48v71h48v30h-48v71h48v114h265q149 0 193 -114h54zM166 616v-30h264q-30 30 -89 30h-175zM459 515h-293v-30h293q1 3 1 15t-1 15zM430 414h-264v-30h175q59 0 89 30z" />
    <glyph glyph-name="uni20B4" unicode="&#x20b4;" 
d="M453 447h74v-73h-434v73h256q57 39 57 95q0 36 -25.5 60.5t-66.5 24.5q-76 0 -108 -78l-71 45q50 114 179 114q76 0 126 -45.5t50 -116.5q0 -59 -37 -99zM93 253v73h434v-73h-249q-57 -39 -57 -95q0 -36 25.5 -60.5t65.5 -24.5q74 0 109 78l70 -45q-50 -114 -179 -114
q-76 0 -126 45.5t-50 116.5q0 58 37 99h-80z" />
    <glyph glyph-name="uni20B8" unicode="&#x20b8;" 
d="M72 598v76h476v-76h-476zM268 0v428h-196v76h476v-76h-196v-428h-84z" />
    <glyph glyph-name="uni20BA" unicode="&#x20ba;" 
d="M471 253h90v-53q0 -94 -55 -147t-153 -53h-193v257l-127 -32v73l127 32v63l-127 -32v73l127 32v234h87v-211l178 45v-73l-178 -45v-63l178 45v-73l-178 -45v-199h105q119 0 119 119v53z" />
    <glyph glyph-name="uni20BD" unicode="&#x20bd;" 
d="M580 500q0 -94 -54.5 -147t-153.5 -53h-177v-94h155v-84h-155v-122h-88v122h-67v84h67v94h-67v84h67v316h265q99 0 153.5 -53t54.5 -147zM489 500q0 57 -30.5 86.5t-88.5 29.5h-175v-232h175q58 0 88.5 29.5t30.5 86.5z" />
    <glyph glyph-name="uni20BF" unicode="&#x20bf;" 
d="M356 1v-71h-76v70h-49v-70h-76v70h-85v700h85v70h76v-70h49v70h76v-72q76 -10 117.5 -56t41.5 -122q0 -44 -22 -81t-58 -56q53 -21 84 -67t31 -108q0 -91 -51 -145.5t-143 -61.5zM314 616h-156v-201h156q52 0 81 26t29 74q0 49 -29.5 75t-80.5 26zM459 208
q0 123 -140 123h-161v-247h161q71 0 105.5 30t34.5 94z" />
    <glyph glyph-name="uni2113" unicode="&#x2113;" 
d="M434 156l70 -27q-22 -70 -59.5 -103.5t-101.5 -33.5q-145 0 -145 152v150l-48 -31l-40 63q45 27 88 57v192q0 60 31.5 96.5t91.5 36.5q57 0 85 -33t28 -85q0 -59 -35 -118.5t-94 -102.5l-19 -14v-219q0 -70 62 -70q33 0 52.5 20t33.5 70zM286 582v-129q64 64 64 136
q0 44 -32 44t-32 -51z" />
    <glyph glyph-name="uni2116" unicode="&#x2116;" 
d="M362 580q0 57 33.5 92.5t89.5 35.5t89.5 -35.5t33.5 -92.5t-33.5 -92.5t-89.5 -35.5t-89.5 35.5t-33.5 92.5zM25 0v700h86l140 -475v475h78v-700h-86l-140 475v-475h-78zM532 580q0 26 -13 41t-34 15t-34 -15t-13 -41t13 -41t34 -15t34 15t13 41zM371 316v80h228v-80
h-228z" />
    <glyph glyph-name="uni2117" unicode="&#x2117;" 
d="M581 350q0 -118 -77.5 -198t-193.5 -80t-193.5 80t-77.5 198t77.5 198t193.5 80t193.5 -80t77.5 -198zM517 350q0 93 -58 155t-149 62t-149 -62t-58 -155t58 -155t149 -62t149 62t58 155zM413 413q0 -39 -25 -62t-69 -23h-54v-126h-52v296h106q44 0 69 -23t25 -62z
M359 413q0 36 -43 36h-51v-72h51q43 0 43 36z" />
    <glyph glyph-name="uni2120" unicode="&#x2120;" 
d="M20 402l49 33q18 -85 76 -85q22 0 36 15.5t14 41.5q0 31 -15 48.5t-53 36.5q-86 45 -86 116q0 45 28.5 72.5t73.5 27.5q74 0 101 -67l-47 -32q-15 43 -54 43q-19 0 -31.5 -11.5t-12.5 -30.5q0 -25 17 -40.5t64 -41.5q41 -22 59 -48t18 -67q0 -56 -30.5 -88.5t-81.5 -32.5
q-50 0 -84 30.5t-41 79.5zM301 300v400h59l88 -259l88 259h60v-400h-54v256l-75 -219h-37l-75 219v-256h-54z" />
    <glyph glyph-name="trademark" unicode="&#x2122;" 
d="M105 300v342h-93v58h248v-58h-93v-342h-62zM306 300v400h67l77 -207l77 207h69v-400h-64v279l-63 -164h-38l-63 164v-279h-62z" />
    <glyph glyph-name="uni2126" unicode="&#x2126;" 
d="M50 0v78h134q-54 58 -93 150q-38 93 -38 180q0 139 71.5 219.5t187.5 80.5t187 -80.5t71 -219.5q0 -88 -39 -180q-37 -91 -92 -150h134v-78h-233v78q70 64 105.5 149.5t35.5 176.5q0 108 -48 165.5t-121 57.5q-74 0 -121.5 -57.5t-47.5 -165.5q0 -91 35.5 -176.5
t104.5 -149.5v-78h-233z" />
    <glyph glyph-name="estimated" unicode="&#x212e;" 
d="M133 350v-155q27 -40 75 -65t102 -25q68 0 123.5 31.5t81.5 86.5h44q-32 -68 -101 -112q-67 -43 -148 -43q-122 0 -199.5 81t-77.5 201q0 119 77.5 201t199.5 82q121 0 199 -79.5t78 -203.5h-454zM133 513v-126h358v123q-26 38 -74.5 62.5t-106.5 24.5q-53 0 -100 -22.5
t-77 -61.5z" />
    <glyph glyph-name="uni2153" unicode="&#x2153;" 
d="M31 366v54h76v199l-69 -32v63l105 50h24v-280h76v-54h-212zM122 102l-41 41l440 439l41 -42zM373 98l58 12q9 -60 58 -60q51 0 51 62q0 26 -13 40.5t-35 14.5q-23 0 -35 -9l-27 36l67 86h-105v54h191v-23l-78 -99q44 0 70.5 -28.5t26.5 -71.5q0 -53 -30.5 -84.5
t-82.5 -31.5q-49 0 -80.5 28t-35.5 74z" />
    <glyph glyph-name="uni2154" unicode="&#x2154;" 
d="M34 366v25l127 151q25 29 25 61q0 20 -12 32.5t-31 12.5q-43 0 -52 -53l-54 15q7 43 35 68.5t71 25.5q50 0 77.5 -26t27.5 -71q0 -52 -37 -96l-73 -89h113v-56h-217zM122 102l-41 41l440 439l41 -42zM373 98l58 12q9 -60 58 -60q51 0 51 62q0 26 -13 40.5t-35 14.5
q-23 0 -35 -9l-27 36l67 86h-105v54h191v-23l-78 -99q44 0 70.5 -28.5t26.5 -71.5q0 -53 -30.5 -84.5t-82.5 -31.5q-49 0 -80.5 28t-35.5 74z" />
    <glyph glyph-name="oneeighth" unicode="&#x215b;" 
d="M31 366v54h76v199l-69 -32v63l105 50h24v-280h76v-54h-212zM137 102l-41 41l440 439l41 -42zM369 98q0 56 49 84q-36 26 -36 69q0 39 28 63t70 24t70 -24t28 -63q0 -42 -36 -69q49 -28 49 -84q0 -46 -31.5 -74t-79.5 -28t-79.5 28t-31.5 74zM522 244q0 18 -12 30t-30 12
t-30 -12t-12 -30t12 -30t30 -12t30 12t12 30zM531 99q0 23 -14.5 37t-36.5 14t-36.5 -14t-14.5 -37t14.5 -36t36.5 -13t36.5 13t14.5 36z" />
    <glyph glyph-name="threeeighths" unicode="&#x215c;" 
d="M46 464l58 12q9 -60 58 -60q51 0 51 62q0 26 -13 40.5t-35 14.5q-23 0 -35 -9l-27 36l67 86h-105v54h191v-23l-78 -99q44 0 70.5 -28.5t26.5 -71.5q0 -53 -30.5 -84.5t-82.5 -31.5q-49 0 -80.5 28t-35.5 74zM115 102l-41 41l440 439l41 -42zM369 98q0 56 49 84
q-36 26 -36 69q0 39 28 63t70 24t70 -24t28 -63q0 -42 -36 -69q49 -28 49 -84q0 -46 -31.5 -74t-79.5 -28t-79.5 28t-31.5 74zM522 244q0 18 -12 30t-30 12t-30 -12t-12 -30t12 -30t30 -12t30 12t12 30zM531 99q0 23 -14.5 37t-36.5 14t-36.5 -14t-14.5 -37t14.5 -36
t36.5 -13t36.5 13t14.5 36z" />
    <glyph glyph-name="fiveeighths" unicode="&#x215d;" 
d="M50 453l53 14q12 -51 56 -51q54 0 54 59q0 27 -14 43t-39 16q-35 0 -56 -28l-46 8l18 186h177v-54h-129l-9 -77q21 19 55 19q49 0 76 -30t27 -86q0 -52 -32.5 -81t-81.5 -29q-44 0 -73.5 24t-35.5 67zM115 102l-41 41l440 439l41 -42zM369 98q0 56 49 84q-36 26 -36 69
q0 39 28 63t70 24t70 -24t28 -63q0 -42 -36 -69q49 -28 49 -84q0 -46 -31.5 -74t-79.5 -28t-79.5 28t-31.5 74zM522 244q0 18 -12 30t-30 12t-30 -12t-12 -30t12 -30t30 -12t30 12t12 30zM531 99q0 23 -14.5 37t-36.5 14t-36.5 -14t-14.5 -37t14.5 -36t36.5 -13t36.5 13
t14.5 36z" />
    <glyph glyph-name="seveneighths" unicode="&#x215e;" 
d="M111 360l124 286h-147v54h219v-23l-135 -317h-61zM92 102l-41 41l440 439l41 -42zM353 98q0 56 49 84q-36 26 -36 69q0 39 28 63t70 24t70 -24t28 -63q0 -42 -36 -69q49 -28 49 -84q0 -46 -31.5 -74t-79.5 -28t-79.5 28t-31.5 74zM506 244q0 18 -12 30t-30 12t-30 -12
t-12 -30t12 -30t30 -12t30 12t12 30zM515 99q0 23 -14.5 37t-36.5 14t-36.5 -14t-14.5 -37t14.5 -36t36.5 -13t36.5 13t14.5 36z" />
    <glyph glyph-name="arrowleft" unicode="&#x2190;" 
d="M275 114l-236 236l236 236l53 -54l-141 -144h384v-76h-384l141 -144z" />
    <glyph glyph-name="arrowup" unicode="&#x2191;" 
d="M272 84v384l-144 -141l-54 53l236 236l236 -236l-54 -53l-144 141v-384h-76z" />
    <glyph glyph-name="arrowright" unicode="&#x2192;" 
d="M340 114l-53 54l141 144h-384v76h384l-141 144l53 54l236 -236z" />
    <glyph glyph-name="arrowdown" unicode="&#x2193;" 
d="M310 84l-236 236l54 53l144 -141v384h76v-384l144 141l54 -53z" />
    <glyph glyph-name="arrowboth" unicode="&#x2194;" 
d="M387 571l221 -221l-221 -221l-53 54l126 129h-301l126 -129l-53 -54l-221 221l221 221l53 -54l-126 -129h301l-126 129z" />
    <glyph glyph-name="arrowupdn" unicode="&#x2195;" 
d="M272 209v384l-144 -141l-54 53l236 236l236 -236l-54 -53l-144 141v-384h-76zM310 -38l-236 236l54 53l144 -141v384h76v-384l144 141l54 -53z" />
    <glyph glyph-name="uni2196" unicode="&#x2196;" 
d="M477 144l-281 281v-202h-77v333h333v-77h-202l281 -281z" />
    <glyph glyph-name="uni2197" unicode="&#x2197;" 
d="M143 144l-54 54l281 281h-202v77h333v-333h-77v202z" />
    <glyph glyph-name="uni2198" unicode="&#x2198;" 
d="M168 144v77h202l-281 281l54 54l281 -281v202h77v-333h-333z" />
    <glyph glyph-name="uni2199" unicode="&#x2199;" 
d="M119 144v333h77v-202l281 281l54 -54l-281 -281h202v-77h-333z" />
    <glyph glyph-name="partialdiff" unicode="&#x2202;" 
d="M73 211q0 128 76 214.5t198 86.5q80 0 116 -50q-20 170 -141 170q-82 0 -118 -84l-78 20q25 65 77 102.5t122 37.5q223 0 223 -351q0 -71 -16.5 -135.5t-49 -117t-87.5 -83t-125 -29.5q-87 0 -142 59.5t-55 159.5zM457 296q0 140 -118 140q-82 0 -131 -68t-49 -159
q0 -65 30 -103t86 -38q83 0 132.5 66t49.5 162z" />
    <glyph glyph-name="uni2206" unicode="&#x2206;" 
d="M61 0v20l210 680h78l210 -680v-20h-498zM156 76h308l-154 505z" />
    <glyph glyph-name="product" unicode="&#x220f;" 
d="M106 0v700h408v-700h-84v624h-240v-624h-84z" />
    <glyph glyph-name="summation" unicode="&#x2211;" 
d="M82 0v20l224 330l-224 330v20h456v-76h-320l174 -264v-20l-174 -264h320v-76h-456z" />
    <glyph glyph-name="minus" unicode="&#x2212;" 
d="M90 280v74h440v-74h-440z" />
    <glyph glyph-name="uni2215" unicode="&#x2215;" 
d="M64 -50l406 800h86l-406 -800h-86z" />
    <glyph glyph-name="uni2219" unicode="&#x2219;" 
d="M217 303q0 39 27 66.5t66 27.5q38 0 65.5 -27.5t27.5 -66.5t-27.5 -66.5t-65.5 -27.5q-39 0 -66 27.5t-27 66.5z" />
    <glyph glyph-name="radical" unicode="&#x221a;" 
d="M304 0l-101 313h-104v76h153l86 -270l183 589h80l-231 -708h-66z" />
    <glyph glyph-name="infinity" unicode="&#x221e;" 
d="M15 359q0 79 41.5 122t112.5 43q48 0 87.5 -29t53.5 -72q14 43 53.5 72t87.5 29q71 0 112.5 -43t41.5 -122t-41.5 -122t-112.5 -43q-48 0 -87.5 29t-53.5 72q-14 -43 -53.5 -72t-87.5 -29q-71 0 -112.5 43t-41.5 122zM272 359q-10 37 -36.5 63t-56.5 26q-36 0 -57 -23.5
t-21 -65.5t21 -65.5t57 -23.5q30 0 56.5 26t36.5 63zM519 359q0 42 -21 65.5t-57 23.5q-30 0 -56.5 -26t-36.5 -63q10 -37 36.5 -63t56.5 -26q36 0 57 23.5t21 65.5z" />
    <glyph glyph-name="integral" unicode="&#x222b;" 
d="M8 -183l36 74q32 -27 75 -27q73 0 93 95l112 576q18 93 62 133t120 40q63 0 106 -29l-36 -74q-32 27 -75 27q-73 0 -93 -95l-112 -576q-18 -93 -62 -133t-120 -40q-63 0 -106 29z" />
    <glyph glyph-name="approxequal" unicode="&#x2248;" 
d="M307 389q-54 24 -89 24q-56 0 -93 -45l-49 50q22 41 57 65t75 24q43 0 105 -27q52 -23 89 -23q56 0 93 45l49 -51q-22 -42 -56.5 -65t-75.5 -23q-44 0 -105 26zM307 189q-54 24 -89 24q-56 0 -93 -45l-49 50q22 41 57 65t75 24q43 0 105 -27q52 -23 89 -23q56 0 93 45
l49 -51q-22 -42 -56.5 -65t-75.5 -23q-44 0 -105 26z" />
    <glyph glyph-name="notequal" unicode="&#x2260;" 
d="M226 88l-64 37l37 65h-88v74h131l52 92h-183v74h225l59 102l64 -37l-37 -65h88v-74h-131l-52 -92h183v-74h-225z" />
    <glyph glyph-name="lessequal" unicode="&#x2264;" 
d="M514 162l-409 196v88l409 196v-87l-325 -153l325 -153v-87zM90 0v74h440v-74h-440z" />
    <glyph glyph-name="greaterequal" unicode="&#x2265;" 
d="M106 162v87l325 153l-325 153v87l409 -196v-88zM90 0v74h440v-74h-440z" />
    <glyph glyph-name="lozenge" unicode="&#x25ca;" 
d="M269 0l-208 350l208 350h82l208 -350l-208 -350h-82zM310 81l159 269l-159 269l-159 -269z" />
    <glyph glyph-name="uniF8FF" unicode="&#xf8ff;" 
d="M14 22v595q0 17 16 22l270 78l10 2l10 -2l270 -78q16 -5 16 -22v-595q0 -9 -6.5 -15.5t-15.5 -6.5l-7 1l-267 77l-267 -77l-7 -1q-9 0 -15.5 6.5t-6.5 15.5zM288 366v303l-230 -67q6 -93 71.5 -161t158.5 -75zM562 602l-230 67v-303q93 7 158.5 75t71.5 161zM57 51
l231 67v204q-73 6 -134 43.5t-97 97.5v-412zM563 51v412q-37 -60 -98 -97.5t-133 -43.5v-204z" />
    <glyph glyph-name="NULL" 
 />
    <glyph glyph-name="Gcommaaccent.ss02" 
d="M44 350q0 171 81 264.5t208 93.5q97 0 162 -56.5t89 -156.5l-83 -25q-24 79 -64 116.5t-104 37.5q-95 0 -146.5 -69t-51.5 -205t51.5 -205t146.5 -69q143 0 157 193h-157v84h248v-353h-73l-5 94q-23 -49 -70 -75.5t-106 -26.5q-123 0 -203 94t-80 264zM279 -263l-15 19
q51 33 56 86q-48 14 -48 56q0 24 16 39.5t40 15.5q25 0 41.5 -17.5t16.5 -45.5q0 -83 -107 -153z" />
    <glyph glyph-name="Kcommaaccent.ss02" 
d="M63 0v700h88v-281l268 281h115l-302 -315l324 -385h-112l-293 351v-351h-88zM224 -263l-15 19q51 33 56 86q-48 14 -48 56q0 24 15.5 39.5t40.5 15.5t41.5 -17.5t16.5 -45.5q0 -83 -107 -153z" />
    <glyph glyph-name="Lcaron.ss02" 
d="M88 0v700h88v-616h357v-84h-445zM385 534l-15 19q51 33 56 86q-48 13 -48 56q0 23 16 39t40 16q25 0 41.5 -17.5t16.5 -45.5q0 -83 -107 -153z" />
    <glyph glyph-name="Lcommaaccent.ss02" 
d="M88 0v700h88v-616h357v-84h-445zM264 -263l-15 19q51 33 56 86q-48 14 -48 56q0 24 15.5 39.5t40.5 15.5t41.5 -17.5t16.5 -45.5q0 -83 -107 -153z" />
    <glyph glyph-name="Ncommaaccent.ss02" 
d="M71 0v700h96l293 -540v540h88v-700h-96l-293 540v-540h-88zM259 -263l-15 19q51 33 56 86q-48 14 -48 56q0 24 16 39.5t40 15.5q25 0 41.5 -17.5t16.5 -45.5q0 -83 -107 -153z" />
    <glyph glyph-name="Rcommaaccent.ss02" 
d="M80 0v700h245q97 0 151.5 -47.5t54.5 -137.5q0 -148 -146 -179l209 -336h-104l-205 330h-117v-330h-88zM168 414h159q113 0 113 101t-113 101h-159v-202zM269 -263l-15 19q51 33 56 86q-48 14 -48 56q0 24 16 39.5t40 15.5q25 0 41.5 -17.5t16.5 -45.5q0 -83 -107 -153z
" />
    <glyph glyph-name="Scommaaccent.ss02" 
d="M59 200l82 32q41 -156 179 -156q57 0 97 31q42 32 42 82q0 52 -34 79t-120 49q-91 23 -146 69q-56 47 -56 135q0 80 58.5 133.5t155.5 53.5q81 0 137.5 -41.5t81.5 -108.5l-77 -39q-46 105 -142 105q-58 0 -92 -28.5t-34 -79.5q0 -34 20 -57q19 -20 49.5 -33t92.5 -29
q100 -27 146 -67.5t48 -128.5q0 -98 -65 -153.5t-162 -55.5q-103 0 -172 54t-89 154zM259 -263l-15 19q51 33 56 86q-48 14 -48 56q0 24 16 39.5t40 15.5q25 0 41.5 -17.5t16.5 -45.5q0 -83 -107 -153z" />
    <glyph glyph-name="uni021A.ss02" 
d="M266 0v616h-218v84h524v-84h-218v-616h-88zM259 -263l-15 19q51 33 56 86q-48 14 -48 56q0 24 16 39.5t40 15.5q25 0 41.5 -17.5t16.5 -45.5q0 -83 -107 -153z" />
    <glyph glyph-name="i.loclTRK" 
d="M88 0v74h174v356h-154v74h238v-430h186v-74h-444zM235 638q0 29 20 49.5t49 20.5t49 -20.5t20 -49.5t-20 -48.5t-49 -19.5t-49 20t-20 48z" />
    <glyph glyph-name="a.ss01" 
d="M75 252q0 119 61.5 189.5t169.5 70.5q48 0 89 -20t65 -52v64h84v-504h-84v67q-24 -33 -65.5 -54t-88.5 -21q-108 0 -169.5 70.5t-61.5 189.5zM467 252q0 83 -41.5 133.5t-111.5 50.5t-111.5 -50.5t-41.5 -133.5t41.5 -133.5t111.5 -50.5t111.5 50.5t41.5 133.5z" />
    <glyph glyph-name="aacute.ss01" 
d="M75 252q0 119 61.5 189.5t169.5 70.5q48 0 89 -20t65 -52v64h84v-504h-84v67q-24 -33 -65.5 -54t-88.5 -21q-108 0 -169.5 70.5t-61.5 189.5zM467 252q0 83 -41.5 133.5t-111.5 50.5t-111.5 -50.5t-41.5 -133.5t41.5 -133.5t111.5 -50.5t111.5 50.5t41.5 133.5zM280 560
l67 144h121l-122 -144h-66z" />
    <glyph glyph-name="abreve.ss01" 
d="M75 252q0 119 61.5 189.5t169.5 70.5q48 0 89 -20t65 -52v64h84v-504h-84v67q-24 -33 -65.5 -54t-88.5 -21q-108 0 -169.5 70.5t-61.5 189.5zM467 252q0 83 -41.5 133.5t-111.5 50.5t-111.5 -50.5t-41.5 -133.5t41.5 -133.5t111.5 -50.5t111.5 50.5t41.5 133.5zM204 700
h67q0 -20 12.5 -32.5t31.5 -12.5q20 0 32 12.5t12 32.5h67q0 -46 -31.5 -77.5t-79.5 -31.5q-47 0 -79 31.5t-32 77.5z" />
    <glyph glyph-name="acircumflex.ss01" 
d="M75 252q0 119 61.5 189.5t169.5 70.5q48 0 89 -20t65 -52v64h84v-504h-84v67q-24 -33 -65.5 -54t-88.5 -21q-108 0 -169.5 70.5t-61.5 189.5zM467 252q0 83 -41.5 133.5t-111.5 50.5t-111.5 -50.5t-41.5 -133.5t41.5 -133.5t111.5 -50.5t111.5 50.5t41.5 133.5zM148 560
l154 152h26l154 -152h-91l-76 75l-76 -75h-91z" />
    <glyph glyph-name="adieresis.ss01" 
d="M75 252q0 119 61.5 189.5t169.5 70.5q48 0 89 -20t65 -52v64h84v-504h-84v67q-24 -33 -65.5 -54t-88.5 -21q-108 0 -169.5 70.5t-61.5 189.5zM467 252q0 83 -41.5 133.5t-111.5 50.5t-111.5 -50.5t-41.5 -133.5t41.5 -133.5t111.5 -50.5t111.5 50.5t41.5 133.5zM166 643
q0 24 16.5 40.5t40.5 16.5t40.5 -16.5t16.5 -40.5t-16.5 -40.5t-40.5 -16.5t-40.5 16.5t-16.5 40.5zM350 643q0 24 16.5 40.5t40.5 16.5t40.5 -16.5t16.5 -40.5t-16.5 -40.5t-40.5 -16.5t-40.5 16.5t-16.5 40.5z" />
    <glyph glyph-name="agrave.ss01" 
d="M75 252q0 119 61.5 189.5t169.5 70.5q48 0 89 -20t65 -52v64h84v-504h-84v67q-24 -33 -65.5 -54t-88.5 -21q-108 0 -169.5 70.5t-61.5 189.5zM467 252q0 83 -41.5 133.5t-111.5 50.5t-111.5 -50.5t-41.5 -133.5t41.5 -133.5t111.5 -50.5t111.5 50.5t41.5 133.5zM298 560
l-122 144h121l67 -144h-66z" />
    <glyph glyph-name="amacron.ss01" 
d="M75 252q0 119 61.5 189.5t169.5 70.5q48 0 89 -20t65 -52v64h84v-504h-84v67q-24 -33 -65.5 -54t-88.5 -21q-108 0 -169.5 70.5t-61.5 189.5zM467 252q0 83 -41.5 133.5t-111.5 50.5t-111.5 -50.5t-41.5 -133.5t41.5 -133.5t111.5 -50.5t111.5 50.5t41.5 133.5zM187 600
v74h254v-74h-254z" />
    <glyph glyph-name="aogonek.ss01" 
d="M75 252q0 119 61.5 189.5t169.5 70.5q48 0 89 -20t65 -52v64h84v-504h-84v67q-24 -33 -65.5 -54t-88.5 -21q-108 0 -169.5 70.5t-61.5 189.5zM467 252q0 83 -41.5 133.5t-111.5 50.5t-111.5 -50.5t-41.5 -133.5t41.5 -133.5t111.5 -50.5t111.5 50.5t41.5 133.5zM409 -97
q0 54 60 97h75q-62 -54 -62 -84q0 -32 33 -32q19 0 37 15l17 -66q-29 -17 -65 -17q-43 0 -69 23.5t-26 63.5z" />
    <glyph glyph-name="aring.ss01" 
d="M75 252q0 119 61.5 189.5t169.5 70.5q48 0 89 -20t65 -52v64h84v-504h-84v67q-24 -33 -65.5 -54t-88.5 -21q-108 0 -169.5 70.5t-61.5 189.5zM467 252q0 83 -41.5 133.5t-111.5 50.5t-111.5 -50.5t-41.5 -133.5t41.5 -133.5t111.5 -50.5t111.5 50.5t41.5 133.5zM216 653
q0 42 28.5 71t70.5 29t70.5 -29t28.5 -71q0 -41 -28 -68.5t-71 -27.5q-42 0 -70.5 27.5t-28.5 68.5zM358 654q0 20 -12 33t-31 13t-31 -13t-12 -33q0 -19 12 -31.5t31 -12.5t31 12.5t12 31.5z" />
    <glyph glyph-name="aringacute.ss01" 
d="M75 252q0 119 61.5 189.5t169.5 70.5q48 0 89 -20t65 -52v64h84v-504h-84v67q-24 -33 -65.5 -54t-88.5 -21q-108 0 -169.5 70.5t-61.5 189.5zM467 252q0 83 -41.5 133.5t-111.5 50.5t-111.5 -50.5t-41.5 -133.5t41.5 -133.5t111.5 -50.5t111.5 50.5t41.5 133.5zM216 653
q0 42 28.5 71t70.5 29t70.5 -29t28.5 -71q0 -41 -28 -68.5t-71 -27.5q-42 0 -70.5 27.5t-28.5 68.5zM358 654q0 20 -12 33t-31 13t-31 -13t-12 -33q0 -19 12 -31.5t31 -12.5t31 12.5t12 31.5zM280 795l67 144h121l-122 -144h-66z" />
    <glyph glyph-name="atilde.ss01" 
d="M75 252q0 119 61.5 189.5t169.5 70.5q48 0 89 -20t65 -52v64h84v-504h-84v67q-24 -33 -65.5 -54t-88.5 -21q-108 0 -169.5 70.5t-61.5 189.5zM467 252q0 83 -41.5 133.5t-111.5 50.5t-111.5 -50.5t-41.5 -133.5t41.5 -133.5t111.5 -50.5t111.5 50.5t41.5 133.5zM308 600
q-33 18 -55 18q-37 0 -66 -36l-49 38q41 76 107 76q35 0 76 -22q33 -18 55 -18q38 0 66 36l49 -39q-18 -34 -46.5 -54.5t-60.5 -20.5q-35 0 -76 22z" />
    <glyph glyph-name="ae.ss01" 
d="M25 251q0 137 45 199t113 62q53 0 78 -39v31h86v-35q31 43 90 43q75 0 116 -59.5t41 -168.5v-50h-246q0 -79 22 -122.5t61 -43.5q31 0 49 22t36 77l72 -21q-38 -154 -157 -154q-53 0 -84 42v-34h-86v35q-32 -43 -78 -43q-72 0 -115 64.5t-43 194.5zM262 253
q0 183 -76 183q-39 0 -58.5 -41.5t-19.5 -141.5q0 -104 20 -146q21 -39 58 -39q76 0 76 185zM348 310h162q0 56 -21.5 91t-57.5 35t-59.5 -35t-23.5 -91z" />
    <glyph glyph-name="aeacute.ss01" 
d="M25 251q0 137 45 199t113 62q53 0 78 -39v31h86v-35q31 43 90 43q75 0 116 -59.5t41 -168.5v-50h-246q0 -79 22 -122.5t61 -43.5q31 0 49 22t36 77l72 -21q-38 -154 -157 -154q-53 0 -84 42v-34h-86v35q-32 -43 -78 -43q-72 0 -115 64.5t-43 194.5zM262 253
q0 183 -76 183q-39 0 -58.5 -41.5t-19.5 -141.5q0 -104 20 -146q21 -39 58 -39q76 0 76 185zM348 310h162q0 56 -21.5 91t-57.5 35t-59.5 -35t-23.5 -91zM269 560l67 144h121l-122 -144h-66z" />
    <glyph glyph-name="dcaron.ss02" 
d="M15 252q0 119 61.5 189.5t169.5 70.5q48 0 89 -20t65 -52v268h84v-708h-84v67q-24 -33 -65.5 -54t-88.5 -21q-108 0 -169.5 70.5t-61.5 189.5zM407 252q0 83 -41.5 133.5t-111.5 50.5t-111.5 -50.5t-41.5 -133.5t41.5 -133.5t111.5 -50.5t111.5 50.5t41.5 133.5zM535 534
l-15 19q51 33 56 86q-48 13 -48 56q0 23 16 39t40 16q25 0 41.5 -17.5t16.5 -45.5q0 -83 -107 -153z" />
    <glyph glyph-name="gcommaaccent.ss02" 
d="M83 -46q0 69 52 108q-36 29 -36 77q0 34 19.5 61t54.5 40q-31 41 -31 103q0 76 50 122.5t128 46.5q53 0 99 -26l105 54l38 -69l-85 -44q21 -36 21 -84q0 -76 -50 -123q-49 -46 -128 -46q-52 0 -93 21q-46 -18 -46 -52q0 -42 71 -42h131q81 0 125 -35.5t44 -103.5
q0 -88 -69 -131q-68 -43 -167 -43q-111 0 -172 43t-61 123zM416 343q0 45 -27 71t-69 26t-69 -26.5t-27 -70.5t27 -70.5t69 -26.5t69 26t27 71zM466 -46q0 75 -85 75h-119q-33 0 -52 4q-43 -22 -43 -76q0 -44 40 -69.5t109 -25.5q71 0 110.5 24.5t39.5 67.5zM259 624
q0 82 107 154l15 -19q-51 -33 -56 -86q48 -13 48 -56q0 -23 -15.5 -39t-40.5 -16t-41.5 17.5t-16.5 44.5z" />
    <glyph glyph-name="kcommaaccent.ss02" 
d="M94 0v708h84v-415l215 211h110l-235 -231l258 -273h-110l-238 253v-253h-84zM242 -263l-15 19q51 33 56 86q-48 14 -48 56q0 24 15.5 39.5t40.5 15.5t41.5 -17.5t16.5 -45.5q0 -83 -107 -153z" />
    <glyph glyph-name="lcaron.ss02" 
d="M188 190v434h-139v76h223v-510q0 -122 106 -122q99 0 117 122l76 -15q-13 -89 -63 -136t-130 -47q-88 0 -139 52.5t-51 145.5zM418 534l-15 19q51 33 56 86q-48 13 -48 56q0 23 15.5 39t40.5 16t41.5 -17.5t16.5 -45.5q0 -83 -107 -153z" />
    <glyph glyph-name="lcommaaccent.ss02" 
d="M188 190v434h-139v76h223v-510q0 -122 106 -122q99 0 117 122l76 -15q-13 -89 -63 -136t-130 -47q-88 0 -139 52.5t-51 145.5zM326 -263l-15 19q51 33 56 86q-48 14 -48 56q0 24 15.5 39.5t40.5 15.5t41.5 -17.5t16.5 -45.5q0 -83 -107 -153z" />
    <glyph glyph-name="ncommaaccent.ss02" 
d="M106 0v504h84v-93q28 46 74 73.5t97 27.5q76 0 115 -42.5t39 -118.5v-351h-84v333q0 103 -93 103q-63 0 -105.5 -64t-42.5 -169v-203h-84zM259 -263l-15 19q51 33 56 86q-48 14 -48 56q0 24 16 39.5t40 15.5q25 0 41.5 -17.5t16.5 -45.5q0 -83 -107 -153z" />
    <glyph glyph-name="rcommaaccent.ss02" 
d="M92 0v504h84v-93q64 101 186 101q75 0 118.5 -43.5t47.5 -124.5h-84q-11 92 -97 92q-73 0 -122 -67.5t-49 -186.5v-182h-84zM83 -263l-15 19q51 33 56 86q-48 14 -48 56q0 24 16 39.5t40 15.5q25 0 41.5 -17.5t16.5 -45.5q0 -83 -107 -153z" />
    <glyph glyph-name="scommaaccent.ss02" 
d="M103 138l80 30q13 -48 50 -74t89 -26q49 0 78 18.5t29 53.5t-26.5 50t-103.5 30q-81 15 -122 48t-41 98t50 105.5t122 40.5q129 0 187 -112l-69 -44q-44 80 -121 80q-38 0 -62.5 -17.5t-24.5 -49.5q0 -30 27.5 -48t89.5 -30q94 -19 137.5 -50.5t43.5 -93.5
q0 -69 -56.5 -112t-137.5 -43q-79 0 -137.5 38.5t-81.5 107.5zM259 -263l-15 19q51 33 56 86q-48 14 -48 56q0 24 16 39.5t40 15.5q25 0 41.5 -17.5t16.5 -45.5q0 -83 -107 -153z" />
    <glyph glyph-name="tcaron.ss02" 
d="M200 167v261h-134v76h134v151l84 53v-204h176v-76h-176v-258q0 -102 87 -102q65 0 124 60l31 -71q-65 -65 -155 -65q-84 0 -127.5 44t-43.5 131zM417 534l-15 19q51 33 56 86q-48 13 -48 56q0 23 16 39t40 16q25 0 41.5 -17.5t16.5 -45.5q0 -83 -107 -153z" />
    <glyph glyph-name="uni021B.ss02" 
d="M200 167v261h-134v76h134v151l84 53v-204h176v-76h-176v-258q0 -102 87 -102q65 0 124 60l31 -71q-65 -65 -155 -65q-84 0 -127.5 44t-43.5 131zM309 -263l-15 19q51 33 56 86q-48 14 -48 56q0 24 16 39.5t40 15.5q25 0 41.5 -17.5t16.5 -45.5q0 -83 -107 -153z" />
    <glyph glyph-name="f_b" 
d="M307 47v-47h-84v632h-21q-32 0 -46.5 -17t-14.5 -58v-53h53v-76h-53v-428h-84v428h-40v76h40v60q0 144 142 144h108v-248q17 23 50 37.5t64 14.5q86 0 133.5 -70t47.5 -190t-47.5 -190t-133.5 -70q-75 0 -114 55zM516 252q0 84 -27.5 134t-75.5 50q-113 0 -113 -184
t113 -184q48 0 75.5 50t27.5 134z" />
    <glyph glyph-name="f_f" 
d="M431 504h156v-76h-156v-428h-84v428h-176v-428h-84v428h-72v76h72v31q0 173 155 173q58 0 105 -29l-21 -74q-42 27 -81 27q-74 0 -74 -95v-33h176v31q0 173 155 173q58 0 105 -29l-21 -74q-42 27 -81 27q-74 0 -74 -95v-33z" />
    <glyph glyph-name="f_h" 
d="M57 0v428h-40v76h40v61q0 143 142 143h128v-266q41 70 130 70q67 0 106 -42.5t39 -119.5v-350h-86v341q0 95 -74 95q-115 0 -115 -212v-224h-84v632h-41q-32 0 -46.5 -17t-14.5 -58v-53h53v-76h-53v-428h-84z" />
    <glyph glyph-name="f_i" 
d="M165 0v428h-92v76h92v26q0 84 51 131t134 47q61 0 102 -17.5t75 -58.5l-58 -55q-51 55 -120 55q-48 0 -74 -24t-26 -71v-33h297v-504h-84v428h-213v-428h-84z" />
    <glyph glyph-name="f_j" 
d="M355 -212l-28 80q72 24 103.5 66t31.5 116v378h-213v-428h-84v428h-92v76h92v26q0 84 51 131t134 47q61 0 102 -17.5t75 -58.5l-58 -55q-51 55 -120 55q-48 0 -74 -24t-26 -71v-33h297v-476q0 -101 -56 -160q-56 -61 -135 -80z" />
    <glyph glyph-name="f_k" 
d="M463 273l125 -273h-93l-108 253v-253h-84v632h-55q-70 0 -70 -95v-25h84v-76h-84v-436h-84v436h-62v76h62v18q0 178 155 178h138v-415l85 211h93z" />
    <glyph glyph-name="f_l" 
d="M165 0v428h-92v76h92v18q0 178 155 178h228v-700h-84v624h-145q-70 0 -70 -95v-25h104v-76h-104v-428h-84z" />
    <glyph glyph-name="zero.osf" 
d="M558 252q0 -108 -69 -184t-179 -76t-179 76t-69 184t69 184t179 76t179 -76t69 -184zM148 252q0 -81 46 -133l166 310q-27 7 -50 7q-73 0 -117.5 -53.5t-44.5 -130.5zM472 252q0 80 -46 132l-165 -309q24 -7 49 -7q73 0 117.5 53.5t44.5 130.5z" />
    <glyph glyph-name="one.osf" 
d="M88 0v76h180v302l-145 -85v92l197 119h32v-428h180v-76h-444z" />
    <glyph glyph-name="two.osf" 
d="M128 0v32l156 160l19 19q49 49 65 75q18 27 18 65q0 42 -22.5 64t-62.5 22q-87 0 -98 -99l-76 14q3 70 52.5 115t123.5 45q76 0 121.5 -42.5t45.5 -116.5q0 -49 -27 -90q-24 -38 -85 -99l-88 -88h222v-76h-364z" />
    <glyph glyph-name="three.osf" 
d="M80 -4l84 11q19 -131 139 -131q64 0 102 39.5t38 108.5q0 70 -37.5 109t-102.5 39q-36 0 -62 -13l-35 47l159 218h-252v80h380v-27l-178 -241q9 3 28 3q81 0 133.5 -60t52.5 -155q0 -100 -63 -164t-163 -64q-88 0 -151 55t-72 145z" />
    <glyph glyph-name="four.osf" 
d="M366 -196v149h-304v35l296 516h94v-471h106v-80h-106v-149h-86zM176 33h190v339z" />
    <glyph glyph-name="five.osf" 
d="M95 -13l85 16q9 -61 44.5 -94t90.5 -33q64 0 103 43t39 113q0 72 -35.5 114t-98.5 42q-46 0 -88 -21.5t-69 -56.5l-55 12l40 382h342v-80h-269l-26 -203q21 20 58.5 33.5t72.5 13.5q99 0 156.5 -63.5t57.5 -172.5q0 -104 -64 -170t-164 -66q-91 0 -151 50.5t-69 140.5z
" />
    <glyph glyph-name="six.osf" 
d="M104 220q0 70 36 131l207 357h96l-152 -267q14 7 38 7q95 0 156 -64t61 -164q0 -97 -62.5 -162.5t-158.5 -65.5t-158.5 65.5t-62.5 162.5zM458 220q0 67 -37 107.5t-96 40.5t-96 -40.5t-37 -107.5q0 -64 37.5 -106t95.5 -42t95.5 42t37.5 106z" />
    <glyph glyph-name="seven.osf" 
d="M136 -196l295 620h-339v80h449v-37l-312 -663h-93z" />
    <glyph glyph-name="eight.osf" 
d="M93 201q0 62 27.5 108t76.5 68q-35 19 -57.5 59.5t-22.5 84.5q0 79 55 133t138 54t138 -54t55 -133q0 -44 -22.5 -84.5t-57.5 -59.5q49 -22 76.5 -68t27.5 -108q0 -94 -63 -151.5t-154 -57.5t-154 57.5t-63 151.5zM417 521q0 49 -29.5 80t-77.5 31t-77.5 -31t-29.5 -80
t29.5 -80t77.5 -31t77.5 31t29.5 80zM439 201q0 59 -35.5 94t-93.5 35t-93.5 -35t-35.5 -94t35.5 -94t93.5 -35t93.5 35t35.5 94z" />
    <glyph glyph-name="nine.osf" 
d="M192 -204l152 267q-14 -7 -38 -7q-95 0 -156 64t-61 164q0 97 62.5 162.5t158.5 65.5t158.5 -65.5t62.5 -162.5q0 -70 -36 -131l-207 -357h-96zM443 284q0 64 -37.5 106t-95.5 42t-95.5 -42t-37.5 -106q0 -67 37 -107.5t96 -40.5t96 40.5t37 107.5z" />
    <glyph glyph-name="zero.osf.zero" 
d="M62 252q0 108 69 184t179 76t179 -76t69 -184t-69 -184t-179 -76t-179 76t-69 184zM472 252q0 77 -44.5 130.5t-117.5 53.5t-117.5 -53.5t-44.5 -130.5t44.5 -130.5t117.5 -53.5t117.5 53.5t44.5 130.5z" />
    <glyph glyph-name="zero.zero" 
d="M54 350q0 165 68 261.5t188 96.5t188 -96.5t68 -261.5t-68 -261.5t-188 -96.5t-188 96.5t-68 261.5zM478 350q0 122 -43 199q-42 79 -125 79q-80 0 -124 -74t-44 -204q0 -120 42 -200q44 -78 126 -78q80 0 124 74t44 204z" />
    <glyph glyph-name="uni2080.zero" 
d="M158 -4q0 94 40.5 149t111.5 55t111.5 -55t40.5 -149t-40.5 -149t-111.5 -55t-111.5 55t-40.5 149zM394 -4q0 144 -84 144t-84 -144t84 -144t84 144z" />
    <glyph glyph-name="uni2070.zero" 
d="M158 500q0 94 40.5 149t111.5 55t111.5 -55t40.5 -149t-40.5 -149t-111.5 -55t-111.5 55t-40.5 149zM394 500q0 144 -84 144t-84 -144t84 -144t84 144z" />
    <glyph glyph-name="bullet.case" 
d="M227 350q0 35 24.5 59t58.5 24q35 0 59 -24t24 -59q0 -34 -24 -58.5t-59 -24.5q-34 0 -58.5 24.5t-24.5 58.5z" />
    <glyph glyph-name="exclamdown.case" 
d="M380 635q0 -30 -20 -50.5t-50 -20.5t-50 20.5t-20 50.5q0 29 20 48.5t50 19.5t50 -19.5t20 -48.5zM277 500h66l24 -500h-114z" />
    <glyph glyph-name="questiondown.case" 
d="M372 637q0 -29 -19 -48.5t-47 -19.5t-48 20t-20 48t19.5 47t48.5 19q28 0 47 -19t19 -47zM438 374q0 -78 -85 -120l-92 -47q-43 -22 -43 -71q0 -35 23 -54t63 -19q38 0 65.5 24.5t39.5 67.5l78 -13q-12 -69 -60.5 -109.5t-122.5 -40.5q-77 0 -123.5 40t-46.5 109
q0 81 77 119l101 49q49 24 49 69q0 24 -14 37.5t-38 13.5q-46 0 -72 -59l-65 23q36 105 134 105q60 0 96 -33.5t36 -90.5z" />
    <glyph glyph-name="comma.ss02" 
d="M256 -112l-16 21q53 35 60 90q-24 6 -38 23t-14 39q0 25 17 42t43 17q27 0 45 -19t18 -48q0 -91 -115 -165z" />
    <glyph glyph-name="semicolon.ss02" 
d="M249 425q0 27 17.5 44.5t44.5 17.5t44.5 -17.5t17.5 -44.5t-17.5 -44.5t-44.5 -17.5t-44.5 17.5t-17.5 44.5zM257 -112l-16 21q53 35 60 90q-24 6 -38 23t-14 39q0 25 17 42t43 17q27 0 45 -19t18 -48q0 -91 -115 -165z" />
    <glyph glyph-name="periodcentered.ss04" 
d="M239 350q0 31 20 51t51 20t51 -20t20 -51t-20 -51t-51 -20t-51 20t-20 51z" />
    <glyph glyph-name="colon.ss04" 
d="M239 67q0 31 20 51t51 20t51 -20t20 -51t-20 -51t-51 -20t-51 20t-20 51zM239 416q0 31 20 51t51 20t51 -20t20 -51t-20 -51t-51 -20t-51 20t-20 51z" />
    <glyph glyph-name="comma.ss04" 
d="M200 -103l58 222h131l-117 -222h-72z" />
    <glyph glyph-name="ellipsis.ss04" 
d="M239 67q0 31 20 51t51 20t51 -20t20 -51t-20 -51t-51 -20t-51 20t-20 51zM437 67q0 31 20 51t51 20t51 -20t20 -51t-20 -51t-51 -20t-51 20t-20 51zM37 67q0 31 20 51t51 20t51 -20t20 -51t-20 -51t-51 -20t-51 20t-20 51z" />
    <glyph glyph-name="period.ss04" 
d="M239 67q0 31 20 51t51 20t51 -20t20 -51t-20 -51t-51 -20t-51 20t-20 51z" />
    <glyph glyph-name="semicolon.ss04" 
d="M239 421q0 31 20 51t51 20t51 -20t20 -51t-20 -51t-51 -20t-51 20t-20 51zM190 -103l58 222h131l-117 -222h-72z" />
    <glyph glyph-name="comma.ss02.ss04" 
d="M245 -136l-18 24q68 47 73 109q-29 7 -45 26.5t-16 45.5q0 29 19.5 49t50.5 20q32 0 53 -22t21 -56q0 -55 -37.5 -106.5t-100.5 -89.5z" />
    <glyph glyph-name="semicolon.ss02.ss04" 
d="M239 421q0 31 20 51t51 20t51 -20t20 -51t-20 -51t-51 -20t-51 20t-20 51zM245 -136l-18 24q68 47 73 109q-29 7 -45 26.5t-16 45.5q0 29 19.5 49t50.5 20q32 0 53 -22t21 -56q0 -55 -37.5 -106.5t-100.5 -89.5z" />
    <glyph glyph-name="braceleft.case" 
d="M272 103v126q0 46 -17.5 64.5t-61.5 18.5v76q44 0 61.5 18.5t17.5 64.5v127q0 47 26.5 74.5t69.5 27.5h59v-75h-29q-25 0 -35.5 -11.5t-10.5 -37.5v-129q0 -44 -16.5 -66t-51.5 -31q35 -9 51.5 -31t16.5 -66v-129q0 -26 10.5 -37t35.5 -11h29v-76h-59q-43 0 -69.5 28
t-26.5 75z" />
    <glyph glyph-name="braceright.case" 
d="M348 103q0 -47 -26.5 -75t-69.5 -28h-59v76h29q25 0 35.5 11t10.5 37v129q0 44 16.5 66t51.5 31q-35 9 -51.5 31t-16.5 66v129q0 26 -10.5 37.5t-35.5 11.5h-29v75h59q43 0 69.5 -27.5t26.5 -74.5v-127q0 -46 17.5 -64.5t61.5 -18.5v-76q-44 0 -61.5 -18.5t-17.5 -64.5
v-126z" />
    <glyph glyph-name="bracketleft.case" 
d="M212 0v700h196v-73h-116v-554h116v-73h-196z" />
    <glyph glyph-name="bracketright.case" 
d="M408 700v-700h-196v73h116v554h-116v73h196z" />
    <glyph glyph-name="parenleft.case" 
d="M220 350q0 180 100 350h80q-95 -169 -95 -350q0 -183 94 -350h-79q-100 170 -100 350z" />
    <glyph glyph-name="parenright.case" 
d="M400 350q0 -180 -100 -350h-79q94 167 94 350q0 181 -95 350h80q100 -170 100 -350z" />
    <glyph glyph-name="emdash.case" 
d="M65 313v74h490v-74h-490z" />
    <glyph glyph-name="endash.case" 
d="M105 313v74h409v-74h-409z" />
    <glyph glyph-name="hyphen.case" 
d="M136 313v74h349v-74h-349z" />
    <glyph glyph-name="uni00AD.case" 
d="M136 280v74h349v-74h-349z" />
    <glyph glyph-name="guillemotleft.case" 
d="M337 120l-294 199v62l294 199v-90l-209 -140l209 -140v-90zM577 120l-294 199v62l294 199v-90l-209 -140l209 -140v-90z" />
    <glyph glyph-name="guillemotright.case" 
d="M43 120v90l209 140l-209 140v90l294 -199v-62zM283 120v90l209 140l-209 140v90l294 -199v-62z" />
    <glyph glyph-name="guilsinglleft.case" 
d="M457 120l-294 199v62l294 199v-90l-209 -140l209 -140v-90z" />
    <glyph glyph-name="guilsinglright.case" 
d="M163 120v90l209 140l-209 140v90l294 -199v-62z" />
    <glyph glyph-name="quotedblbase.ss02" 
d="M294 52q0 -98 -120 -163l-13 24q55 33 62 87q-24 6 -38 23t-14 39q0 25 17 42t43 17q27 0 45 -19.5t18 -49.5zM454 52q0 -98 -120 -163l-13 24q55 33 62 87q-24 6 -38 23t-14 39q0 25 17 42t43 17q27 0 45 -19.5t18 -49.5z" />
    <glyph glyph-name="quotedblleft.ss02" 
d="M321 545q0 98 120 163l13 -24q-55 -33 -62 -87q24 -6 38 -23t14 -39q0 -25 -17 -42t-43 -17q-27 0 -45 19.5t-18 49.5zM161 545q0 98 120 163l13 -24q-55 -33 -62 -87q24 -6 38 -23t14 -39q0 -25 -17 -42t-43 -17q-27 0 -45 19.5t-18 49.5z" />
    <glyph glyph-name="quotedblright.ss02" 
d="M294 639q0 -98 -120 -163l-13 24q55 33 62 87q-24 6 -38 23t-14 39q0 25 17 42t43 17q27 0 45 -19.5t18 -49.5zM454 639q0 -98 -120 -163l-13 24q55 33 62 87q-24 6 -38 23t-14 39q0 25 17 42t43 17q27 0 45 -19.5t18 -49.5z" />
    <glyph glyph-name="quoteleft.ss02" 
d="M246 545q0 98 120 163l13 -24q-55 -33 -62 -87q24 -6 38 -23t14 -39q0 -25 -17 -42t-43 -17q-27 0 -45 19.5t-18 49.5z" />
    <glyph glyph-name="quoteright.ss02" 
d="M376 639q0 -98 -120 -163l-13 24q55 33 62 87q-24 6 -38 23t-14 39q0 25 17 42t43 17q27 0 45 -19.5t18 -49.5z" />
    <glyph glyph-name="quotesinglbase.ss02" 
d="M374 52q0 -98 -120 -163l-13 24q55 33 62 87q-24 6 -38 23t-14 39q0 25 17 42t43 17q27 0 45 -19.5t18 -49.5z" />
    <glyph glyph-name="uni037E.ss02.001" 
d="M249 425q0 27 17.5 44.5t44.5 17.5t44.5 -17.5t17.5 -44.5t-17.5 -44.5t-44.5 -17.5t-44.5 17.5t-17.5 44.5zM257 -112l-16 21q53 35 60 90q-24 6 -38 23t-14 39q0 25 17 42t43 17q27 0 45 -19t18 -48q0 -91 -115 -165z" />
    <glyph glyph-name="uni037E.ss04" 
d="M239 421q0 31 20 51t51 20t51 -20t20 -51t-20 -51t-51 -20t-51 20t-20 51zM245 -136l-18 24q68 47 73 109q-29 7 -45 26.5t-16 45.5q0 29 19.5 49t50.5 20q32 0 53 -22t21 -56q0 -55 -37.5 -106.5t-100.5 -89.5z" />
    <glyph glyph-name="arrowup.ss03" 
d="M272 64v404l-144 -141l-54 53l236 236l236 -236l-54 -53l-144 141v-404h-76z" />
    <glyph glyph-name="uni2197.ss03" 
d="M154 145l-53 54l285 285l-202 2v76l335 -1v-333h-77l-2 202z" />
    <glyph glyph-name="arrowright.ss03" 
d="M350 114l-53 54l141 144h-404v76h404l-141 144l53 55l236 -236z" />
    <glyph glyph-name="uni2198.ss03" 
d="M184 146v75h204l-287 287l53 54l288 -287v204h77v-333h-335z" />
    <glyph glyph-name="arrowdown.ss03" 
d="M272 616h76v-404l144 141l54 -53l-236 -236l-236 236l54 53l144 -141v404z" />
    <glyph glyph-name="uni2199.ss03" 
d="M101 146v333h77v-204l288 287l53 -54l-287 -287h204v-75h-335z" />
    <glyph glyph-name="arrowleft.ss03" 
d="M586 388v-76h-404l141 -144l-53 -54l-236 237l236 236l53 -55l-141 -144h404z" />
    <glyph glyph-name="uni2196.ss03" 
d="M466 145l-286 285l-2 -201l-77 -1v333l335 1l-1 -76l-201 -2l285 -285z" />
    <glyph glyph-name="caroncomb.alt" horiz-adv-x="0" 
d="M-373 542l24 174h104l-72 -174h-56z" />
    <glyph glyph-name="uni0308.cap" horiz-adv-x="0" 
d="M-459 839q0 24 16.5 40.5t40.5 16.5t40.5 -16.5t16.5 -40.5t-16.5 -40.5t-40.5 -16.5t-40.5 16.5t-16.5 40.5zM-275 839q0 24 16.5 40.5t40.5 16.5t40.5 -16.5t16.5 -40.5t-16.5 -40.5t-40.5 -16.5t-40.5 16.5t-16.5 40.5z" />
    <glyph glyph-name="uni0307.cap" horiz-adv-x="0" 
d="M-379 844q0 29 20 49.5t49 20.5t49 -20.5t20 -49.5t-20 -48.5t-49 -19.5t-49 20t-20 48z" />
    <glyph glyph-name="gravecomb.cap" horiz-adv-x="0" 
d="M-282 756l-122 144h121l67 -144h-66z" />
    <glyph glyph-name="acutecomb.cap" horiz-adv-x="0" 
d="M-404 756l67 144h121l-122 -144h-66z" />
    <glyph glyph-name="uni030B.cap" horiz-adv-x="0" 
d="M-512 756l68 144h121l-121 -144h-68zM-322 756l68 144h121l-121 -144h-68z" />
    <glyph glyph-name="uni0302.cap" horiz-adv-x="0" 
d="M-477 756l154 152h26l154 -152h-91l-76 75l-76 -75h-91z" />
    <glyph glyph-name="uni030C.cap" horiz-adv-x="0" 
d="M-323 756l-154 152h91l76 -75l76 75h91l-154 -152h-26z" />
    <glyph glyph-name="uni0306.cap" horiz-adv-x="0" 
d="M-421 896h67q0 -20 12.5 -32.5t31.5 -12.5q20 0 32 12.5t12 32.5h67q0 -46 -31.5 -77.5t-79.5 -31.5q-47 0 -79 31.5t-32 77.5z" />
    <glyph glyph-name="uni030A.cap" horiz-adv-x="0" 
d="M-409 849q0 42 28.5 71t70.5 29t70.5 -29t28.5 -71q0 -41 -28 -68.5t-71 -27.5q-42 0 -70.5 27.5t-28.5 68.5zM-267 850q0 20 -12 33t-31 13t-31 -13t-12 -33q0 -19 12 -31.5t31 -12.5t31 12.5t12 31.5z" />
    <glyph glyph-name="tildecomb.cap" horiz-adv-x="0" 
d="M-317 796q-33 18 -55 18q-38 0 -66 -36l-49 38q41 76 107 76q35 0 76 -22q33 -18 55 -18q37 0 66 36l49 -39q-18 -34 -46.5 -54.5t-60.5 -20.5q-35 0 -76 22z" />
    <glyph glyph-name="uni0304.cap" horiz-adv-x="0" 
d="M-437 796v74h254v-74h-254z" />
    <glyph glyph-name="uni0327.cap" horiz-adv-x="0" 
d="M-304 -235l-95 45l108 130h70z" />
    <glyph glyph-name="uni0328.cap" horiz-adv-x="0" 
d="M-390 -97q0 54 60 97h75q-62 -54 -62 -84q0 -32 33 -32q19 0 37 15l17 -66q-29 -17 -65 -17q-43 0 -69 23.5t-26 63.5z" />
    <glyph glyph-name="uni0335.cap" horiz-adv-x="0" 
d="M-480 312v76h341v-76h-341z" />
    <glyph glyph-name="uni0337.cap" horiz-adv-x="0" 
d="M-437 223l-39 74l289 168l43 -74z" />
    <glyph glyph-name="uni0338.cap" horiz-adv-x="0" 
d="M-553 -24l-59 44l545 704l59 -44z" />
    <glyph glyph-name="caroncomb.alt.ss02" horiz-adv-x="0" 
d="M-358 534l-15 19q51 33 56 86q-48 13 -48 56q0 23 15.5 39t40.5 16t41.5 -17.5t16.5 -45.5q0 -83 -107 -153z" />
    <glyph glyph-name="uni0312.ss02" horiz-adv-x="0" 
d="M-371 624q0 82 107 154l15 -19q-51 -33 -56 -86q48 -13 48 -56q0 -23 -15.5 -39t-40.5 -16t-41.5 17.5t-16.5 44.5z" />
    <glyph glyph-name="uni0326.ss02" horiz-adv-x="0" 
d="M-362 -263l-15 19q51 33 56 86q-48 14 -48 56q0 24 15.5 39.5t40.5 15.5t41.5 -17.5t16.5 -45.5q0 -83 -107 -153z" />
    <glyph glyph-name="brevecombcy" horiz-adv-x="0" 
d="M-421 700h67q0 -20 12.5 -32.5t31.5 -12.5q20 0 32 12.5t12 32.5h67q0 -46 -31.5 -77.5t-79.5 -31.5q-47 0 -79 31.5t-32 77.5z" />
    <glyph glyph-name="tonoscomb" 
d="M216 560l43 143h121l-96 -143h-68z" />
    <glyph glyph-name="dieresistonoscomb" 
d="M241 560l43 143h108l-92 -143h-59zM116 631q0 24 16.5 40.5t39.5 16.5q25 0 41 -16.5t16 -40.5t-16 -40t-41 -16q-23 0 -39.5 16t-16.5 40zM391 631q0 24 16.5 40.5t39.5 16.5q25 0 41 -16.5t16 -40.5t-16 -40t-41 -16q-23 0 -39.5 16t-16.5 40z" />
  </font>
</defs>
</svg>
